<?xml version="1.0" encoding="UTF-8" standalone="no"?>
<svg xmlns:rdf="http://www.w3.org/1999/02/22-rdf-syntax-ns#" xmlns="http://www.w3.org/2000/svg" height="253" width="253" version="1.1" xmlns:cc="http://creativecommons.org/ns#" xmlns:dc="http://purl.org/dc/elements/1.1/" viewBox="0 0 16 16">
<g transform="translate(-44.3 -30.3)">
<rect height="16" width="16" y="30.3" x="44.3" fill="none"/>
<g transform="matrix(.239 0 0 .239 22.3 28.7)">
<path style="color-rendering:auto;text-decoration-color:#000000;color:#000000;font-variant-numeric:normal;shape-rendering:auto;font-variant-ligatures:normal;text-decoration-line:none;font-variant-position:normal;mix-blend-mode:normal;solid-color:#000000;font-feature-settings:normal;shape-padding:0;font-variant-alternates:normal;text-indent:0;dominant-baseline:auto;font-variant-caps:normal;image-rendering:auto;white-space:normal;text-decoration-style:solid;text-orientation:mixed;isolation:auto;text-transform:none" d="m117 43.6c-8-0.1-15 0.9-21.7 2.7-17.2 4.7-32.5 14.6-42.5 27.6-9.3 12-13.7 27.1-10.3 42.1-8.2 10-12.8 20-13.3 29-0.5 11 3.3 21 9.1 29 10.9 14 28.6 23 44.5 22 19.2 13 42.2 14 60.2 12 17-3 29-7 32-8 3 1 18 4 35 4l13-1-8-10c-9-10-12-21-13-24 11-16 15-33 13-47-3-15-13-26.2-28-32.4-17-31-42-44.5-67-45.9-1 0-2-0.1-3-0.1zm33 42.1h1c1 12.6 5 20.3 10 25.3 5 4 11 6 16 6v1c-5 0-12 3-17 8-5 6-9 13-9 20h-1c0-15-11-27-29-28v-1c9-1 16-3 21-7s8-11.7 8-24.3zm-29 41.3h1c0 6 1 11 4 15 3 3 8 5 16 5v1c-8 0-13 1-16 5-3 3-3 8-3 15h-1c0-7-1-12-4-16-2-3-7-4-16-4v-1c9 0 14-2 16-6 3-3 3-8 3-14zm44 15h1c0 7 1 12 4 15 2 3 6 4 11 4l1 1c-6 0-10 2-12 5-3 3-4 8-4 15h-1c0-6-1-11-4-15-2-3-8-5-17-5v-1c9 0 14-2 17-5s4-7 4-14z" transform="matrix(.265 0 0 .265 92.2 6.56)"/>
</g>
</g>
</svg>
