<?xml version="1.0" encoding="UTF-8" standalone="no"?>
<svg xmlns:rdf="http://www.w3.org/1999/02/22-rdf-syntax-ns#" xmlns="http://www.w3.org/2000/svg" height="67mm" width="67mm" version="1.1" xmlns:cc="http://creativecommons.org/ns#" xmlns:dc="http://purl.org/dc/elements/1.1/" viewBox="0 0 67.000001 67">
<g transform="translate(-18.8 -4.76)">
<rect height="67" width="67" y="4.76" x="18.8" fill="#fc217d"/>
<g transform="translate(-73.4 -1.8)" stroke="#fff">
<path d="m144 51.1s1.08 4.38 4.01 7.75c-4.54 0.135-9.35-1.07-9.35-1.07s-14.7 5.88-23.8-1.07c-6.82 1.34-19.1-8.84-9.35-19-4.41-14.2 23.5-28.9 35.3-6.15 7.62 2.81 9.62 11 3.21 19.5z" stroke-width="3.37" fill="none"/>
<path d="m124 37.6c4.71-0.345 7.45-1.6 7.82-8.32 0.205 6.74 4.2 8.4 6.82 8.49-2.66-0.0957-6.91 3.52-6.88 7.45-0.0452-3.91-2.97-7.34-7.75-7.62z" stroke-width=".265px" fill="#fff"/>
<path d="m119 45.5c4.89 0 5.32-2 5.31-5.28 0 3.27 0.957 5.35 5.45 5.35-4.47 0.0207-5.37 1.64-5.38 5.38 0.0116-3.75-0.513-5.45-5.38-5.45z" stroke-width=".265px" fill="#fff"/>
<path d="m130 49.3c4.86 0 5.66-1.68 5.66-5.13 0 3.8 1.18 5.25 4.24 5.21-2.83 0.0309-4.23 1.34-4.23 5.43 0-3.53-0.73-5.43-5.68-5.51z" stroke-width=".265px" fill="#fff"/>
</g>
</g>
</svg>
