<svg id="svg" version="1.1" width="400" height="256.910569105691" viewBox="0 0 400 256.910569105691" xmlns="http://www.w3.org/2000/svg" xmlns:xlink="http://www.w3.org/1999/xlink" ><g id="svgg"><path id="path0" d="M83.428 123.941 C 82.867 124.072,82.165 124.408,81.869 124.686 C 81.572 124.965,81.256 125.193,81.165 125.193 C 80.963 125.193,78.406 127.732,78.406 127.933 C 78.406 128.205,76.778 130.591,76.592 130.591 C 76.490 130.591,76.330 131.002,76.236 131.505 C 76.141 132.007,75.908 132.478,75.717 132.551 C 73.982 133.217,74.986 142.931,76.789 142.931 C 76.928 142.931,77.251 143.162,77.506 143.445 C 77.893 143.872,78.298 143.959,79.904 143.959 L 81.836 143.959 84.106 141.657 C 85.354 140.390,86.375 139.262,86.376 139.150 C 86.376 139.038,86.839 138.280,87.404 137.465 C 87.969 136.651,88.432 135.915,88.432 135.831 C 88.432 135.747,88.721 135.335,89.075 134.915 C 89.428 134.494,89.717 133.966,89.717 133.741 C 89.717 133.515,89.905 133.124,90.134 132.870 C 90.364 132.617,90.653 131.864,90.778 131.199 C 90.902 130.533,91.177 129.796,91.389 129.562 C 92.170 128.699,91.901 126.168,90.914 125.090 C 89.713 123.779,86.334 123.260,83.428 123.941 M145.951 155.322 C 144.971 155.582,143.445 156.787,143.445 157.301 C 143.445 157.456,143.323 157.584,143.173 157.584 C 143.024 157.584,142.671 158.104,142.390 158.740 C 142.109 159.377,141.768 159.897,141.633 159.897 C 141.498 159.897,141.388 160.229,141.388 160.634 C 141.388 161.039,141.166 161.652,140.895 161.997 C 140.624 162.342,140.320 163.080,140.220 163.638 C 140.120 164.196,139.871 164.845,139.667 165.079 C 139.085 165.746,138.916 169.165,139.399 170.497 C 139.618 171.100,139.870 171.921,139.960 172.322 C 140.389 174.238,144.056 175.036,146.658 173.779 C 147.224 173.506,147.872 173.278,148.099 173.274 C 148.325 173.269,148.823 172.976,149.204 172.622 C 149.586 172.269,150.008 171.979,150.142 171.979 C 150.276 171.979,150.386 171.806,150.386 171.594 C 150.386 171.382,150.617 170.977,150.900 170.694 C 151.183 170.411,151.414 170.012,151.414 169.806 C 151.414 169.301,151.965 168.123,152.201 168.123 C 152.306 168.123,152.472 167.400,152.569 166.517 C 152.667 165.633,152.910 164.574,153.109 164.164 C 153.622 163.105,153.614 157.764,153.099 157.137 C 152.894 156.888,152.518 156.427,152.263 156.113 C 151.524 155.202,148.043 154.766,145.951 155.322 M102.571 168.620 C 102.217 168.715,101.498 168.989,100.972 169.229 C 100.447 169.469,99.777 169.666,99.483 169.666 C 99.190 169.666,98.702 169.897,98.398 170.180 C 98.033 170.520,97.491 170.694,96.795 170.694 C 96.217 170.694,95.471 170.886,95.137 171.120 C 94.802 171.354,94.005 171.643,93.364 171.763 C 92.723 171.883,92.007 172.154,91.773 172.366 C 91.539 172.577,90.941 172.751,90.444 172.751 C 89.884 172.751,89.372 172.936,89.100 173.237 C 88.824 173.542,88.131 173.789,87.244 173.900 C 86.419 174.003,85.773 174.224,85.694 174.430 C 85.619 174.624,85.019 174.860,84.360 174.955 C 83.701 175.050,82.974 175.291,82.744 175.492 C 82.514 175.693,81.878 175.925,81.330 176.008 C 80.782 176.091,79.987 176.362,79.563 176.610 C 79.139 176.857,78.236 177.140,77.556 177.237 C 76.876 177.334,76.261 177.566,76.190 177.751 C 76.119 177.937,75.614 178.160,75.069 178.247 C 73.193 178.547,73.671 183.033,75.579 183.033 C 75.677 183.033,76.024 183.265,76.350 183.548 C 76.887 184.014,77.311 184.062,80.889 184.062 C 84.344 184.062,84.954 183.998,85.794 183.548 C 86.322 183.265,87.115 183.033,87.558 183.033 C 88.000 183.033,88.657 182.802,89.016 182.519 C 89.419 182.203,90.059 182.005,90.682 182.005 C 91.318 182.005,91.911 181.818,92.274 181.503 C 92.593 181.227,93.355 180.926,93.967 180.834 C 94.580 180.742,95.143 180.505,95.219 180.308 C 95.433 179.749,96.349 179.885,96.691 180.527 C 96.861 180.845,97.155 181.221,97.345 181.362 C 97.569 181.529,97.764 182.574,97.902 184.341 C 98.045 186.186,98.251 187.261,98.542 187.676 C 98.779 188.013,98.972 188.757,98.972 189.328 C 98.972 189.900,99.201 190.795,99.481 191.318 C 99.762 191.841,100.066 192.736,100.157 193.307 C 100.248 193.878,100.419 194.344,100.537 194.344 C 100.655 194.344,100.883 194.836,101.043 195.437 C 101.204 196.038,101.555 196.737,101.824 196.989 C 102.094 197.242,102.314 197.605,102.314 197.795 C 102.314 197.985,102.545 198.201,102.828 198.275 C 103.111 198.349,103.342 198.594,103.342 198.819 C 103.342 199.155,103.666 199.229,105.141 199.229 C 106.532 199.229,106.941 199.145,106.941 198.861 C 106.941 198.658,107.190 198.413,107.495 198.316 C 108.128 198.115,109.254 196.984,109.254 196.549 C 109.254 196.389,109.486 196.060,109.769 195.818 C 110.441 195.243,110.441 193.550,109.769 192.159 C 109.468 191.537,109.269 190.572,109.263 189.713 C 109.258 188.810,109.071 187.954,108.749 187.353 C 108.471 186.835,108.167 185.622,108.073 184.658 C 107.979 183.694,107.744 182.722,107.550 182.500 C 107.357 182.277,107.124 181.207,107.032 180.122 C 106.940 179.037,106.778 178.149,106.671 178.149 C 106.326 178.149,105.913 176.564,105.913 175.239 C 105.913 174.440,105.762 173.782,105.518 173.512 C 105.292 173.262,105.029 172.230,104.901 171.088 C 104.779 169.995,104.580 169.009,104.460 168.898 C 104.097 168.561,103.251 168.437,102.571 168.620 " stroke="none" fill="#363d49" fill-rule="evenodd"></path><path id="path1" d="M82.781 123.587 C 81.192 124.338,77.995 127.375,77.134 128.955 C 76.835 129.501,76.255 130.568,75.845 131.324 C 72.224 137.998,74.220 144.216,79.983 144.216 L 82.230 144.216 84.132 142.352 C 86.649 139.885,90.176 134.533,91.036 131.877 C 91.196 131.382,91.422 130.856,91.538 130.708 C 91.887 130.264,92.212 127.635,92.052 126.550 C 91.595 123.459,86.501 121.831,82.781 123.587 M88.536 123.902 C 91.239 124.345,92.981 127.802,91.389 129.562 C 91.177 129.796,90.902 130.533,90.778 131.199 C 90.653 131.864,90.364 132.617,90.134 132.870 C 89.905 133.124,89.717 133.515,89.717 133.741 C 89.717 133.966,89.428 134.494,89.075 134.915 C 88.721 135.335,88.432 135.747,88.432 135.831 C 88.432 135.915,87.969 136.651,87.404 137.465 C 86.839 138.280,86.376 139.038,86.376 139.150 C 86.375 139.262,85.354 140.390,84.106 141.657 L 81.836 143.959 79.904 143.959 C 78.298 143.959,77.893 143.872,77.506 143.445 C 77.251 143.162,76.928 142.931,76.789 142.931 C 74.986 142.931,73.982 133.217,75.717 132.551 C 75.908 132.478,76.141 132.007,76.236 131.505 C 76.330 131.002,76.490 130.591,76.592 130.591 C 76.778 130.591,78.406 128.205,78.406 127.933 C 78.406 127.732,80.963 125.193,81.165 125.193 C 81.256 125.193,81.572 124.965,81.869 124.686 C 82.864 123.751,85.630 123.426,88.536 123.902 M145.719 154.827 C 143.907 155.741,142.294 157.576,141.264 159.897 C 141.045 160.392,140.697 161.144,140.492 161.568 C 138.401 165.896,138.254 171.920,140.196 173.700 C 142.271 175.602,150.643 174.063,150.643 171.779 C 150.643 171.597,150.811 171.385,151.016 171.306 C 151.221 171.227,151.525 170.739,151.691 170.221 C 151.857 169.704,152.128 169.107,152.292 168.895 C 153.946 166.764,154.519 157.953,153.112 156.282 C 151.609 154.498,147.841 153.756,145.719 154.827 M150.129 155.279 C 151.335 155.469,151.928 155.701,152.263 156.113 C 152.518 156.427,152.894 156.888,153.099 157.137 C 153.614 157.764,153.622 163.105,153.109 164.164 C 152.910 164.574,152.667 165.633,152.569 166.517 C 152.472 167.400,152.306 168.123,152.201 168.123 C 151.965 168.123,151.414 169.301,151.414 169.806 C 151.414 170.012,151.183 170.411,150.900 170.694 C 150.617 170.977,150.386 171.382,150.386 171.594 C 150.386 171.806,150.276 171.979,150.142 171.979 C 150.008 171.979,149.586 172.269,149.204 172.622 C 148.823 172.976,148.325 173.269,148.099 173.274 C 147.872 173.278,147.224 173.506,146.658 173.779 C 144.056 175.036,140.389 174.238,139.960 172.322 C 139.870 171.921,139.618 171.100,139.399 170.497 C 138.916 169.165,139.085 165.746,139.667 165.079 C 139.871 164.845,140.120 164.196,140.220 163.638 C 140.320 163.080,140.624 162.342,140.895 161.997 C 141.166 161.652,141.388 161.039,141.388 160.634 C 141.388 160.229,141.498 159.897,141.633 159.897 C 141.768 159.897,142.109 159.377,142.390 158.740 C 142.671 158.104,143.024 157.584,143.173 157.584 C 143.323 157.584,143.445 157.456,143.445 157.301 C 143.445 155.747,146.747 154.748,150.129 155.279 M102.039 168.252 C 101.393 168.430,100.641 168.693,100.368 168.837 C 99.520 169.284,96.318 170.406,95.373 170.587 C 94.878 170.682,94.245 170.919,93.966 171.113 C 93.687 171.307,93.220 171.465,92.928 171.465 C 92.636 171.465,91.943 171.697,91.388 171.979 C 90.834 172.262,90.142 172.494,89.852 172.494 C 89.562 172.494,88.921 172.710,88.428 172.973 C 87.935 173.237,87.127 173.540,86.632 173.645 C 86.138 173.751,85.247 174.055,84.654 174.322 C 84.061 174.589,83.384 174.807,83.151 174.807 C 82.917 174.807,82.361 174.975,81.915 175.179 C 81.044 175.579,78.583 176.461,77.121 176.896 C 73.276 178.040,72.302 179.337,73.590 181.600 C 75.136 184.315,79.357 185.476,84.062 184.479 C 86.287 184.007,89.428 183.036,89.594 182.768 C 89.666 182.650,90.385 182.417,91.190 182.250 C 91.994 182.083,92.889 181.794,93.177 181.607 C 93.998 181.076,96.137 180.610,96.427 180.900 C 96.736 181.209,97.686 185.125,97.686 186.091 C 97.686 186.754,98.223 188.768,99.132 191.517 C 99.343 192.153,99.608 193.034,99.723 193.475 C 101.057 198.619,104.622 200.858,107.998 198.671 C 108.689 198.223,109.254 197.777,109.254 197.679 C 109.254 197.581,109.558 197.053,109.930 196.506 C 110.697 195.376,110.706 192.554,109.950 190.746 C 109.743 190.251,109.490 189.152,109.388 188.304 C 109.285 187.455,109.056 186.472,108.877 186.119 C 108.699 185.765,108.473 184.839,108.375 184.062 C 108.277 183.284,107.980 181.838,107.716 180.848 C 107.211 178.956,106.966 177.901,106.177 174.236 C 105.912 173.003,105.623 171.877,105.534 171.734 C 105.445 171.590,105.264 170.806,105.132 169.991 C 104.787 167.867,104.347 167.619,102.039 168.252 M104.460 168.898 C 104.580 169.009,104.779 169.995,104.901 171.088 C 105.029 172.230,105.292 173.262,105.518 173.512 C 105.762 173.782,105.913 174.440,105.913 175.239 C 105.913 176.564,106.326 178.149,106.671 178.149 C 106.778 178.149,106.940 179.037,107.032 180.122 C 107.124 181.207,107.357 182.277,107.550 182.500 C 107.744 182.722,107.979 183.694,108.073 184.658 C 108.167 185.622,108.471 186.835,108.749 187.353 C 109.071 187.954,109.258 188.810,109.263 189.713 C 109.269 190.572,109.468 191.537,109.769 192.159 C 110.441 193.550,110.441 195.243,109.769 195.818 C 109.486 196.060,109.254 196.389,109.254 196.549 C 109.254 196.984,108.128 198.115,107.495 198.316 C 107.190 198.413,106.941 198.658,106.941 198.861 C 106.941 199.145,106.532 199.229,105.141 199.229 C 103.666 199.229,103.342 199.155,103.342 198.819 C 103.342 198.594,103.111 198.349,102.828 198.275 C 102.545 198.201,102.314 197.985,102.314 197.795 C 102.314 197.605,102.094 197.242,101.824 196.989 C 101.555 196.737,101.204 196.038,101.043 195.437 C 100.883 194.836,100.655 194.344,100.537 194.344 C 100.419 194.344,100.248 193.878,100.157 193.307 C 100.066 192.736,99.762 191.841,99.481 191.318 C 99.201 190.795,98.972 189.900,98.972 189.328 C 98.972 188.757,98.779 188.013,98.542 187.676 C 98.251 187.261,98.045 186.186,97.902 184.341 C 97.764 182.574,97.569 181.529,97.345 181.362 C 97.155 181.221,96.861 180.845,96.691 180.527 C 96.349 179.885,95.433 179.749,95.219 180.308 C 95.143 180.505,94.580 180.742,93.967 180.834 C 93.355 180.926,92.593 181.227,92.274 181.503 C 91.911 181.818,91.318 182.005,90.682 182.005 C 90.059 182.005,89.419 182.203,89.016 182.519 C 88.657 182.802,88.000 183.033,87.558 183.033 C 87.115 183.033,86.322 183.265,85.794 183.548 C 84.954 183.998,84.344 184.062,80.889 184.062 C 77.311 184.062,76.887 184.014,76.350 183.548 C 76.024 183.265,75.677 183.033,75.579 183.033 C 73.671 183.033,73.193 178.547,75.069 178.247 C 75.614 178.160,76.119 177.937,76.190 177.751 C 76.261 177.566,76.876 177.334,77.556 177.237 C 78.236 177.140,79.139 176.857,79.563 176.610 C 79.987 176.362,80.782 176.091,81.330 176.008 C 81.878 175.925,82.514 175.693,82.744 175.492 C 82.974 175.291,83.701 175.050,84.360 174.955 C 85.019 174.860,85.619 174.624,85.694 174.430 C 85.773 174.224,86.419 174.003,87.244 173.900 C 88.131 173.789,88.824 173.542,89.100 173.237 C 89.372 172.936,89.884 172.751,90.444 172.751 C 90.941 172.751,91.539 172.577,91.773 172.366 C 92.007 172.154,92.723 171.883,93.364 171.763 C 94.005 171.643,94.802 171.354,95.137 171.120 C 95.471 170.886,96.217 170.694,96.795 170.694 C 97.491 170.694,98.033 170.520,98.398 170.180 C 98.702 169.897,99.190 169.666,99.483 169.666 C 99.777 169.666,100.447 169.469,100.972 169.229 C 102.735 168.423,103.835 168.319,104.460 168.898 " stroke="none" fill="#526b76" fill-rule="evenodd"></path><path id="path2" d="M82.262 123.329 C 80.811 124.152,77.159 127.833,76.815 128.822 C 76.673 129.230,76.466 129.563,76.356 129.563 C 76.245 129.563,76.006 129.939,75.824 130.398 C 75.642 130.858,75.351 131.407,75.176 131.620 C 75.001 131.832,74.738 132.410,74.591 132.905 C 74.445 133.400,74.132 134.325,73.896 134.961 C 71.803 140.610,77.137 146.556,82.345 144.380 C 83.356 143.958,86.855 140.459,87.052 139.673 C 87.130 139.364,87.356 139.049,87.555 138.973 C 87.755 138.896,87.918 138.702,87.918 138.541 C 87.918 138.381,88.207 137.905,88.560 137.485 C 88.914 137.065,89.203 136.571,89.203 136.387 C 89.203 136.203,89.374 135.911,89.583 135.738 C 89.978 135.410,91.517 132.330,91.517 131.867 C 91.517 131.721,91.677 131.345,91.874 131.032 C 92.841 129.490,92.577 125.551,91.422 124.305 C 89.716 122.465,84.726 121.933,82.262 123.329 M89.112 123.429 C 90.850 124.080,91.842 125.133,92.052 126.550 C 92.212 127.635,91.887 130.264,91.538 130.708 C 91.422 130.856,91.196 131.382,91.036 131.877 C 90.176 134.533,86.649 139.885,84.132 142.352 L 82.230 144.216 79.983 144.216 C 74.220 144.216,72.224 137.998,75.845 131.324 C 76.255 130.568,76.835 129.501,77.134 128.955 C 79.671 124.305,84.947 121.871,89.112 123.429 M145.096 154.594 C 143.207 155.943,141.075 158.655,140.754 160.117 C 140.660 160.542,140.429 161.018,140.240 161.175 C 140.051 161.332,139.819 161.770,139.724 162.148 C 139.629 162.526,139.318 163.347,139.033 163.972 C 138.572 164.985,138.525 165.534,138.602 169.032 L 138.689 172.955 139.671 173.881 L 140.654 174.807 143.915 174.807 C 146.944 174.807,147.267 174.759,148.447 174.131 C 149.688 173.470,151.928 171.339,151.928 170.819 C 151.928 170.676,152.144 170.155,152.408 169.662 C 152.672 169.169,152.976 168.363,153.084 167.870 C 153.192 167.377,153.431 166.741,153.614 166.456 C 154.017 165.828,154.590 159.398,154.362 158.051 C 153.809 154.777,147.917 152.579,145.096 154.594 M151.184 154.940 C 153.338 155.774,153.841 156.694,153.944 159.987 C 154.034 162.857,153.109 167.842,152.292 168.895 C 152.128 169.107,151.857 169.704,151.691 170.221 C 151.525 170.739,151.221 171.227,151.016 171.306 C 150.811 171.385,150.643 171.597,150.643 171.779 C 150.643 174.063,142.271 175.602,140.196 173.700 C 138.254 171.920,138.401 165.896,140.492 161.568 C 140.697 161.144,141.045 160.392,141.264 159.897 C 143.401 155.083,146.959 153.306,151.184 154.940 M102.057 167.783 C 101.420 167.985,100.553 168.313,100.129 168.513 C 99.704 168.713,99.010 168.956,98.586 169.054 C 98.162 169.151,97.412 169.444,96.919 169.705 C 96.426 169.966,95.706 170.180,95.319 170.180 C 94.931 170.180,94.235 170.411,93.772 170.693 C 93.309 170.975,92.638 171.207,92.281 171.207 C 91.923 171.208,91.389 171.378,91.093 171.585 C 90.797 171.793,90.004 172.086,89.332 172.236 C 88.660 172.387,87.610 172.738,87.000 173.016 C 86.389 173.294,85.705 173.522,85.479 173.522 C 85.254 173.522,84.616 173.753,84.062 174.036 C 83.507 174.319,82.813 174.550,82.519 174.550 C 82.225 174.550,81.555 174.767,81.031 175.033 C 80.506 175.298,79.672 175.601,79.177 175.705 C 78.683 175.810,78.162 175.982,78.021 176.089 C 77.879 176.195,77.301 176.426,76.735 176.600 C 72.597 177.879,71.630 179.470,73.343 182.182 C 74.753 184.416,81.766 186.462,83.391 185.113 C 83.570 184.965,84.484 184.735,85.423 184.602 C 86.361 184.469,87.390 184.177,87.709 183.954 C 88.028 183.730,88.525 183.548,88.814 183.548 C 89.103 183.548,89.742 183.334,90.235 183.073 C 90.728 182.813,91.533 182.521,92.025 182.426 C 92.516 182.330,93.409 182.014,94.009 181.724 C 95.733 180.889,96.224 181.094,96.530 182.776 C 96.671 183.554,96.863 184.308,96.957 184.451 C 97.051 184.595,97.249 185.582,97.397 186.644 C 97.545 187.707,97.844 189.003,98.062 189.524 C 98.279 190.045,98.458 190.740,98.458 191.068 C 98.458 191.397,98.689 192.119,98.972 192.674 C 99.254 193.228,99.486 193.860,99.487 194.077 C 99.489 194.840,100.926 197.350,102.042 198.541 L 103.168 199.743 105.172 199.743 C 109.866 199.743,112.534 194.319,110.128 189.667 C 109.930 189.284,109.769 188.644,109.769 188.244 C 109.769 187.843,109.592 186.883,109.376 186.110 C 109.161 185.337,108.803 183.721,108.582 182.519 C 108.360 181.317,108.085 180.219,107.970 180.077 C 107.854 179.936,107.676 179.242,107.572 178.535 C 107.469 177.828,107.169 176.569,106.906 175.738 C 106.642 174.906,106.426 173.807,106.425 173.296 C 106.424 172.784,106.242 172.018,106.021 171.594 C 105.799 171.170,105.550 170.255,105.467 169.561 C 105.215 167.444,104.427 167.033,102.057 167.783 M104.453 168.188 C 104.711 168.377,104.990 169.117,105.132 169.991 C 105.264 170.806,105.445 171.590,105.534 171.734 C 105.623 171.877,105.912 173.003,106.177 174.236 C 106.966 177.901,107.211 178.956,107.716 180.848 C 107.980 181.838,108.277 183.284,108.375 184.062 C 108.473 184.839,108.699 185.765,108.877 186.119 C 109.056 186.472,109.285 187.455,109.388 188.304 C 109.490 189.152,109.743 190.251,109.950 190.746 C 110.706 192.554,110.697 195.376,109.930 196.506 C 109.558 197.053,109.254 197.581,109.254 197.679 C 109.254 197.777,108.689 198.223,107.998 198.671 C 104.622 200.858,101.057 198.619,99.723 193.475 C 99.608 193.034,99.343 192.153,99.132 191.517 C 98.223 188.768,97.686 186.754,97.686 186.091 C 97.686 185.125,96.736 181.209,96.427 180.900 C 96.137 180.610,93.998 181.076,93.177 181.607 C 92.889 181.794,91.994 182.083,91.190 182.250 C 90.385 182.417,89.666 182.650,89.594 182.768 C 89.428 183.036,86.287 184.007,84.062 184.479 C 79.357 185.476,75.136 184.315,73.590 181.600 C 72.302 179.337,73.276 178.040,77.121 176.896 C 78.583 176.461,81.044 175.579,81.915 175.179 C 82.361 174.975,82.917 174.807,83.151 174.807 C 83.384 174.807,84.061 174.589,84.654 174.322 C 85.247 174.055,86.138 173.751,86.632 173.645 C 87.127 173.540,87.935 173.237,88.428 172.973 C 88.921 172.710,89.562 172.494,89.852 172.494 C 90.142 172.494,90.834 172.262,91.388 171.979 C 91.943 171.697,92.636 171.465,92.928 171.465 C 93.220 171.465,93.687 171.307,93.966 171.113 C 94.245 170.919,94.878 170.682,95.373 170.587 C 96.318 170.406,99.520 169.284,100.368 168.837 C 100.918 168.546,102.988 167.948,103.614 167.898 C 103.835 167.881,104.212 168.011,104.453 168.188 " stroke="none" fill="#719fa9" fill-rule="evenodd"></path><path id="path3" d="" stroke="none" fill="#3399ff" fill-rule="evenodd"></path><path id="path4" d="M82.264 123.038 C 81.073 123.694,79.692 124.875,79.692 125.239 C 79.692 125.352,80.010 125.120,80.398 124.723 C 82.362 122.718,87.167 121.822,89.497 123.027 C 89.927 123.249,90.330 123.380,90.393 123.317 C 91.433 122.278,84.105 122.026,82.264 123.038 M91.012 123.779 C 91.205 124.062,91.527 124.431,91.726 124.600 C 91.926 124.769,92.180 125.289,92.291 125.757 C 92.477 126.544,92.494 126.555,92.519 125.914 C 92.537 125.443,92.243 124.908,91.603 124.243 C 91.084 123.705,90.818 123.496,91.012 123.779 M78.403 126.251 C 78.051 126.691,77.541 127.269,77.268 127.534 C 76.996 127.798,76.830 128.073,76.901 128.143 C 76.971 128.213,77.577 127.636,78.246 126.860 C 78.916 126.085,79.369 125.450,79.254 125.450 C 79.138 125.450,78.755 125.810,78.403 126.251 M92.549 127.442 C 92.552 127.957,92.615 128.050,92.782 127.787 C 92.908 127.588,92.952 127.269,92.879 127.080 C 92.671 126.536,92.545 126.674,92.549 127.442 M92.353 129.177 C 92.356 129.743,92.408 129.944,92.470 129.624 C 92.531 129.304,92.529 128.842,92.465 128.596 C 92.400 128.350,92.350 128.612,92.353 129.177 M76.120 129.442 C 75.781 129.939,75.579 130.420,75.670 130.511 C 75.761 130.602,75.835 130.560,75.835 130.416 C 75.835 130.273,76.067 129.889,76.350 129.563 C 76.788 129.057,77.019 128.530,76.799 128.536 C 76.764 128.537,76.458 128.945,76.120 129.442 M91.819 131.128 C 91.633 131.426,91.530 131.719,91.591 131.779 C 91.769 131.958,92.345 131.147,92.247 130.854 C 92.198 130.707,92.005 130.830,91.819 131.128 M74.962 131.403 C 74.735 131.726,74.559 132.168,74.570 132.384 C 74.588 132.728,74.608 132.729,74.733 132.391 C 74.810 132.179,75.051 131.802,75.268 131.554 C 75.484 131.305,75.596 131.038,75.517 130.959 C 75.438 130.880,75.188 131.080,74.962 131.403 M90.958 133.292 C 90.737 133.780,90.664 134.112,90.795 134.031 C 91.058 133.868,91.582 132.628,91.446 132.491 C 91.399 132.444,91.179 132.804,90.958 133.292 M73.963 133.909 C 73.720 134.319,73.527 134.927,73.533 135.258 C 73.542 135.751,73.607 135.696,73.884 134.961 C 74.071 134.467,74.309 133.859,74.414 133.612 C 74.711 132.911,74.451 133.082,73.963 133.909 M89.630 135.687 C 89.013 136.368,89.104 136.603,89.739 135.968 C 90.033 135.674,90.225 135.384,90.166 135.324 C 90.106 135.264,89.865 135.428,89.630 135.687 M88.496 137.523 C 87.718 138.510,87.760 138.757,88.560 137.893 C 88.914 137.512,89.203 137.101,89.203 136.980 C 89.203 136.660,89.135 136.712,88.496 137.523 M73.553 139.589 C 73.537 140.098,73.747 140.823,74.036 141.260 C 74.592 142.099,74.736 141.955,74.245 141.050 C 74.078 140.741,73.860 140.084,73.761 139.589 L 73.581 138.689 73.553 139.589 M86.889 140.051 C 86.889 140.454,83.168 144.035,82.401 144.369 C 81.971 144.557,81.772 144.714,81.958 144.720 C 82.608 144.739,83.433 144.120,85.283 142.226 C 86.933 140.536,87.436 139.846,87.018 139.846 C 86.947 139.846,86.889 139.938,86.889 140.051 M74.550 142.258 C 74.550 142.522,76.650 144.473,76.935 144.473 C 77.057 144.473,76.998 144.328,76.803 144.152 C 76.607 143.975,76.021 143.432,75.499 142.944 C 74.977 142.457,74.550 142.148,74.550 142.258 M78.535 144.987 C 78.738 145.315,80.726 145.315,81.234 144.987 C 81.505 144.812,81.140 144.737,79.998 144.734 C 78.981 144.732,78.435 144.826,78.535 144.987 M148.329 153.953 C 150.037 154.065,150.962 154.248,151.407 154.563 C 152.335 155.220,152.640 155.114,151.777 154.434 C 151.134 153.928,150.721 153.852,148.465 153.825 L 145.887 153.793 148.329 153.953 M142.994 156.175 C 142.252 156.956,141.649 157.737,141.653 157.910 C 141.657 158.084,141.788 158.007,141.943 157.740 C 142.098 157.473,142.791 156.692,143.481 156.005 C 144.172 155.318,144.648 154.756,144.539 154.756 C 144.431 154.756,143.735 155.395,142.994 156.175 M152.699 155.086 C 152.699 155.148,153.046 155.636,153.470 156.170 C 153.895 156.703,154.242 157.000,154.242 156.828 C 154.242 156.656,153.895 156.169,153.470 155.745 C 153.046 155.320,152.699 155.024,152.699 155.086 M154.366 159.606 L 154.361 161.811 154.683 160.360 C 154.939 159.207,154.940 158.755,154.688 158.156 C 154.401 157.476,154.370 157.619,154.366 159.606 M140.867 158.882 C 140.712 159.173,140.636 159.606,140.699 159.846 C 140.796 160.211,140.819 160.202,140.844 159.789 C 140.861 159.517,141.065 159.083,141.299 158.825 C 141.539 158.560,141.599 158.355,141.437 158.355 C 141.279 158.355,141.022 158.592,140.867 158.882 M140.001 160.966 C 139.774 161.289,139.598 161.731,139.609 161.947 C 139.627 162.291,139.647 162.292,139.771 161.954 C 139.849 161.742,140.090 161.365,140.306 161.117 C 140.523 160.868,140.635 160.601,140.556 160.522 C 140.477 160.443,140.227 160.643,140.001 160.966 M139.005 163.277 C 138.761 163.703,138.565 164.245,138.570 164.481 C 138.575 164.717,138.815 164.407,139.103 163.793 C 139.714 162.488,139.651 162.152,139.005 163.277 M154.020 164.925 C 154.000 165.499,153.815 166.193,153.607 166.468 C 153.116 167.116,153.107 167.503,153.592 167.101 C 154.034 166.734,154.337 165.372,154.170 164.494 C 154.097 164.107,154.042 164.266,154.020 164.925 M138.390 168.123 C 138.390 169.184,138.435 169.618,138.491 169.087 C 138.546 168.557,138.546 167.690,138.491 167.159 C 138.435 166.629,138.390 167.063,138.390 168.123 M102.314 167.527 L 101.671 167.909 102.314 167.735 C 103.964 167.289,104.322 167.304,104.859 167.841 C 105.156 168.138,105.398 168.273,105.398 168.142 C 105.398 167.183,103.522 166.809,102.314 167.527 M99.707 168.372 C 99.373 168.650,99.238 168.881,99.406 168.886 C 99.575 168.891,99.783 168.781,99.869 168.642 C 99.955 168.502,100.396 168.282,100.848 168.151 C 101.628 167.925,101.636 167.911,100.992 167.890 C 100.619 167.877,100.041 168.094,99.707 168.372 M152.956 168.288 C 152.956 168.568,152.786 169.021,152.579 169.295 C 152.092 169.938,152.077 170.332,152.554 169.937 C 152.959 169.601,153.353 168.178,153.109 167.934 C 153.025 167.849,152.956 168.009,152.956 168.288 M97.263 169.150 C 96.655 169.395,96.221 169.923,96.628 169.923 C 96.769 169.923,96.955 169.809,97.041 169.670 C 97.127 169.531,97.568 169.310,98.020 169.179 C 98.508 169.038,98.634 168.938,98.329 168.934 C 98.046 168.930,97.566 169.027,97.263 169.150 M94.923 170.100 C 95.170 170.165,95.575 170.165,95.823 170.100 C 96.070 170.035,95.868 169.983,95.373 169.983 C 94.878 169.983,94.675 170.035,94.923 170.100 M105.656 170.762 C 105.656 170.834,105.828 171.224,106.040 171.629 C 106.372 172.267,106.424 172.292,106.425 171.818 C 106.426 171.517,106.253 171.127,106.041 170.951 C 105.829 170.775,105.656 170.690,105.656 170.762 M89.974 171.762 C 89.097 172.273,89.094 172.282,89.825 172.117 C 90.697 171.920,91.848 171.200,91.253 171.223 C 91.044 171.231,90.469 171.474,89.974 171.762 M150.762 172.319 C 150.202 172.930,149.512 173.563,149.229 173.725 C 148.946 173.888,148.853 174.024,149.022 174.028 C 149.328 174.036,150.620 172.880,151.528 171.787 C 152.354 170.791,151.830 171.155,150.762 172.319 M87.494 172.492 C 87.191 172.614,86.850 172.867,86.738 173.054 C 86.580 173.317,86.617 173.329,86.904 173.106 C 87.108 172.949,87.622 172.698,88.046 172.548 C 88.470 172.399,88.644 172.275,88.432 172.273 C 88.220 172.271,87.798 172.369,87.494 172.492 M138.593 172.622 C 138.568 173.093,140.041 174.807,140.470 174.807 C 140.571 174.807,140.254 174.431,139.767 173.971 C 139.279 173.510,138.821 172.903,138.750 172.621 C 138.620 172.109,138.620 172.109,138.593 172.622 M106.486 173.779 C 106.486 174.274,106.539 174.476,106.604 174.229 C 106.669 173.981,106.669 173.576,106.604 173.329 C 106.539 173.082,106.486 173.284,106.486 173.779 M84.062 173.712 C 83.567 173.947,82.873 174.218,82.519 174.314 C 81.892 174.485,81.891 174.490,82.468 174.520 C 82.793 174.536,83.429 174.357,83.882 174.122 C 84.334 173.886,85.051 173.608,85.476 173.505 C 86.174 173.335,86.186 173.316,85.604 173.301 C 85.251 173.292,84.557 173.477,84.062 173.712 M147.815 174.461 C 147.199 174.786,147.195 174.800,147.735 174.803 C 148.045 174.805,148.375 174.684,148.468 174.533 C 148.728 174.112,148.520 174.089,147.815 174.461 M80.727 174.797 C 80.099 175.195,80.544 175.306,81.234 174.924 C 81.607 174.718,81.715 174.566,81.491 174.563 C 81.279 174.560,80.935 174.666,80.727 174.797 M106.798 175.345 C 106.906 175.686,107.146 176.600,107.331 177.378 C 107.560 178.334,107.676 178.558,107.691 178.070 C 107.719 177.104,107.200 175.096,106.869 174.891 C 106.695 174.784,106.670 174.941,106.798 175.345 M142.352 174.998 C 143.236 175.048,144.682 175.048,145.566 174.998 C 146.449 174.947,145.726 174.906,143.959 174.906 C 142.192 174.906,141.469 174.947,142.352 174.998 M78.483 175.606 C 78.031 175.737,77.590 175.957,77.504 176.097 C 77.321 176.392,77.717 176.440,77.996 176.157 C 78.100 176.051,78.668 175.831,79.260 175.668 C 79.851 175.505,80.103 175.371,79.820 175.370 C 79.537 175.369,78.936 175.475,78.483 175.606 M74.679 177.121 C 74.254 177.402,74.026 177.632,74.172 177.633 C 74.317 177.634,74.664 177.475,74.943 177.280 C 75.222 177.085,75.681 176.867,75.964 176.796 L 76.478 176.666 75.964 176.638 C 75.681 176.623,75.103 176.840,74.679 177.121 M73.067 177.850 C 72.719 178.071,72.164 179.704,72.368 179.908 C 72.435 179.976,72.564 179.661,72.654 179.209 C 72.745 178.757,73.060 178.218,73.356 178.011 C 73.909 177.624,73.651 177.479,73.067 177.850 M107.712 179.462 C 107.712 179.673,107.817 179.956,107.944 180.090 C 108.072 180.224,108.232 180.566,108.300 180.848 C 108.401 181.268,108.428 181.244,108.445 180.720 C 108.457 180.366,108.297 179.853,108.090 179.578 C 107.807 179.204,107.712 179.175,107.712 179.462 M72.529 180.756 C 72.509 181.129,72.738 181.707,73.036 182.041 L 73.578 182.648 73.188 181.986 C 72.974 181.622,72.745 181.044,72.681 180.701 C 72.566 180.087,72.563 180.088,72.529 180.756 M95.373 181.412 C 95.726 181.484,96.111 181.676,96.228 181.838 C 96.370 182.036,96.406 182.006,96.337 181.748 C 96.278 181.531,95.905 181.345,95.481 181.322 C 94.834 181.287,94.819 181.299,95.373 181.412 M93.695 181.846 C 93.416 182.041,92.956 182.259,92.674 182.330 C 92.187 182.453,92.189 182.461,92.709 182.489 C 93.012 182.506,93.532 182.292,93.866 182.014 C 94.564 181.432,94.448 181.319,93.695 181.846 M108.543 182.262 C 108.543 182.757,108.596 182.960,108.660 182.712 C 108.725 182.465,108.725 182.060,108.660 181.812 C 108.596 181.565,108.543 181.767,108.543 182.262 M90.235 183.048 C 89.743 183.323,89.511 183.547,89.721 183.546 C 89.931 183.545,90.450 183.314,90.874 183.033 C 91.858 182.382,91.412 182.392,90.235 183.048 M96.436 183.338 C 96.395 184.149,96.856 185.492,97.094 185.254 C 97.185 185.163,97.128 184.829,96.969 184.511 C 96.810 184.193,96.633 183.644,96.575 183.290 C 96.472 182.651,96.471 182.652,96.436 183.338 M74.662 183.778 C 74.758 183.932,75.075 184.187,75.367 184.343 C 75.747 184.547,75.848 184.547,75.724 184.346 C 75.628 184.191,75.311 183.937,75.019 183.780 C 74.639 183.577,74.537 183.576,74.662 183.778 M87.408 184.076 C 86.696 184.473,86.623 184.576,87.055 184.576 C 87.353 184.576,87.736 184.409,87.905 184.206 C 88.074 184.002,88.464 183.786,88.772 183.727 C 89.269 183.630,89.274 183.615,88.817 183.597 C 88.535 183.586,87.900 183.802,87.408 184.076 M108.862 184.062 C 109.310 186.014,109.782 187.311,109.647 186.218 C 109.576 185.637,109.337 184.770,109.116 184.290 C 108.838 183.686,108.760 183.616,108.862 184.062 M84.897 184.753 C 85.145 184.818,85.549 184.818,85.797 184.753 C 86.044 184.688,85.842 184.635,85.347 184.635 C 84.852 184.635,84.650 184.688,84.897 184.753 M77.859 185.176 C 78.351 185.772,83.316 185.808,83.805 185.219 C 84.006 184.975,84.024 184.833,83.851 184.833 C 83.701 184.833,83.506 184.949,83.419 185.090 C 83.198 185.448,78.753 185.413,78.068 185.048 C 77.560 184.777,77.540 184.790,77.859 185.176 M97.237 186.761 C 97.240 187.326,97.293 187.528,97.354 187.208 C 97.416 186.888,97.413 186.425,97.349 186.180 C 97.285 185.934,97.234 186.195,97.237 186.761 M97.441 188.447 C 97.434 188.809,97.599 189.329,97.807 189.604 C 98.282 190.232,98.285 190.101,97.822 188.817 C 97.515 187.966,97.450 187.902,97.441 188.447 M109.779 188.642 C 109.773 188.828,109.906 189.232,110.073 189.541 C 110.241 189.850,110.459 190.508,110.558 191.003 L 110.738 191.902 110.757 191.003 C 110.767 190.508,110.554 189.698,110.283 189.203 C 110.012 188.708,109.785 188.456,109.779 188.642 M98.458 192.202 C 98.458 192.497,98.631 192.883,98.843 193.059 C 99.055 193.235,99.238 193.567,99.249 193.798 C 99.260 194.028,99.319 194.098,99.380 193.953 C 99.440 193.808,99.258 193.234,98.974 192.677 C 98.602 191.948,98.458 191.815,98.458 192.202 M99.486 195.038 C 99.486 195.320,99.717 195.818,100.000 196.144 C 100.283 196.470,100.514 196.854,100.514 196.997 C 100.514 197.141,100.577 197.196,100.653 197.119 C 100.729 197.043,100.498 196.428,100.139 195.753 C 99.725 194.975,99.486 194.713,99.486 195.038 M110.033 197.124 C 109.690 197.645,109.287 198.239,109.139 198.443 C 108.948 198.705,108.950 198.765,109.147 198.647 C 109.530 198.418,110.899 196.418,110.765 196.283 C 110.706 196.224,110.376 196.602,110.033 197.124 M101.557 198.393 C 101.564 198.499,101.940 198.868,102.392 199.212 L 103.213 199.839 102.458 199.020 C 101.673 198.167,101.533 198.070,101.557 198.393 M107.933 199.220 C 107.600 199.498,107.453 199.730,107.608 199.734 C 107.763 199.739,108.099 199.512,108.355 199.229 C 108.950 198.571,108.718 198.566,107.933 199.220 M104.313 199.931 C 104.917 199.986,105.843 199.985,106.369 199.930 C 106.896 199.875,106.401 199.830,105.270 199.831 C 104.139 199.832,103.708 199.877,104.313 199.931 " stroke="none" fill="#55c6ff" fill-rule="evenodd"></path><path id="path5" d="M133.933 7.712 C 133.933 8.218,133.101 8.400,131.536 8.236 C 131.253 8.207,131.012 8.398,130.928 8.721 C 130.804 9.196,130.380 9.393,129.729 9.276 C 129.261 9.192,128.535 9.562,128.535 9.885 C 128.535 10.071,128.303 10.283,128.021 10.357 C 127.713 10.438,127.506 10.708,127.506 11.030 C 127.506 11.397,127.343 11.568,126.992 11.568 C 126.650 11.568,126.478 11.740,126.478 12.082 C 126.478 12.509,126.307 12.596,125.467 12.596 C 124.701 12.596,124.419 12.714,124.302 13.083 C 124.217 13.350,123.905 13.633,123.608 13.710 C 123.250 13.804,123.121 13.985,123.223 14.252 C 123.371 14.636,123.130 14.763,122.429 14.672 C 122.253 14.649,122.108 14.859,122.108 15.139 C 122.108 15.418,121.883 15.718,121.607 15.806 C 121.331 15.893,121.034 16.190,120.947 16.466 C 120.860 16.741,120.630 16.967,120.437 16.967 C 120.244 16.967,120.013 17.198,119.923 17.481 C 119.833 17.763,119.606 17.995,119.419 17.995 C 119.020 17.995,118.766 18.554,118.766 19.430 C 118.766 19.880,118.624 20.051,118.252 20.051 C 117.875 20.051,117.738 20.223,117.738 20.694 C 117.738 21.165,117.601 21.337,117.224 21.337 C 116.892 21.337,116.710 21.508,116.710 21.821 C 116.710 22.087,116.481 22.365,116.203 22.438 C 115.846 22.531,115.647 22.873,115.532 23.593 C 115.399 24.426,115.280 24.593,114.892 24.491 C 114.517 24.393,114.438 24.485,114.521 24.919 C 114.598 25.320,114.459 25.536,114.014 25.706 C 113.541 25.886,113.382 26.162,113.320 26.915 C 113.257 27.680,113.141 27.876,112.789 27.816 C 112.424 27.755,112.339 27.932,112.339 28.763 C 112.339 29.626,112.250 29.797,111.761 29.866 C 111.351 29.925,111.171 30.135,111.144 30.591 C 111.122 30.945,111.093 31.436,111.079 31.684 C 111.064 31.954,110.848 32.134,110.540 32.134 C 110.197 32.134,110.026 32.305,110.026 32.648 C 110.026 32.931,109.860 33.162,109.657 33.162 C 109.311 33.162,108.932 33.871,109.019 34.356 C 109.134 34.996,108.944 35.430,108.497 35.546 C 108.085 35.654,107.983 35.944,107.919 37.183 C 107.853 38.451,107.770 38.677,107.391 38.613 C 107.025 38.552,106.941 38.729,106.941 39.560 C 106.941 40.423,106.851 40.594,106.362 40.663 C 105.921 40.726,105.774 40.928,105.743 41.517 C 105.721 41.941,105.692 42.419,105.679 42.579 C 105.666 42.740,105.424 42.931,105.141 43.005 C 104.698 43.121,104.627 43.356,104.627 44.706 C 104.627 46.101,104.571 46.272,104.113 46.272 C 103.687 46.272,103.599 46.444,103.599 47.271 C 103.599 48.054,103.488 48.298,103.084 48.404 C 102.779 48.483,102.585 48.732,102.610 49.012 C 102.761 50.710,102.560 51.671,102.057 51.671 C 101.628 51.671,101.542 51.842,101.542 52.699 C 101.542 53.449,101.436 53.728,101.150 53.728 C 100.714 53.728,100.211 54.823,100.273 55.640 C 100.354 56.694,100.249 57.012,99.777 57.135 C 99.389 57.236,99.291 57.525,99.266 58.642 C 99.249 59.402,99.117 60.063,98.973 60.111 C 98.829 60.159,98.776 60.303,98.855 60.430 C 98.934 60.558,98.819 60.594,98.599 60.509 C 98.266 60.381,98.201 60.611,98.201 61.909 C 98.201 63.248,98.128 63.484,97.674 63.629 C 97.384 63.721,97.166 63.989,97.189 64.224 C 97.397 66.332,97.154 67.833,96.594 67.913 C 96.002 67.997,95.986 68.060,95.909 70.501 C 95.896 70.933,95.744 71.208,95.519 71.208 C 95.172 71.208,94.793 71.917,94.880 72.403 C 95.122 73.752,94.814 75.578,94.344 75.578 C 93.888 75.578,93.830 75.750,93.830 77.103 C 93.830 78.403,93.754 78.653,93.316 78.792 C 92.859 78.937,92.802 79.181,92.802 80.977 C 92.802 82.789,92.747 83.016,92.275 83.166 C 91.986 83.258,91.768 83.526,91.791 83.762 C 91.979 85.679,91.748 87.350,91.277 87.474 C 90.950 87.559,90.720 87.921,90.605 88.532 L 90.431 89.460 86.025 89.468 C 81.617 89.477,80.720 89.643,80.720 90.453 C 80.720 90.658,79.611 90.746,76.992 90.746 C 73.436 90.746,73.265 90.769,73.265 91.260 C 73.265 91.743,71.213 92.027,69.453 91.788 C 69.265 91.763,69.049 91.981,68.973 92.272 C 68.848 92.751,68.639 92.802,66.800 92.802 C 65.097 92.802,64.738 92.875,64.599 93.252 C 64.365 93.888,63.976 94.089,63.305 93.920 C 62.485 93.714,61.440 94.027,61.440 94.478 C 61.440 94.712,61.168 94.874,60.733 94.898 C 60.344 94.919,59.852 94.948,59.640 94.962 C 59.428 94.976,59.218 95.247,59.172 95.566 C 59.098 96.091,58.951 96.144,57.566 96.144 C 56.213 96.144,56.041 96.202,56.041 96.658 C 56.041 97.150,55.413 97.340,54.286 97.187 C 54.098 97.161,53.882 97.379,53.806 97.671 C 53.700 98.078,53.460 98.201,52.774 98.201 C 52.105 98.201,51.847 98.326,51.749 98.700 C 51.677 98.975,51.370 99.235,51.066 99.279 C 50.721 99.328,50.483 99.574,50.432 99.936 C 50.363 100.424,50.192 100.514,49.339 100.514 C 48.521 100.514,48.329 100.606,48.329 100.998 C 48.329 101.266,48.099 101.542,47.815 101.617 C 47.532 101.691,47.301 101.936,47.301 102.161 C 47.301 102.555,46.760 102.694,45.675 102.581 C 45.392 102.551,45.151 102.743,45.067 103.065 C 44.940 103.551,44.678 103.712,44.152 103.629 C 44.046 103.613,43.959 103.829,43.959 104.110 C 43.959 104.508,43.730 104.658,42.931 104.786 C 42.156 104.910,41.902 105.069,41.902 105.431 C 41.902 105.748,41.719 105.913,41.364 105.913 C 41.042 105.913,40.772 106.119,40.691 106.427 C 40.617 106.711,40.341 106.941,40.073 106.941 C 39.760 106.941,39.589 107.123,39.589 107.455 C 39.589 107.798,39.417 107.969,39.075 107.969 C 38.732 107.969,38.560 108.141,38.560 108.483 C 38.560 108.766,38.445 109.012,38.303 109.030 C 38.162 109.047,37.931 109.091,37.789 109.126 C 37.648 109.161,37.301 109.205,37.018 109.222 C 36.686 109.243,36.504 109.437,36.504 109.769 C 36.504 110.110,36.332 110.283,35.995 110.283 C 35.672 110.283,35.429 110.508,35.331 110.896 C 35.216 111.354,35.048 111.475,34.665 111.375 C 34.323 111.286,34.168 111.360,34.201 111.597 C 34.304 112.335,34.176 112.544,33.697 112.419 C 33.328 112.323,33.183 112.442,33.119 112.893 C 33.061 113.302,32.888 113.472,32.584 113.421 C 32.285 113.370,32.134 113.511,32.134 113.840 C 32.134 114.126,31.907 114.395,31.600 114.475 C 31.307 114.552,31.004 114.855,30.928 115.148 C 30.848 115.455,30.578 115.681,30.293 115.681 C 29.964 115.681,29.823 115.832,29.873 116.131 C 29.924 116.434,29.755 116.608,29.359 116.665 C 28.922 116.727,28.808 116.869,28.917 117.213 C 29.026 117.557,28.895 117.721,28.414 117.841 C 27.854 117.982,27.763 118.148,27.763 119.028 C 27.763 119.880,27.677 120.051,27.249 120.051 C 26.907 120.051,26.735 120.223,26.735 120.566 C 26.735 120.943,26.564 121.080,26.093 121.080 C 25.739 121.080,25.464 121.166,25.480 121.272 C 25.570 121.841,25.396 122.108,24.936 122.108 C 24.599 122.108,24.422 122.279,24.422 122.605 C 24.422 122.878,24.190 123.175,23.907 123.265 C 23.625 123.355,23.393 123.638,23.393 123.895 C 23.393 124.152,23.153 124.424,22.860 124.501 C 22.537 124.585,22.346 124.826,22.375 125.110 C 22.483 126.145,22.354 126.478,21.843 126.478 C 21.556 126.478,21.245 126.681,21.152 126.928 C 21.059 127.175,20.812 127.506,20.604 127.662 C 20.383 127.828,20.295 128.128,20.392 128.382 C 20.505 128.675,20.462 128.758,20.262 128.634 C 20.066 128.513,20.018 128.590,20.121 128.859 C 20.278 129.268,19.895 129.766,19.409 129.788 C 19.267 129.794,19.116 130.024,19.073 130.298 C 19.030 130.572,18.769 130.855,18.495 130.927 C 18.117 131.025,17.995 131.282,17.995 131.981 C 17.995 132.734,17.899 132.905,17.481 132.905 C 17.104 132.905,16.967 133.076,16.967 133.548 C 16.967 134.009,16.828 134.190,16.475 134.190 C 16.102 134.190,15.942 134.438,15.810 135.219 C 15.678 135.999,15.518 136.247,15.144 136.247 C 14.735 136.247,14.653 136.435,14.653 137.375 C 14.653 138.292,14.569 138.497,14.203 138.468 C 13.924 138.445,13.724 138.642,13.675 138.984 C 13.631 139.288,13.362 139.597,13.077 139.672 C 12.767 139.753,12.577 139.997,12.607 140.277 C 12.708 141.243,12.582 141.589,12.082 141.720 C 11.639 141.836,11.568 142.070,11.568 143.421 C 11.568 144.920,11.541 144.987,10.925 144.987 C 10.350 144.987,10.283 145.092,10.283 145.985 C 10.283 146.768,10.171 147.013,9.769 147.118 C 9.363 147.224,9.254 147.469,9.254 148.275 C 9.254 149.081,9.146 149.326,8.740 149.432 C 8.304 149.546,8.226 149.782,8.226 150.987 C 8.226 152.182,8.145 152.433,7.712 152.571 C 7.244 152.719,7.198 152.960,7.198 155.269 C 7.198 157.703,7.175 157.808,6.620 157.887 L 6.041 157.969 5.975 165.424 C 5.902 173.614,5.937 174.036,6.689 174.036 C 7.154 174.036,7.198 174.214,7.198 176.117 C 7.198 177.981,7.251 178.211,7.712 178.332 C 8.117 178.438,8.226 178.682,8.226 179.488 C 8.226 180.295,8.335 180.539,8.740 180.645 C 9.143 180.751,9.254 180.996,9.254 181.778 C 9.254 182.605,9.343 182.776,9.769 182.776 C 10.197 182.776,10.283 182.948,10.283 183.805 C 10.283 184.730,10.347 184.833,10.925 184.833 C 11.516 184.833,11.568 184.927,11.568 185.990 C 11.568 186.975,11.644 187.147,12.082 187.147 C 12.501 187.147,12.596 187.318,12.596 188.070 C 12.596 188.778,12.717 189.026,13.111 189.129 C 13.406 189.206,13.625 189.479,13.625 189.771 C 13.625 190.063,13.843 190.337,14.139 190.414 C 14.431 190.490,14.653 190.765,14.653 191.050 C 14.653 191.434,14.773 191.513,15.167 191.388 C 15.653 191.234,15.845 191.588,15.703 192.379 C 15.604 192.928,16.018 193.573,16.470 193.573 C 16.795 193.573,16.967 193.751,16.967 194.087 C 16.967 194.430,17.138 194.602,17.481 194.602 C 17.858 194.602,17.995 194.773,17.995 195.244 C 17.995 195.716,18.132 195.887,18.509 195.887 C 18.852 195.887,19.023 196.058,19.023 196.401 C 19.023 196.734,19.195 196.915,19.509 196.915 C 19.863 196.915,20.041 197.166,20.168 197.843 C 20.283 198.454,20.513 198.816,20.840 198.902 C 21.113 198.973,21.337 199.195,21.337 199.396 C 21.337 199.596,21.596 199.856,21.914 199.973 C 22.231 200.090,22.491 200.404,22.492 200.671 C 22.493 200.937,22.638 201.170,22.815 201.188 C 22.992 201.206,23.241 201.236,23.369 201.253 C 23.497 201.271,23.539 201.527,23.462 201.822 C 23.345 202.269,23.423 202.344,23.936 202.272 C 24.449 202.199,24.539 202.285,24.483 202.794 C 24.429 203.291,24.512 203.378,24.933 203.268 C 25.217 203.194,25.464 203.238,25.482 203.366 C 25.500 203.494,25.529 203.744,25.546 203.920 C 25.564 204.097,25.832 204.278,26.141 204.322 C 26.491 204.372,26.734 204.614,26.784 204.964 C 26.833 205.310,27.076 205.557,27.414 205.605 C 27.826 205.664,27.931 205.815,27.829 206.203 C 27.735 206.565,27.805 206.697,28.062 206.639 C 28.265 206.593,28.884 207.047,29.437 207.648 C 29.989 208.249,30.591 208.740,30.773 208.740 C 30.956 208.740,31.105 208.925,31.105 209.150 C 31.105 209.375,31.337 209.620,31.620 209.694 C 31.902 209.768,32.134 210.036,32.134 210.290 C 32.134 210.628,32.409 210.798,33.162 210.925 C 33.943 211.057,34.190 211.218,34.190 211.591 C 34.190 211.939,34.371 212.082,34.809 212.082 C 35.301 212.082,35.400 212.187,35.293 212.596 C 35.184 213.014,35.285 213.111,35.831 213.111 C 36.332 213.111,36.504 213.242,36.504 213.625 C 36.504 213.967,36.675 214.139,37.018 214.139 C 37.361 214.139,37.532 214.310,37.532 214.653 C 37.532 214.936,37.649 215.167,37.791 215.167 C 37.933 215.167,38.301 215.456,38.608 215.810 C 38.958 216.211,39.439 216.452,39.892 216.452 C 40.446 216.452,40.617 216.574,40.617 216.967 C 40.617 217.344,40.788 217.481,41.260 217.481 C 41.731 217.481,41.902 217.618,41.902 217.995 C 41.902 218.367,42.074 218.509,42.521 218.509 C 43.014 218.509,43.112 218.614,43.004 219.027 C 42.900 219.424,42.965 219.508,43.282 219.386 C 43.569 219.276,43.772 219.431,43.949 219.897 C 44.089 220.265,44.380 220.580,44.595 220.598 C 44.811 220.615,45.103 220.659,45.244 220.694 C 45.386 220.729,45.603 220.773,45.728 220.790 C 45.853 220.808,46.016 221.054,46.090 221.337 C 46.170 221.644,46.441 221.851,46.763 221.851 C 47.139 221.851,47.301 222.014,47.301 222.393 C 47.301 222.773,47.418 222.889,47.695 222.783 C 47.955 222.683,48.169 222.843,48.325 223.253 C 48.508 223.735,48.781 223.893,49.538 223.955 C 50.316 224.020,50.514 224.140,50.514 224.550 C 50.514 224.882,50.686 225.065,50.999 225.066 C 51.267 225.066,51.580 225.326,51.698 225.644 C 51.815 225.961,52.089 226.221,52.305 226.221 C 52.522 226.221,52.699 226.382,52.699 226.579 C 52.699 226.994,53.247 227.249,54.134 227.249 C 54.584 227.249,54.756 227.391,54.756 227.763 C 54.756 228.201,54.927 228.278,55.913 228.278 C 56.898 228.278,57.069 228.354,57.069 228.792 C 57.069 229.215,57.241 229.306,58.035 229.306 C 58.911 229.306,59.026 229.388,59.278 230.195 C 59.432 230.684,59.460 231.024,59.341 230.951 C 59.223 230.878,59.126 230.991,59.126 231.201 C 59.126 231.412,58.895 231.658,58.612 231.748 C 58.213 231.875,58.098 232.137,58.098 232.922 C 58.098 233.930,58.095 233.933,57.069 233.933 C 56.213 233.933,56.041 234.019,56.041 234.447 C 56.041 234.798,55.870 234.961,55.503 234.961 C 55.190 234.961,54.911 235.166,54.837 235.452 C 54.604 236.342,50.540 236.351,50.308 235.462 C 50.210 235.087,49.952 234.961,49.283 234.961 C 48.605 234.961,48.356 234.837,48.255 234.447 C 48.148 234.039,47.904 233.933,47.068 233.933 C 46.117 233.933,46.015 233.871,46.015 233.290 C 46.015 232.832,45.876 232.648,45.531 232.648 C 45.263 232.648,44.987 232.418,44.913 232.134 C 44.806 231.727,44.562 231.620,43.749 231.620 C 42.913 231.620,42.732 231.535,42.788 231.170 C 42.834 230.865,42.641 230.676,42.186 230.582 C 41.744 230.492,41.530 230.289,41.555 229.986 C 41.581 229.686,41.467 229.576,41.226 229.669 C 40.996 229.757,40.769 229.576,40.620 229.186 C 40.455 228.753,40.113 228.512,39.495 228.396 C 38.927 228.289,38.562 228.053,38.480 227.739 C 38.405 227.454,38.126 227.249,37.813 227.249 C 37.446 227.249,37.275 227.086,37.275 226.735 C 37.275 226.307,37.104 226.221,36.247 226.221 C 35.390 226.221,35.219 226.135,35.219 225.707 C 35.219 225.281,35.047 225.193,34.220 225.193 C 33.438 225.193,33.193 225.081,33.087 224.679 C 32.884 223.902,28.044 223.889,27.842 224.665 C 27.748 225.022,27.447 225.187,26.783 225.243 C 26.112 225.300,25.817 225.464,25.717 225.835 C 25.637 226.132,25.361 226.350,25.064 226.350 C 24.723 226.350,24.549 226.522,24.547 226.864 C 24.545 227.257,24.401 227.358,23.933 227.291 C 23.419 227.219,23.345 227.293,23.466 227.755 C 23.575 228.172,23.459 228.363,22.987 228.542 C 22.495 228.730,22.365 228.964,22.365 229.667 C 22.365 230.393,22.259 230.571,21.787 230.638 C 21.331 230.702,21.199 230.900,21.166 231.571 C 21.140 232.080,20.902 232.613,20.572 232.900 C 19.784 233.582,19.819 242.147,20.610 242.354 C 20.904 242.430,21.091 242.730,21.109 243.153 C 21.126 243.526,21.166 243.946,21.199 244.087 C 21.232 244.229,21.276 244.605,21.298 244.923 C 21.324 245.317,21.501 245.501,21.851 245.501 C 22.228 245.501,22.365 245.673,22.365 246.144 C 22.365 246.615,22.502 246.787,22.879 246.787 C 23.298 246.787,23.393 246.958,23.393 247.710 C 23.393 248.413,23.514 248.666,23.899 248.766 C 24.177 248.839,24.474 249.118,24.559 249.385 C 24.644 249.653,24.866 249.871,25.054 249.871 C 25.241 249.871,25.467 250.161,25.555 250.514 C 25.660 250.929,25.897 251.157,26.226 251.157 C 26.564 251.157,26.735 251.330,26.735 251.671 C 26.735 252.052,26.907 252.185,27.395 252.185 C 27.949 252.185,28.028 252.272,27.884 252.725 C 27.741 253.176,27.796 253.238,28.222 253.102 C 28.619 252.977,28.768 253.086,28.895 253.591 C 28.985 253.949,29.230 254.242,29.439 254.242 C 29.649 254.242,29.820 254.418,29.820 254.634 C 29.820 254.849,30.109 255.136,30.463 255.270 C 30.816 255.404,31.105 255.678,31.105 255.879 C 31.105 256.299,31.649 256.555,32.540 256.555 C 32.882 256.555,33.162 256.671,33.162 256.812 C 33.162 256.982,41.637 257.069,58.073 257.069 L 82.984 257.069 82.994 255.744 C 83.004 254.509,83.359 253.838,83.844 254.138 C 83.950 254.203,84.071 253.530,84.114 252.642 C 84.176 251.323,84.266 251.041,84.607 251.096 C 84.860 251.137,85.023 250.986,85.022 250.711 C 85.015 249.239,85.118 248.896,85.604 248.769 C 86.041 248.654,86.118 248.418,86.118 247.196 C 86.118 245.834,86.152 245.758,86.761 245.758 C 87.238 245.758,87.404 245.894,87.404 246.288 C 87.404 246.579,87.509 246.752,87.637 246.672 C 88.094 246.390,88.635 246.810,88.496 247.340 C 88.393 247.736,88.476 247.847,88.846 247.808 C 89.951 247.690,90.434 247.836,90.563 248.329 C 90.670 248.738,90.914 248.843,91.750 248.843 C 92.707 248.843,92.802 248.902,92.802 249.501 C 92.802 249.863,92.914 250.089,93.052 250.005 C 93.189 249.920,93.560 250.148,93.876 250.511 C 94.191 250.874,94.629 251.155,94.847 251.134 C 95.621 251.063,95.828 251.163,95.961 251.671 C 96.068 252.079,96.312 252.185,97.148 252.185 C 98.029 252.185,98.201 252.269,98.201 252.699 C 98.201 253.031,98.372 253.213,98.685 253.213 C 98.953 253.213,99.229 253.443,99.303 253.728 C 99.410 254.136,99.654 254.242,100.490 254.242 C 101.507 254.242,101.713 254.449,101.573 255.334 C 101.556 255.440,102.005 255.527,102.571 255.527 C 103.428 255.527,103.599 255.613,103.599 256.041 C 103.599 256.384,103.770 256.555,104.113 256.555 C 104.396 256.555,104.627 256.671,104.627 256.812 C 104.627 256.983,145.465 257.069,226.626 257.069 L 348.626 257.069 348.580 256.234 C 348.493 254.651,348.581 254.303,349.100 254.167 C 349.383 254.093,349.614 253.848,349.614 253.623 C 349.614 253.385,349.829 253.213,350.129 253.213 C 350.471 253.213,350.643 253.042,350.643 252.699 C 350.643 252.269,350.814 252.185,351.695 252.185 C 352.531 252.185,352.775 252.079,352.882 251.671 C 353.012 251.171,353.358 251.046,354.325 251.147 C 354.608 251.176,354.849 250.985,354.933 250.662 C 355.012 250.360,355.283 250.129,355.557 250.129 C 355.902 250.129,356.041 249.944,356.041 249.486 C 356.041 248.905,356.142 248.843,357.093 248.843 C 357.930 248.843,358.173 248.738,358.280 248.329 C 358.382 247.939,358.631 247.815,359.309 247.815 C 359.986 247.815,360.235 247.691,360.337 247.301 C 360.411 247.016,360.687 246.787,360.955 246.787 C 361.257 246.787,361.440 246.605,361.440 246.305 C 361.440 245.943,361.693 245.784,362.468 245.660 C 363.268 245.532,363.496 245.382,363.496 244.984 C 363.496 244.610,363.669 244.473,364.139 244.473 C 364.610 244.473,364.781 244.336,364.781 243.959 C 364.781 243.540,364.953 243.445,365.705 243.445 C 366.404 243.445,366.661 243.323,366.760 242.945 C 366.832 242.670,367.139 242.410,367.443 242.367 C 367.746 242.323,367.995 242.116,367.995 241.906 C 367.995 241.696,368.226 241.489,368.509 241.446 C 369.798 241.251,370.180 241.097,370.180 240.771 C 370.180 240.578,370.411 240.359,370.694 240.285 C 371.002 240.205,371.208 239.935,371.208 239.613 C 371.208 239.246,371.372 239.075,371.722 239.075 C 372.065 239.075,372.237 238.903,372.237 238.560 C 372.237 238.052,372.796 237.897,374.124 238.037 C 374.494 238.076,374.560 237.970,374.428 237.552 C 374.266 237.043,374.391 236.965,375.257 237.033 C 375.363 237.042,375.513 236.782,375.590 236.456 C 375.667 236.129,375.898 235.851,376.104 235.837 C 376.310 235.823,376.738 235.793,377.057 235.772 C 377.375 235.750,377.635 235.572,377.635 235.375 C 377.635 235.178,377.924 234.945,378.278 234.856 C 378.693 234.752,378.920 234.514,378.920 234.185 C 378.920 233.847,379.093 233.676,379.434 233.676 C 379.777 233.676,379.949 233.505,379.949 233.162 C 379.949 232.819,380.120 232.648,380.463 232.648 C 380.805 232.648,380.977 232.476,380.977 232.134 C 380.977 231.715,381.148 231.620,381.901 231.620 C 382.599 231.620,382.856 231.498,382.955 231.120 C 383.027 230.845,383.334 230.585,383.638 230.541 C 383.984 230.492,384.221 230.246,384.272 229.884 C 384.327 229.500,384.531 229.306,384.881 229.306 C 385.280 229.306,385.375 229.182,385.273 228.792 C 385.144 228.299,385.340 228.166,386.054 228.258 C 386.231 228.281,386.375 228.072,386.375 227.793 C 386.375 227.462,386.577 227.256,386.954 227.203 C 387.320 227.151,387.519 226.956,387.496 226.671 C 387.473 226.382,387.643 226.221,387.970 226.221 C 388.256 226.221,388.536 226.005,388.608 225.731 C 388.679 225.461,388.947 225.185,389.205 225.118 C 389.463 225.050,389.712 224.722,389.760 224.387 C 389.816 223.989,390.004 223.792,390.304 223.816 C 390.637 223.843,390.722 223.725,390.615 223.386 C 390.504 223.038,390.618 222.896,391.056 222.834 C 391.531 222.767,391.661 222.567,391.724 221.803 C 391.786 221.053,391.921 220.838,392.367 220.774 C 392.715 220.725,392.961 220.483,393.009 220.142 C 393.053 219.838,393.313 219.531,393.588 219.459 C 393.977 219.357,394.087 219.102,394.087 218.305 C 394.087 217.491,394.179 217.288,394.533 217.316 C 394.898 217.346,394.992 217.096,395.055 215.938 C 395.150 214.184,395.282 213.792,395.722 213.961 C 395.991 214.064,396.070 213.648,396.083 212.053 C 396.097 210.289,396.042 210.023,395.672 210.084 C 395.317 210.142,395.231 209.876,395.167 208.520 C 395.102 207.153,395.008 206.865,394.589 206.755 C 394.313 206.683,394.087 206.414,394.087 206.158 C 394.087 205.870,393.866 205.660,393.509 205.609 C 393.191 205.564,392.931 205.353,392.931 205.141 C 392.931 204.929,392.670 204.719,392.352 204.674 C 391.995 204.623,391.774 204.413,391.774 204.125 C 391.774 203.110,380.139 203.035,379.995 204.049 C 379.914 204.622,379.874 204.627,375.689 204.627 C 371.637 204.627,371.465 204.648,371.465 205.141 C 371.465 205.632,371.294 205.656,367.755 205.656 C 364.271 205.656,364.035 205.687,363.882 206.170 C 363.735 206.630,359.338 207.008,357.729 206.698 C 357.173 206.591,356.298 206.979,356.298 207.331 C 356.298 207.625,355.930 207.717,354.692 207.733 C 351.204 207.778,351.043 207.806,350.775 208.419 C 350.532 208.971,350.386 208.997,347.514 208.997 C 344.733 208.997,344.495 209.036,344.344 209.512 C 344.196 209.980,343.956 210.026,341.645 210.026 C 339.355 210.026,339.094 210.074,338.950 210.528 C 338.818 210.943,338.514 211.043,337.197 211.106 C 335.986 211.164,335.604 211.275,335.604 211.568 C 335.604 211.865,335.206 211.971,333.869 212.030 C 332.267 212.100,332.134 212.065,332.134 211.580 C 332.134 211.225,331.966 211.054,331.620 211.054 C 331.201 211.054,331.105 210.883,331.105 210.130 C 331.105 209.423,330.985 209.175,330.591 209.072 C 330.308 208.998,330.077 208.775,330.077 208.575 C 330.077 208.208,328.832 207.586,328.587 207.831 C 328.337 208.082,327.794 207.419,327.939 207.040 C 328.018 206.833,327.983 206.681,327.859 206.704 C 327.155 206.832,326.735 206.633,326.735 206.170 C 326.735 205.827,326.564 205.656,326.221 205.656 C 325.878 205.656,325.707 205.484,325.707 205.141 C 325.707 204.805,325.536 204.627,325.211 204.627 C 324.892 204.627,324.685 204.421,324.632 204.049 C 324.581 203.687,324.344 203.441,323.998 203.392 C 323.694 203.348,323.387 203.088,323.315 202.813 C 323.216 202.435,322.959 202.314,322.261 202.314 C 321.508 202.314,321.337 202.218,321.337 201.799 C 321.337 201.457,321.165 201.285,320.823 201.285 C 320.475 201.285,320.308 201.114,320.308 200.755 C 320.308 200.404,320.156 200.240,319.859 200.271 C 318.688 200.390,318.252 200.247,318.252 199.743 C 318.252 199.460,318.165 199.242,318.059 199.259 C 317.380 199.367,316.967 199.169,316.967 198.737 C 316.967 198.366,316.721 198.204,315.963 198.076 C 315.263 197.958,314.920 197.752,314.827 197.395 C 314.753 197.114,314.539 196.904,314.352 196.930 C 313.348 197.066,312.853 196.892,312.853 196.401 C 312.853 196.024,312.682 195.887,312.211 195.887 C 311.740 195.887,311.568 195.750,311.568 195.373 C 311.568 194.946,311.397 194.859,310.558 194.859 C 309.706 194.859,309.534 194.768,309.465 194.280 C 309.397 193.799,309.199 193.688,308.290 193.623 C 307.407 193.559,307.198 193.448,307.198 193.044 C 307.198 192.716,307.021 192.545,306.684 192.545 C 306.401 192.545,306.170 192.384,306.170 192.187 C 306.170 191.772,305.622 191.517,304.735 191.517 C 304.284 191.517,304.113 191.375,304.113 191.003 C 304.113 190.565,303.942 190.488,302.956 190.488 C 301.971 190.488,301.799 190.412,301.799 189.974 C 301.799 189.642,301.628 189.460,301.315 189.460 C 301.049 189.460,300.773 189.236,300.701 188.963 C 300.616 188.639,300.256 188.407,299.667 188.296 C 299.083 188.187,298.717 187.953,298.634 187.636 C 298.535 187.258,298.273 187.147,297.483 187.147 C 296.677 187.147,296.433 187.038,296.327 186.632 C 296.253 186.350,296.021 186.118,295.812 186.118 C 295.604 186.118,295.372 185.887,295.298 185.604 C 295.196 185.214,294.948 185.090,294.268 185.090 C 293.527 185.090,293.344 184.979,293.211 184.447 C 293.072 183.896,292.903 183.805,292.026 183.805 C 291.174 183.805,291.003 183.719,291.003 183.290 C 291.003 183.008,290.916 182.790,290.810 182.807 C 289.768 182.971,288.946 182.731,288.946 182.262 C 288.946 181.930,288.775 181.748,288.462 181.748 C 288.194 181.748,287.918 181.518,287.843 181.234 C 287.736 180.825,287.493 180.720,286.656 180.720 C 285.775 180.720,285.604 180.636,285.604 180.206 C 285.604 179.779,285.433 179.692,284.594 179.692 C 283.742 179.692,283.570 179.601,283.501 179.113 C 283.450 178.751,283.213 178.505,282.867 178.456 C 282.563 178.413,282.256 178.152,282.184 177.878 C 282.085 177.500,281.828 177.378,281.129 177.378 C 280.386 177.378,280.206 177.280,280.206 176.879 C 280.206 176.475,279.996 176.364,279.113 176.300 C 278.238 176.237,278.036 176.131,278.096 175.771 C 278.152 175.441,277.998 175.321,277.518 175.321 C 277.102 175.321,276.864 175.178,276.864 174.927 C 276.864 174.484,275.940 174.055,275.257 174.181 C 274.948 174.238,274.807 174.099,274.807 173.737 C 274.807 173.366,274.689 173.255,274.408 173.363 C 274.163 173.457,274.075 173.410,274.179 173.241 C 274.280 173.078,274.154 172.987,273.871 173.016 C 273.019 173.107,272.813 173.016,272.676 172.494 C 272.569 172.085,272.326 171.979,271.489 171.979 C 270.608 171.979,270.437 171.896,270.437 171.465 C 270.437 171.129,270.266 170.951,269.940 170.951 C 269.665 170.951,269.369 170.716,269.276 170.424 C 269.184 170.135,268.916 169.917,268.680 169.940 C 267.534 170.053,267.128 169.905,267.049 169.344 C 266.983 168.880,266.777 168.750,266.003 168.686 C 265.362 168.633,265.039 168.480,265.039 168.228 C 265.039 168.020,264.836 167.775,264.589 167.682 C 264.341 167.590,263.988 167.305,263.803 167.048 C 263.594 166.758,263.143 166.581,262.612 166.581 C 261.973 166.581,261.723 166.451,261.622 166.067 C 261.519 165.673,261.272 165.553,260.564 165.553 C 259.811 165.553,259.640 165.457,259.640 165.039 C 259.640 164.601,259.469 164.524,258.483 164.524 C 257.421 164.524,257.326 164.472,257.326 163.882 C 257.326 163.410,257.189 163.239,256.812 163.239 C 256.530 163.239,256.298 163.073,256.298 162.871 C 256.298 162.525,255.589 162.145,255.104 162.232 C 254.563 162.329,254.292 162.174,254.167 161.697 C 254.060 161.288,253.817 161.183,252.980 161.183 C 252.099 161.183,251.928 161.099,251.928 160.668 C 251.928 160.241,251.757 160.154,250.918 160.154 C 250.066 160.154,249.894 160.064,249.825 159.576 C 249.773 159.210,249.565 158.997,249.258 158.996 C 248.990 158.995,248.677 158.735,248.559 158.418 C 248.393 157.969,248.144 157.841,247.438 157.841 C 246.734 157.841,246.530 157.736,246.530 157.377 C 246.530 157.026,246.317 156.908,245.647 156.889 C 244.566 156.859,244.137 156.618,244.319 156.144 C 244.414 155.895,244.260 155.784,243.822 155.784 C 243.359 155.784,243.188 155.645,243.188 155.270 C 243.188 154.841,243.016 154.756,242.159 154.756 C 241.409 154.756,241.131 154.650,241.131 154.364 C 241.131 153.940,239.953 153.374,239.567 153.613 C 239.437 153.693,239.218 153.462,239.080 153.100 C 238.871 152.549,238.667 152.442,237.826 152.442 C 237.037 152.442,236.792 152.332,236.686 151.928 C 236.612 151.645,236.381 151.414,236.172 151.414 C 235.963 151.414,235.732 151.183,235.658 150.900 C 235.556 150.508,235.308 150.386,234.618 150.386 C 233.874 150.386,233.697 150.282,233.630 149.807 C 233.571 149.397,233.361 149.217,232.905 149.190 C 232.551 149.168,232.060 149.140,231.812 149.126 C 231.552 149.111,231.362 148.896,231.362 148.615 C 231.362 148.348,231.218 148.134,231.041 148.141 C 229.733 148.190,229.306 148.046,229.306 147.558 C 229.306 147.188,229.135 147.044,228.693 147.044 C 228.297 147.044,228.033 146.862,227.946 146.530 C 227.843 146.136,227.595 146.015,226.888 146.015 C 226.135 146.015,225.964 145.920,225.964 145.501 C 225.964 145.074,225.793 144.987,224.954 144.987 C 224.102 144.987,223.930 144.897,223.861 144.409 C 223.808 144.037,223.572 143.801,223.201 143.748 C 222.882 143.703,222.622 143.513,222.622 143.326 C 222.622 142.928,222.063 142.674,221.187 142.674 C 220.743 142.674,220.566 142.531,220.566 142.174 C 220.566 141.770,220.356 141.660,219.473 141.596 C 218.598 141.532,218.396 141.427,218.456 141.067 C 218.511 140.736,218.358 140.617,217.878 140.617 C 217.462 140.617,217.224 140.474,217.224 140.223 C 217.224 139.758,216.495 139.434,215.260 139.351 C 215.099 139.340,214.983 139.129,215.003 138.882 C 215.030 138.535,214.839 138.432,214.168 138.432 C 213.501 138.432,213.248 138.297,213.084 137.853 C 212.911 137.385,212.674 137.275,211.833 137.275 C 210.968 137.275,210.797 137.190,210.797 136.761 C 210.797 136.429,210.626 136.247,210.313 136.247 C 210.045 136.247,209.769 136.017,209.694 135.733 C 209.592 135.343,209.344 135.219,208.666 135.219 C 207.990 135.219,207.739 135.094,207.638 134.707 C 207.565 134.426,207.226 134.091,206.886 133.961 C 206.043 133.641,206.158 131.951,207.032 131.827 C 207.377 131.778,207.614 131.532,207.666 131.170 C 207.711 130.852,207.903 130.591,208.093 130.591 C 208.294 130.591,208.509 130.172,208.608 129.588 C 208.724 128.901,208.933 128.544,209.273 128.455 C 209.646 128.358,209.769 128.098,209.769 127.402 C 209.769 126.650,209.864 126.478,210.283 126.478 C 210.653 126.478,210.797 126.307,210.797 125.865 C 210.797 125.469,210.978 125.205,211.311 125.118 C 211.702 125.016,211.825 124.768,211.825 124.078 C 211.825 123.334,211.929 123.157,212.404 123.090 C 212.884 123.022,212.995 122.823,213.061 121.915 C 213.125 121.032,213.236 120.823,213.639 120.823 C 213.957 120.823,214.139 120.646,214.139 120.338 C 214.139 120.071,214.368 119.794,214.653 119.720 C 215.043 119.618,215.167 119.369,215.167 118.692 C 215.167 118.014,215.291 117.765,215.681 117.663 C 216.090 117.556,216.195 117.313,216.195 116.477 C 216.195 115.596,216.279 115.424,216.710 115.424 C 217.136 115.424,217.224 115.253,217.224 114.414 C 217.224 113.562,217.314 113.390,217.802 113.321 C 218.168 113.269,218.381 113.061,218.382 112.754 C 218.383 112.487,218.642 112.173,218.960 112.055 C 219.424 111.884,219.537 111.644,219.537 110.829 C 219.537 109.943,219.602 109.834,220.051 109.951 C 220.502 110.069,220.566 109.959,220.566 109.057 C 220.566 108.245,220.674 108.001,221.080 107.895 C 221.488 107.788,221.594 107.544,221.594 106.708 C 221.594 105.847,221.682 105.656,222.080 105.656 C 222.609 105.656,222.879 105.180,222.879 104.251 C 222.879 103.875,223.067 103.610,223.393 103.524 C 223.783 103.423,223.907 103.174,223.907 102.496 C 223.907 101.828,224.033 101.569,224.405 101.472 C 224.784 101.373,224.923 101.074,224.984 100.221 C 225.049 99.320,225.152 99.115,225.514 99.176 C 225.879 99.237,225.964 99.061,225.964 98.242 C 225.964 97.448,226.074 97.203,226.478 97.098 C 226.885 96.991,226.992 96.747,226.992 95.929 C 226.992 95.052,227.080 94.882,227.571 94.812 C 228.038 94.746,228.152 94.561,228.165 93.849 C 228.176 93.200,228.328 92.903,228.743 92.718 C 229.177 92.524,229.306 92.246,229.306 91.507 C 229.306 90.765,229.422 90.518,229.820 90.414 C 230.255 90.300,230.334 90.063,230.334 88.872 C 230.334 87.680,230.413 87.443,230.848 87.329 C 231.257 87.222,231.362 86.978,231.362 86.142 C 231.362 85.265,231.447 85.090,231.872 85.090 C 232.343 85.090,232.758 84.309,232.633 83.660 C 232.465 82.784,232.697 82.052,233.183 81.925 C 233.604 81.815,233.709 81.602,233.671 80.931 C 233.563 78.985,233.661 78.462,234.126 78.499 C 234.528 78.531,234.583 78.203,234.648 75.414 C 234.714 72.539,234.760 72.282,235.235 72.158 C 236.009 71.955,235.971 65.053,235.194 64.850 C 234.752 64.734,234.704 64.461,234.704 62.028 C 234.704 59.551,234.663 59.324,234.190 59.200 C 233.833 59.107,233.676 58.850,233.676 58.357 C 233.676 57.126,233.367 56.041,233.017 56.041 C 232.812 56.041,232.647 55.662,232.599 55.077 C 232.540 54.369,232.366 54.046,231.941 53.859 C 231.506 53.669,231.362 53.391,231.362 52.743 C 231.362 52.104,231.232 51.846,230.863 51.749 C 230.588 51.677,230.328 51.370,230.284 51.066 C 230.241 50.763,230.057 50.514,229.875 50.514 C 229.441 50.514,229.061 49.882,229.230 49.442 C 229.401 48.997,228.806 48.268,228.400 48.424 C 228.214 48.496,228.103 48.322,228.120 47.986 C 228.141 47.593,227.979 47.405,227.571 47.347 C 227.199 47.294,226.992 47.088,226.992 46.769 C 226.992 46.444,226.815 46.272,226.478 46.272 C 226.101 46.272,225.964 46.101,225.964 45.630 C 225.964 45.276,225.877 45.001,225.771 45.018 C 225.203 45.107,224.936 44.933,224.936 44.473 C 224.936 44.130,224.764 43.959,224.422 43.959 C 224.079 43.959,223.907 43.787,223.907 43.445 C 223.907 43.102,223.736 42.931,223.393 42.931 C 223.051 42.931,222.879 42.759,222.879 42.416 C 222.879 42.039,222.708 41.902,222.237 41.902 C 221.722 41.902,221.594 41.774,221.594 41.260 C 221.594 40.788,221.457 40.617,221.080 40.617 C 220.737 40.617,220.566 40.446,220.566 40.103 C 220.566 39.771,220.394 39.589,220.081 39.589 C 219.813 39.589,219.537 39.359,219.463 39.075 C 219.356 38.666,219.112 38.560,218.276 38.560 C 217.395 38.560,217.224 38.477,217.224 38.046 C 217.224 37.607,217.052 37.532,216.050 37.532 C 214.992 37.532,214.892 37.481,215.039 37.018 C 215.198 36.515,215.085 36.504,209.932 36.504 C 204.888 36.504,204.655 36.526,204.499 37.018 C 204.346 37.499,203.835 37.664,202.773 37.578 C 202.497 37.555,202.384 37.674,202.470 37.897 C 202.654 38.376,202.205 38.612,201.109 38.612 C 200.444 38.612,200.162 38.738,200.074 39.076 C 200.000 39.360,199.614 39.604,199.079 39.704 C 198.493 39.814,198.081 40.097,197.828 40.564 C 197.620 40.947,197.445 41.108,197.440 40.923 C 197.423 40.386,196.915 40.851,196.915 41.403 C 196.915 41.766,196.737 41.902,196.261 41.902 C 195.781 41.902,195.627 42.022,195.683 42.352 C 195.733 42.653,195.566 42.829,195.180 42.884 C 194.808 42.937,194.602 43.144,194.602 43.463 C 194.602 43.782,194.424 43.959,194.105 43.959 C 193.786 43.959,193.580 44.166,193.527 44.537 C 193.472 44.923,193.295 45.091,192.995 45.040 C 192.665 44.985,192.545 45.138,192.545 45.619 C 192.545 46.101,192.410 46.272,192.031 46.272 C 191.688 46.272,191.517 46.444,191.517 46.787 C 191.517 47.167,191.345 47.301,190.857 47.301 C 190.322 47.301,190.227 47.395,190.354 47.796 C 190.474 48.174,190.372 48.310,189.921 48.374 C 189.545 48.428,189.345 48.620,189.367 48.908 C 189.387 49.155,189.236 49.357,189.031 49.357 C 188.826 49.357,188.729 49.472,188.816 49.611 C 188.906 49.757,188.803 49.800,188.574 49.712 C 188.296 49.606,188.175 49.714,188.175 50.071 C 188.175 50.367,187.958 50.640,187.661 50.717 C 187.267 50.820,187.147 51.068,187.147 51.775 C 187.147 52.652,186.926 52.850,186.078 52.738 C 185.985 52.725,185.939 52.914,185.977 53.157 C 186.018 53.425,185.831 53.654,185.503 53.738 C 185.205 53.815,184.926 54.121,184.883 54.419 C 184.839 54.717,184.587 55.017,184.322 55.087 C 183.975 55.177,183.816 55.493,183.758 56.205 C 183.691 57.015,183.587 57.183,183.191 57.114 C 182.836 57.053,182.749 57.141,182.865 57.444 C 182.972 57.723,182.818 57.950,182.386 58.147 C 181.896 58.370,181.748 58.632,181.748 59.278 C 181.748 59.954,181.635 60.135,181.170 60.201 C 180.798 60.253,180.562 60.489,180.509 60.861 C 180.464 61.179,180.269 61.440,180.077 61.440 C 179.745 61.440,179.371 62.159,179.456 62.634 C 179.553 63.174,179.398 63.446,178.920 63.571 C 178.512 63.677,178.406 63.921,178.406 64.757 C 178.406 65.638,178.322 65.810,177.892 65.810 C 177.464 65.810,177.378 65.981,177.378 66.838 C 177.378 67.700,177.294 67.866,176.856 67.866 C 176.568 67.866,176.259 68.069,176.168 68.316 C 176.077 68.564,175.850 68.858,175.663 68.971 C 175.476 69.084,175.252 69.623,175.165 70.170 C 175.057 70.844,174.850 71.204,174.521 71.290 C 174.163 71.384,174.036 71.651,174.036 72.311 C 174.036 72.989,173.912 73.237,173.522 73.339 C 173.113 73.446,173.008 73.690,173.008 74.526 C 173.008 75.407,172.924 75.578,172.494 75.578 C 172.067 75.578,171.979 75.750,171.979 76.589 C 171.979 77.441,171.889 77.612,171.401 77.681 C 170.940 77.747,170.807 77.954,170.744 78.701 C 170.688 79.375,170.525 79.676,170.166 79.770 C 169.773 79.872,169.666 80.126,169.666 80.953 C 169.666 81.834,169.582 82.005,169.152 82.005 C 168.726 82.005,168.638 82.177,168.638 83.003 C 168.638 83.786,168.526 84.031,168.123 84.136 C 167.715 84.243,167.609 84.487,167.609 85.323 C 167.609 86.204,167.526 86.375,167.095 86.375 C 166.668 86.375,166.581 86.547,166.581 87.386 C 166.581 88.238,166.490 88.409,166.003 88.478 C 165.522 88.547,165.411 88.745,165.345 89.653 C 165.281 90.536,165.170 90.746,164.767 90.746 C 164.358 90.746,164.267 90.927,164.267 91.744 C 164.267 92.536,164.158 92.771,163.737 92.881 C 163.446 92.957,163.228 93.173,163.254 93.361 C 163.457 94.862,163.214 96.144,162.725 96.144 C 162.302 96.144,162.211 96.315,162.211 97.111 C 162.211 97.868,162.085 98.134,161.632 98.332 C 161.150 98.544,161.033 98.842,160.925 100.129 C 160.832 101.250,160.695 101.671,160.422 101.671 C 160.146 101.671,160.032 102.041,159.992 103.078 C 159.962 103.852,159.812 104.527,159.658 104.578 C 159.505 104.629,159.444 104.776,159.523 104.903 C 159.602 105.031,159.477 105.063,159.245 104.974 C 158.907 104.844,158.833 104.961,158.873 105.555 C 158.960 106.832,158.895 106.980,158.290 106.894 C 157.904 106.840,157.737 106.663,157.788 106.362 C 157.850 105.990,157.666 105.913,156.713 105.913 C 155.716 105.913,155.552 105.836,155.481 105.334 C 155.422 104.924,155.212 104.744,154.756 104.717 C 154.402 104.695,153.924 104.667,153.693 104.653 C 153.462 104.639,153.213 104.396,153.139 104.113 C 153.023 103.671,152.788 103.599,151.467 103.599 C 150.160 103.599,149.934 103.531,149.964 103.149 C 149.994 102.772,149.740 102.687,148.393 102.623 C 146.985 102.556,146.787 102.483,146.787 102.033 C 146.787 101.751,146.642 101.539,146.465 101.562 C 145.430 101.696,144.780 101.504,144.656 101.028 C 144.540 100.586,144.305 100.514,142.985 100.514 C 141.592 100.514,141.439 100.460,141.349 99.936 C 141.169 98.885,141.396 98.236,141.972 98.152 C 142.275 98.108,142.586 97.841,142.663 97.558 C 142.739 97.275,142.976 97.044,143.188 97.044 C 143.400 97.044,143.610 96.783,143.655 96.465 C 143.701 96.147,143.891 95.887,144.078 95.887 C 144.476 95.887,144.730 95.328,144.730 94.452 C 144.730 94.002,144.872 93.830,145.244 93.830 C 145.581 93.830,145.758 93.659,145.758 93.334 C 145.758 93.060,145.990 92.763,146.272 92.674 C 146.672 92.547,146.787 92.285,146.787 91.499 C 146.787 90.586,146.850 90.488,147.444 90.488 C 147.806 90.488,148.033 90.376,147.948 90.239 C 147.863 90.102,148.088 89.734,148.447 89.421 C 148.845 89.075,149.100 88.582,149.100 88.158 C 149.100 87.680,149.260 87.422,149.614 87.329 C 150.023 87.222,150.129 86.978,150.129 86.142 C 150.129 85.261,150.212 85.090,150.643 85.090 C 150.979 85.090,151.157 84.919,151.157 84.593 C 151.157 84.320,151.388 84.023,151.671 83.933 C 152.054 83.812,152.185 83.544,152.185 82.888 C 152.185 82.324,152.309 82.005,152.527 82.005 C 152.972 82.005,153.536 80.943,153.427 80.312 C 153.367 79.965,153.512 79.796,153.920 79.738 C 154.408 79.669,154.499 79.497,154.499 78.645 C 154.499 78.090,154.621 77.635,154.771 77.635 C 154.921 77.635,154.973 77.521,154.886 77.381 C 154.796 77.235,154.899 77.192,155.128 77.280 C 155.449 77.403,155.527 77.226,155.527 76.377 C 155.527 75.493,155.610 75.321,156.041 75.321 C 156.468 75.321,156.555 75.150,156.555 74.310 C 156.555 73.543,156.673 73.262,157.044 73.144 C 157.547 72.985,157.974 71.889,157.704 71.452 C 157.620 71.316,157.761 71.127,158.017 71.032 C 158.709 70.777,158.861 70.434,158.865 69.117 C 158.868 68.144,158.963 67.902,159.383 67.792 C 159.826 67.676,159.897 67.441,159.897 66.091 C 159.897 64.696,159.953 64.524,160.411 64.524 C 160.873 64.524,160.925 64.353,160.925 62.853 C 160.925 61.354,160.978 61.183,161.440 61.183 C 161.901 61.183,161.954 61.011,161.954 59.512 C 161.954 58.046,162.013 57.841,162.438 57.841 C 163.061 57.841,163.231 57.174,163.236 54.721 C 163.239 52.977,163.296 52.744,163.753 52.625 C 164.256 52.493,164.267 52.274,164.267 42.826 C 164.267 33.333,164.258 33.162,163.753 33.162 C 163.231 33.162,163.081 32.249,163.234 29.984 C 163.266 29.515,163.184 29.310,163.007 29.419 C 162.837 29.524,162.789 29.437,162.884 29.191 C 162.992 28.908,162.879 28.792,162.495 28.792 C 162.035 28.792,161.954 28.638,161.954 27.763 C 161.954 26.907,161.868 26.735,161.440 26.735 C 161.004 26.735,160.925 26.564,160.925 25.607 C 160.925 24.690,160.841 24.485,160.476 24.514 C 160.123 24.542,160.009 24.314,159.947 23.458 C 159.883 22.574,159.772 22.365,159.368 22.365 C 158.966 22.365,158.869 22.185,158.869 21.441 C 158.869 20.743,158.747 20.486,158.369 20.387 C 158.094 20.315,157.834 20.008,157.791 19.704 C 157.742 19.358,157.496 19.121,157.134 19.070 C 156.605 18.994,156.433 18.736,156.531 18.168 C 156.552 18.052,156.334 18.030,156.048 18.121 C 155.617 18.258,155.527 18.172,155.527 17.627 C 155.527 17.138,155.393 16.967,155.013 16.967 C 154.662 16.967,154.499 16.795,154.499 16.428 C 154.499 16.109,154.293 15.836,153.993 15.758 C 153.715 15.685,153.418 15.407,153.333 15.139 C 153.248 14.872,152.955 14.653,152.682 14.653 C 152.356 14.653,152.185 14.476,152.185 14.139 C 152.185 13.807,152.014 13.625,151.701 13.625 C 151.433 13.625,151.157 13.395,151.082 13.111 C 150.979 12.717,150.732 12.596,150.024 12.596 C 149.272 12.596,149.100 12.501,149.100 12.082 C 149.100 11.705,148.929 11.568,148.458 11.568 C 147.986 11.568,147.815 11.431,147.815 11.054 C 147.815 10.711,147.644 10.540,147.301 10.540 C 146.921 10.540,146.787 10.368,146.787 9.886 C 146.787 9.512,146.649 9.250,146.465 9.274 C 145.200 9.438,144.525 9.239,144.656 8.740 C 144.780 8.264,144.663 8.226,143.089 8.226 C 141.560 8.226,141.388 8.174,141.388 7.712 C 141.388 7.222,141.217 7.198,137.661 7.198 C 134.105 7.198,133.933 7.222,133.933 7.712 M89.850 122.907 C 91.752 123.914,92.862 125.586,92.817 127.378 C 92.789 128.476,92.185 131.308,91.912 131.620 C 91.726 131.832,91.496 132.373,91.400 132.823 C 91.305 133.273,91.068 133.772,90.874 133.933 C 90.680 134.094,90.447 134.565,90.356 134.979 C 90.265 135.394,90.078 135.733,89.941 135.733 C 89.803 135.733,89.521 136.140,89.313 136.638 C 88.948 137.511,88.784 137.747,87.661 139.010 C 87.378 139.328,87.147 139.753,87.147 139.953 C 87.147 140.154,86.284 141.203,85.230 142.285 C 82.620 144.964,80.171 145.866,78.243 144.860 C 77.838 144.649,77.333 144.473,77.121 144.470 C 74.471 144.425,72.200 136.576,74.036 133.805 C 74.317 133.380,74.548 132.789,74.548 132.490 C 74.549 132.191,74.757 131.670,75.010 131.333 C 75.263 130.996,75.618 130.431,75.799 130.077 C 76.502 128.699,77.044 127.803,77.396 127.433 C 77.598 127.220,78.051 126.687,78.403 126.248 C 78.755 125.809,79.130 125.450,79.235 125.450 C 79.341 125.450,79.805 125.046,80.266 124.552 C 82.315 122.361,87.224 121.518,89.850 122.907 M151.930 154.504 C 154.183 156.096,155.204 158.113,154.724 160.026 C 154.583 160.591,154.381 162.292,154.277 163.805 C 154.137 165.833,153.973 166.682,153.650 167.038 C 153.410 167.304,153.212 167.801,153.210 168.144 C 153.207 168.486,153.041 169.055,152.839 169.409 C 152.638 169.762,152.306 170.409,152.102 170.846 C 151.662 171.789,149.538 174.036,149.087 174.036 C 148.913 174.036,148.623 174.238,148.443 174.486 C 148.155 174.880,147.634 174.936,144.259 174.936 L 140.404 174.936 139.444 173.976 L 138.483 173.016 138.471 168.578 C 138.459 164.441,138.497 164.078,139.023 163.239 C 139.333 162.744,139.587 162.152,139.588 161.924 C 139.588 161.696,139.820 161.215,140.103 160.855 C 140.386 160.496,140.617 159.960,140.617 159.664 C 140.617 159.368,140.848 158.895,141.131 158.612 C 141.414 158.329,141.645 157.985,141.645 157.846 C 141.645 157.475,144.290 154.756,144.652 154.756 C 144.822 154.756,145.054 154.599,145.167 154.408 C 145.735 153.447,150.531 153.516,151.930 154.504 M104.969 167.474 C 105.178 167.682,105.430 168.463,105.530 169.209 C 105.629 169.955,105.858 170.739,106.038 170.951 C 106.218 171.163,106.444 172.031,106.540 172.879 C 106.635 173.728,106.890 174.805,107.105 175.275 C 107.320 175.744,107.558 176.785,107.634 177.588 C 107.710 178.392,107.921 179.288,108.104 179.581 C 108.286 179.874,108.513 180.799,108.608 181.638 C 108.704 182.476,109.004 183.828,109.275 184.641 C 109.547 185.455,109.769 186.587,109.769 187.158 C 109.769 187.728,110.006 188.660,110.296 189.229 C 111.856 192.286,110.996 197.159,108.554 199.100 C 106.613 200.643,101.604 200.046,101.552 198.265 C 101.547 198.088,101.430 197.943,101.292 197.943 C 101.154 197.943,100.849 197.567,100.613 197.108 C 100.378 196.648,100.074 196.200,99.937 196.112 C 99.800 196.024,99.585 195.396,99.458 194.718 C 99.331 194.039,99.069 193.302,98.874 193.079 C 98.680 192.856,98.439 192.105,98.338 191.410 C 98.238 190.714,97.999 189.905,97.806 189.610 C 97.613 189.316,97.374 188.272,97.274 187.291 C 97.173 186.310,96.937 185.211,96.748 184.849 C 96.559 184.486,96.403 183.766,96.403 183.247 C 96.400 181.405,95.335 180.876,93.900 182.005 C 93.541 182.288,92.900 182.519,92.476 182.519 C 92.053 182.519,91.345 182.741,90.904 183.012 C 90.464 183.283,89.673 183.584,89.148 183.681 C 88.623 183.779,88.064 184.014,87.907 184.204 C 87.749 184.393,86.821 184.627,85.845 184.724 C 84.852 184.821,83.941 185.054,83.777 185.251 C 83.340 185.778,78.333 185.750,77.892 185.219 C 77.716 185.006,77.267 184.833,76.895 184.833 C 76.186 184.833,73.541 183.334,73.529 182.925 C 73.525 182.795,73.333 182.480,73.103 182.226 C 71.296 180.229,73.227 176.604,76.096 176.606 C 76.311 176.607,76.902 176.384,77.411 176.111 C 77.920 175.838,78.783 175.531,79.329 175.429 C 79.875 175.326,80.467 175.097,80.644 174.920 C 80.821 174.742,81.425 174.520,81.985 174.425 C 82.545 174.330,83.440 174.031,83.973 173.759 C 84.506 173.487,85.308 173.265,85.756 173.265 C 86.203 173.265,86.707 173.099,86.875 172.897 C 87.043 172.695,87.772 172.402,88.495 172.247 C 89.219 172.092,89.968 171.834,90.160 171.675 C 90.352 171.516,91.097 171.292,91.817 171.179 C 92.536 171.065,93.332 170.784,93.586 170.554 C 93.840 170.324,94.548 170.073,95.160 169.996 C 95.772 169.919,96.461 169.692,96.690 169.492 C 96.920 169.293,97.557 169.059,98.104 168.973 C 98.652 168.887,99.376 168.602,99.713 168.341 C 100.051 168.080,100.629 167.865,100.999 167.863 C 101.368 167.860,101.960 167.698,102.314 167.502 C 103.178 167.023,104.504 167.009,104.969 167.474 " stroke="none" fill="#a6f7ff" fill-rule="evenodd"></path></g></svg>