<svg id="svg" version="1.1" width="400" height="400" viewBox="0 0 400 400" xmlns="http://www.w3.org/2000/svg" xmlns:xlink="http://www.w3.org/1999/xlink" ><g id="svgg"><path id="path0" d="M93.000 138.605 C 91.370 139.479,89.365 141.464,88.599 142.963 C 88.251 143.644,87.572 144.830,87.090 145.600 C 86.356 146.774,86.213 147.594,86.207 150.675 L 86.200 154.350 87.572 155.575 C 89.858 157.616,91.943 157.358,94.646 154.700 C 95.821 153.545,96.786 152.453,96.791 152.273 C 96.796 152.094,97.234 151.374,97.764 150.673 C 99.123 148.878,100.800 145.614,100.800 144.764 C 100.800 144.370,100.980 143.936,101.200 143.800 C 101.894 143.371,101.639 140.274,100.821 139.209 C 99.833 137.923,94.972 137.548,93.000 138.605 M151.726 167.140 C 148.979 167.957,144.831 175.983,145.328 179.519 C 145.929 183.800,146.675 184.800,149.270 184.800 C 155.013 184.800,158.137 180.659,158.687 172.318 C 158.977 167.919,156.157 165.821,151.726 167.140 M110.000 179.864 C 109.230 180.212,108.287 180.654,107.905 180.848 C 107.523 181.042,106.793 181.200,106.282 181.200 C 105.771 181.200,105.004 181.464,104.576 181.787 C 104.149 182.110,103.406 182.380,102.924 182.387 C 102.442 182.394,101.936 182.580,101.800 182.800 C 101.664 183.020,101.224 183.200,100.822 183.200 C 100.420 183.200,99.576 183.469,98.946 183.798 C 98.316 184.126,97.431 184.396,96.980 184.398 C 96.529 184.399,95.989 184.548,95.780 184.729 C 95.571 184.910,94.320 185.397,93.000 185.811 C 91.680 186.226,90.429 186.707,90.220 186.882 C 90.011 187.057,89.460 187.200,88.996 187.200 C 88.533 187.200,87.804 187.464,87.376 187.787 C 86.949 188.110,86.298 188.380,85.929 188.387 C 84.324 188.418,84.849 191.292,86.720 192.718 C 88.334 193.948,94.996 194.364,96.060 193.300 C 96.335 193.025,96.953 192.800,97.434 192.800 C 97.915 192.800,98.824 192.531,99.454 192.202 C 100.084 191.874,100.994 191.604,101.476 191.602 C 101.958 191.601,102.464 191.420,102.600 191.200 C 102.736 190.980,103.287 190.800,103.824 190.800 C 104.361 190.800,104.800 190.620,104.800 190.400 C 104.800 190.180,105.049 190.000,105.354 190.000 C 106.271 190.000,107.105 191.713,107.313 194.023 C 107.515 196.269,108.228 199.276,108.847 200.495 C 109.041 200.877,109.200 201.435,109.200 201.735 C 109.200 202.519,111.142 206.074,112.021 206.900 C 113.393 208.189,115.396 207.811,117.235 205.917 C 119.059 204.036,119.075 203.840,117.793 198.800 C 117.429 197.370,116.975 195.390,116.785 194.400 C 116.595 193.410,116.143 191.430,115.781 190.000 C 115.419 188.570,115.040 186.770,114.937 186.000 C 114.834 185.230,114.578 184.240,114.367 183.800 C 114.156 183.360,113.848 182.190,113.683 181.200 C 113.334 179.110,112.412 178.776,110.000 179.864 " stroke="none" fill="#363d49" fill-rule="evenodd"></path><path id="path1" d="M92.800 138.038 C 88.949 140.336,85.200 146.483,85.200 150.500 C 85.200 158.728,93.257 159.741,97.600 152.058 C 97.930 151.474,98.577 150.458,99.038 149.798 C 101.673 146.031,102.945 140.621,101.582 138.978 C 99.979 137.047,95.300 136.546,92.800 138.038 M100.759 138.963 C 101.719 139.832,101.906 142.412,101.144 144.281 C 99.318 148.759,97.542 151.601,94.635 154.700 C 88.891 160.822,83.203 153.183,87.400 144.983 C 88.566 142.705,91.987 138.739,93.200 138.260 C 94.620 137.700,99.906 138.191,100.759 138.963 M150.942 166.770 C 148.675 168.152,145.138 174.074,145.226 176.340 C 145.249 176.943,145.879 175.768,146.911 173.200 C 148.966 168.082,150.186 167.000,153.907 167.000 C 157.913 167.000,158.795 167.952,158.798 172.276 C 158.799 173.858,158.620 175.264,158.400 175.400 C 158.180 175.536,157.999 176.132,157.998 176.724 C 157.996 177.316,157.726 178.316,157.398 178.946 C 157.069 179.576,156.797 180.296,156.794 180.546 C 156.767 182.445,152.682 184.800,149.413 184.800 C 147.047 184.800,146.309 184.248,145.670 182.000 L 145.272 180.600 145.236 182.071 C 145.138 186.087,152.560 186.467,156.054 182.624 C 158.817 179.585,160.269 170.094,158.300 167.940 C 156.453 165.919,153.189 165.400,150.942 166.770 M110.191 179.245 C 108.876 179.676,107.440 180.187,107.000 180.381 C 106.560 180.575,105.840 180.823,105.400 180.932 C 104.584 181.135,102.440 181.867,101.000 182.435 C 100.560 182.608,97.950 183.485,95.200 184.384 C 92.450 185.282,89.887 186.193,89.505 186.409 C 89.123 186.624,88.619 186.800,88.383 186.800 C 87.151 186.800,84.393 188.490,84.169 189.383 C 82.997 194.051,91.659 196.064,99.400 192.923 C 102.215 191.781,105.613 190.678,105.779 190.853 C 105.927 191.007,107.509 197.735,107.883 199.800 C 108.003 200.460,108.227 201.180,108.381 201.400 C 108.536 201.620,108.990 202.687,109.391 203.771 C 110.509 206.792,111.778 208.000,113.834 208.000 C 118.458 208.000,120.005 204.832,118.426 198.600 C 117.866 196.391,117.488 194.801,116.811 191.800 C 116.563 190.700,116.207 189.170,116.020 188.400 C 115.833 187.630,115.481 186.100,115.237 185.000 C 113.752 178.301,113.601 178.129,110.191 179.245 M113.793 181.472 C 114.017 182.612,114.335 183.677,114.500 183.839 C 114.665 184.001,114.800 184.508,114.799 184.967 C 114.798 185.970,115.937 191.077,116.412 192.200 C 116.598 192.640,116.837 193.630,116.944 194.400 C 117.050 195.170,117.434 197.060,117.797 198.600 C 119.080 204.041,119.073 204.127,117.238 205.962 C 114.085 209.115,109.200 206.496,109.200 201.653 C 109.200 201.257,109.065 200.798,108.900 200.634 C 108.484 200.217,107.594 196.638,107.251 194.000 C 106.873 191.090,105.716 189.241,105.000 190.400 C 104.864 190.620,104.324 190.800,103.800 190.800 C 103.276 190.800,102.749 190.960,102.628 191.155 C 102.507 191.350,101.755 191.632,100.955 191.782 C 100.156 191.932,99.209 192.207,98.851 192.394 C 95.877 193.945,87.717 194.552,87.285 193.255 C 87.202 193.005,86.955 192.800,86.738 192.800 C 85.666 192.800,84.425 189.913,85.101 188.992 C 85.516 188.425,87.173 187.733,91.386 186.367 C 93.373 185.723,95.276 185.039,95.613 184.848 C 95.950 184.658,96.803 184.375,97.509 184.220 C 98.214 184.065,98.894 183.772,99.019 183.569 C 99.145 183.366,99.599 183.200,100.029 183.200 C 100.459 183.200,101.123 183.044,101.505 182.854 C 102.391 182.412,104.653 181.621,106.200 181.213 C 106.860 181.039,108.300 180.529,109.400 180.080 C 112.594 178.777,113.309 179.004,113.793 181.472 " stroke="none" fill="#5c7c87" fill-rule="evenodd"></path><path id="path2" d="" stroke="none" fill="#5555ff" fill-rule="evenodd"></path><path id="path3" d="M144.914 179.000 C 144.917 180.100,144.995 180.503,145.087 179.895 C 145.179 179.286,145.177 178.386,145.082 177.895 C 144.987 177.403,144.911 177.900,144.914 179.000 " stroke="none" fill="#3399ff" fill-rule="evenodd"></path><path id="path4" d="M92.800 137.494 C 91.114 138.594,88.765 140.922,87.758 142.492 C 86.294 144.773,86.619 144.853,88.175 142.595 C 89.749 140.312,90.816 139.265,92.800 138.056 C 95.864 136.189,101.581 137.414,101.934 140.014 C 102.007 140.556,102.202 141.141,102.366 141.313 C 102.531 141.484,102.584 141.075,102.486 140.403 C 102.035 137.331,95.882 135.484,92.800 137.494 M101.949 143.200 C 101.824 143.970,101.593 144.960,101.435 145.400 C 101.278 145.840,101.442 145.695,101.799 145.078 C 102.156 144.461,102.387 143.471,102.312 142.878 C 102.188 141.893,102.156 141.921,101.949 143.200 M85.494 146.754 C 83.931 151.155,85.492 157.170,88.200 157.174 C 88.420 157.174,88.114 156.812,87.520 156.368 C 85.137 154.590,84.448 150.220,85.986 146.633 C 86.418 145.625,86.640 144.800,86.480 144.800 C 86.319 144.800,85.876 145.679,85.494 146.754 M100.371 147.501 C 100.061 148.105,99.210 149.590,98.480 150.800 C 97.618 152.229,97.477 152.620,98.077 151.916 C 99.095 150.720,101.302 146.769,101.077 146.543 C 100.999 146.465,100.681 146.896,100.371 147.501 M95.737 154.505 C 93.871 156.631,92.803 157.198,90.611 157.227 C 88.865 157.251,88.719 157.312,89.503 157.690 C 91.182 158.499,98.220 154.487,97.095 153.361 C 96.991 153.258,96.380 153.773,95.737 154.505 M152.900 165.876 C 153.285 165.976,153.915 165.976,154.300 165.876 C 154.685 165.775,154.370 165.693,153.600 165.693 C 152.830 165.693,152.515 165.775,152.900 165.876 M149.388 167.315 C 147.961 168.994,146.800 170.755,146.802 171.238 C 146.804 171.547,147.085 171.260,147.427 170.600 C 147.769 169.940,148.613 168.815,149.303 168.100 C 149.993 167.385,150.387 166.807,150.178 166.815 C 149.970 166.824,149.615 167.049,149.388 167.315 M157.600 166.877 C 157.600 166.987,157.960 167.493,158.400 168.000 C 158.982 168.671,159.210 169.534,159.236 171.161 C 159.270 173.274,159.294 173.325,159.656 172.067 C 160.112 170.484,159.559 168.449,158.385 167.386 C 157.953 166.996,157.600 166.766,157.600 166.877 M145.586 173.833 C 145.154 174.841,144.818 176.056,144.841 176.533 C 144.872 177.184,144.956 177.102,145.181 176.200 C 145.346 175.540,145.768 174.325,146.120 173.500 C 146.471 172.675,146.672 172.000,146.565 172.000 C 146.459 172.000,146.018 172.825,145.586 173.833 M158.451 177.351 C 158.149 178.387,158.014 179.347,158.151 179.484 C 158.288 179.621,158.400 179.379,158.400 178.947 C 158.400 178.514,158.595 177.965,158.834 177.726 C 159.072 177.488,159.207 176.882,159.134 176.380 C 159.034 175.698,158.861 175.944,158.451 177.351 M111.600 178.409 C 111.133 178.731,111.254 178.798,112.146 178.711 C 113.433 178.586,113.641 178.854,114.540 181.800 C 114.886 182.934,115.161 183.408,115.175 182.895 C 115.189 182.397,115.041 181.677,114.847 181.295 C 114.653 180.913,114.334 180.060,114.139 179.400 C 113.760 178.120,112.649 177.686,111.600 178.409 M108.400 179.433 C 107.076 180.168,107.949 180.156,109.654 179.416 C 110.537 179.032,110.725 178.839,110.200 178.855 C 109.760 178.868,108.950 179.128,108.400 179.433 M103.400 181.200 C 103.264 181.420,102.758 181.621,102.276 181.646 C 101.636 181.680,101.582 181.741,102.077 181.871 C 102.449 181.969,103.259 181.776,103.877 181.441 C 104.628 181.034,104.776 180.827,104.324 180.816 C 103.952 180.807,103.536 180.980,103.400 181.200 M144.867 182.100 C 144.800 183.599,145.826 185.200,146.854 185.200 C 147.104 185.200,146.844 184.835,146.277 184.389 C 145.584 183.844,145.196 183.092,145.091 182.089 L 144.934 180.600 144.867 182.100 M155.958 182.706 C 155.079 183.719,153.950 184.429,152.400 184.939 C 152.070 185.048,152.295 185.151,152.900 185.168 C 153.505 185.186,154.000 185.041,154.000 184.847 C 154.000 184.652,154.330 184.407,154.734 184.301 C 155.137 184.196,155.870 183.545,156.361 182.855 C 157.465 181.304,157.244 181.222,155.958 182.706 M96.800 183.433 C 95.476 184.168,96.349 184.156,98.054 183.416 C 98.937 183.032,99.125 182.839,98.600 182.855 C 98.160 182.868,97.350 183.128,96.800 183.433 M90.800 185.433 C 89.476 186.168,90.349 186.156,92.054 185.416 C 92.937 185.032,93.125 184.839,92.600 184.855 C 92.160 184.868,91.350 185.128,90.800 185.433 M115.212 185.200 C 115.212 185.530,115.387 186.070,115.600 186.400 C 115.945 186.933,115.988 186.933,115.988 186.400 C 115.988 186.070,115.813 185.530,115.600 185.200 C 115.255 184.667,115.212 184.667,115.212 185.200 M88.200 186.400 C 88.064 186.620,88.223 186.800,88.553 186.800 C 88.883 186.800,89.264 186.620,89.400 186.400 C 89.536 186.180,89.377 186.000,89.047 186.000 C 88.717 186.000,88.336 186.180,88.200 186.400 M85.101 187.537 C 84.496 187.901,84.004 188.470,84.007 188.800 C 84.011 189.301,84.070 189.308,84.365 188.843 C 84.559 188.536,85.412 187.957,86.259 187.556 C 87.228 187.098,87.503 186.836,87.000 186.850 C 86.560 186.863,85.705 187.172,85.101 187.537 M116.066 188.000 C 116.036 188.550,116.271 189.720,116.588 190.600 C 117.064 191.920,117.168 192.022,117.182 191.180 C 117.192 190.619,117.034 189.989,116.831 189.780 C 116.628 189.571,116.385 188.860,116.291 188.200 C 116.145 187.177,116.112 187.148,116.066 188.000 M84.011 191.154 C 83.968 193.369,93.016 196.716,94.138 194.900 C 94.240 194.735,93.126 194.600,91.662 194.600 C 88.534 194.600,85.795 193.462,84.711 191.713 C 84.331 191.101,84.016 190.849,84.011 191.154 M102.400 191.825 C 101.509 192.162,101.291 192.358,101.800 192.363 C 102.240 192.368,103.050 192.114,103.600 191.800 C 104.822 191.101,104.283 191.113,102.400 191.825 M106.046 193.200 C 106.027 193.750,106.187 194.470,106.400 194.800 C 106.894 195.564,106.894 194.742,106.400 193.200 L 106.080 192.200 106.046 193.200 M97.871 193.462 C 97.727 193.606,96.932 193.856,96.104 194.016 C 94.732 194.282,94.705 194.311,95.800 194.340 C 96.460 194.357,97.450 194.114,98.000 193.800 C 98.550 193.486,98.805 193.222,98.567 193.214 C 98.328 193.206,98.015 193.318,97.871 193.462 M117.397 194.200 C 118.066 197.462,118.384 198.291,118.191 196.271 C 118.090 195.210,117.815 194.040,117.579 193.671 C 117.241 193.141,117.203 193.253,117.397 194.200 M106.833 196.800 C 106.821 197.350,107.071 198.520,107.388 199.400 C 108.123 201.439,108.136 200.419,107.409 197.800 C 107.060 196.541,106.846 196.170,106.833 196.800 M118.428 198.876 C 118.496 200.144,119.142 201.054,119.172 199.924 C 119.187 199.332,119.020 198.736,118.800 198.600 C 118.580 198.464,118.413 198.588,118.428 198.876 M108.859 203.400 C 108.841 203.840,109.090 204.549,109.413 204.976 C 109.736 205.404,110.000 205.575,110.000 205.356 C 110.000 205.138,109.837 204.789,109.639 204.580 C 109.440 204.371,109.191 203.840,109.085 203.400 L 108.893 202.600 108.859 203.400 M118.381 205.682 C 117.299 208.058,112.764 208.898,111.271 207.000 C 110.839 206.450,110.342 206.000,110.168 206.000 C 109.993 206.000,110.368 206.540,111.000 207.200 C 112.973 209.260,116.812 208.675,118.663 206.032 C 119.003 205.546,119.180 205.047,119.056 204.922 C 118.932 204.798,118.628 205.140,118.381 205.682 " stroke="none" fill="#55c6ff" fill-rule="evenodd"></path><path id="path5" d="M140.545 31.000 C 140.413 31.344,139.815 31.600,139.145 31.600 C 138.455 31.600,137.877 31.856,137.736 32.223 C 137.604 32.566,137.250 32.751,136.949 32.636 C 136.648 32.520,135.873 32.942,135.228 33.573 C 134.582 34.204,133.952 34.618,133.827 34.494 C 133.702 34.369,133.600 34.567,133.600 34.933 C 133.600 35.302,133.287 35.600,132.900 35.600 C 132.139 35.600,125.600 42.231,125.600 43.002 C 125.600 43.132,125.150 43.655,124.600 44.165 C 124.050 44.675,123.600 45.287,123.600 45.525 C 123.600 45.764,123.150 46.444,122.600 47.038 C 122.050 47.631,121.600 48.431,121.600 48.816 C 121.600 49.200,121.330 49.618,121.000 49.745 C 120.670 49.871,120.400 50.341,120.400 50.787 C 120.400 51.234,120.220 51.600,120.000 51.600 C 119.780 51.600,119.600 52.050,119.600 52.600 C 119.600 53.222,119.373 53.600,119.000 53.600 C 118.670 53.600,118.400 53.870,118.400 54.200 C 118.400 54.530,118.220 54.800,118.000 54.800 C 117.780 54.800,117.600 55.173,117.600 55.629 C 117.600 56.084,117.330 56.727,117.000 57.057 C 116.670 57.387,116.400 58.094,116.400 58.629 C 116.400 59.163,116.220 59.600,116.000 59.600 C 115.780 59.600,115.600 60.050,115.600 60.600 C 115.600 61.222,115.373 61.600,115.000 61.600 C 114.627 61.600,114.400 61.978,114.400 62.600 C 114.400 63.150,114.220 63.600,114.000 63.600 C 113.780 63.600,113.600 64.320,113.600 65.200 C 113.600 66.172,113.424 66.761,113.153 66.700 C 112.907 66.645,112.650 66.939,112.581 67.352 C 112.512 67.766,112.263 68.297,112.028 68.532 C 111.792 68.768,111.600 69.554,111.600 70.280 C 111.600 71.187,111.412 71.600,111.000 71.600 C 110.638 71.600,110.400 71.970,110.400 72.533 C 110.400 73.047,110.273 73.593,110.118 73.748 C 109.963 73.903,109.771 74.518,109.691 75.113 C 109.612 75.709,109.267 76.505,108.925 76.883 C 108.583 77.261,108.407 77.842,108.534 78.174 C 108.662 78.505,108.504 79.039,108.183 79.360 C 107.862 79.681,107.600 80.571,107.600 81.338 C 107.600 82.105,107.399 82.800,107.154 82.882 C 106.909 82.964,106.630 83.744,106.534 84.615 C 106.438 85.487,106.189 86.371,105.980 86.580 C 105.771 86.789,105.600 87.535,105.600 88.237 C 105.600 89.004,105.360 89.607,105.000 89.745 C 104.589 89.902,104.400 90.545,104.400 91.787 C 104.400 92.784,104.220 93.600,104.000 93.600 C 103.780 93.600,103.600 94.305,103.600 95.167 C 103.600 96.028,103.397 96.801,103.148 96.884 C 102.900 96.967,102.618 97.837,102.521 98.817 C 102.424 99.798,102.178 100.660,101.973 100.733 C 101.768 100.807,101.600 101.675,101.600 102.662 C 101.600 103.674,101.354 104.703,101.036 105.021 C 100.725 105.332,100.410 105.760,100.336 105.973 C 100.261 106.187,98.341 106.392,96.068 106.430 C 92.980 106.482,91.883 106.639,91.726 107.050 C 91.570 107.455,90.649 107.600,88.237 107.600 C 86.387 107.600,84.768 107.792,84.520 108.040 C 84.278 108.282,83.439 108.480,82.656 108.480 C 81.872 108.480,81.022 108.732,80.767 109.040 C 80.500 109.362,79.567 109.600,78.575 109.600 C 77.625 109.600,76.736 109.780,76.600 110.000 C 76.464 110.220,75.818 110.400,75.164 110.400 C 74.476 110.400,73.878 110.653,73.745 111.000 C 73.618 111.330,73.099 111.600,72.591 111.600 C 72.082 111.600,71.603 111.791,71.525 112.025 C 71.447 112.259,70.854 112.508,70.207 112.579 C 69.560 112.650,68.964 112.909,68.882 113.154 C 68.800 113.399,68.416 113.600,68.028 113.600 C 67.103 113.600,65.212 114.557,64.111 115.582 C 63.629 116.032,62.950 116.400,62.604 116.400 C 62.258 116.400,61.871 116.670,61.745 117.000 C 61.618 117.330,61.264 117.600,60.957 117.600 C 60.651 117.600,60.400 117.780,60.400 118.000 C 60.400 118.220,60.065 118.400,59.656 118.400 C 59.247 118.400,58.574 118.850,58.161 119.400 C 57.748 119.950,57.211 120.400,56.967 120.400 C 56.724 120.400,56.001 120.850,55.362 121.400 C 54.723 121.949,54.065 122.399,53.900 122.400 C 53.735 122.400,53.600 122.670,53.600 123.000 C 53.600 123.330,53.407 123.600,53.171 123.600 C 52.936 123.600,52.492 123.825,52.185 124.100 C 51.010 125.154,50.426 125.600,50.221 125.600 C 49.753 125.600,48.400 127.011,48.400 127.499 C 48.400 127.785,47.950 128.191,47.400 128.400 C 46.850 128.609,46.400 129.059,46.400 129.400 C 46.400 129.741,45.950 130.191,45.400 130.400 C 44.850 130.609,44.400 131.022,44.400 131.318 C 44.400 131.614,43.995 132.236,43.500 132.700 C 42.206 133.914,41.600 134.706,41.600 135.183 C 41.600 135.412,41.330 135.600,41.000 135.600 C 40.670 135.600,40.400 135.755,40.400 135.944 C 40.400 136.133,39.770 136.956,39.000 137.773 C 38.230 138.589,37.600 139.415,37.600 139.608 C 37.600 139.801,37.150 140.444,36.600 141.038 C 36.050 141.631,35.600 142.451,35.600 142.858 C 35.600 143.266,35.330 143.600,35.000 143.600 C 34.670 143.600,34.400 143.870,34.400 144.200 C 34.400 144.530,34.220 144.800,34.000 144.800 C 33.780 144.800,33.600 145.061,33.600 145.379 C 33.600 145.698,33.150 146.444,32.600 147.038 C 32.050 147.631,31.600 148.431,31.600 148.816 C 31.600 149.200,31.330 149.618,31.000 149.745 C 30.670 149.871,30.400 150.341,30.400 150.787 C 30.400 151.234,30.220 151.600,30.000 151.600 C 29.780 151.600,29.600 151.870,29.600 152.200 C 29.600 152.530,29.423 152.800,29.208 152.800 C 28.992 152.800,28.702 153.250,28.564 153.800 C 28.426 154.350,28.153 154.800,27.957 154.800 C 27.760 154.800,27.600 155.430,27.600 156.200 C 27.600 157.075,27.407 157.600,27.085 157.600 C 26.802 157.600,26.540 158.002,26.503 158.494 C 26.466 158.986,26.248 159.451,26.018 159.527 C 25.788 159.604,25.600 160.087,25.600 160.600 C 25.600 161.113,25.388 161.604,25.128 161.691 C 24.869 161.777,24.614 162.462,24.562 163.213 C 24.510 163.963,24.272 164.643,24.034 164.722 C 23.788 164.804,23.600 165.876,23.600 167.191 C 23.600 168.805,23.430 169.580,23.044 169.728 C 22.206 170.049,22.184 183.942,23.021 184.264 C 23.417 184.415,23.600 185.104,23.600 186.443 C 23.600 187.519,23.780 188.400,24.000 188.400 C 24.220 188.400,24.400 188.850,24.400 189.400 C 24.400 190.022,24.627 190.400,25.000 190.400 C 25.373 190.400,25.600 190.778,25.600 191.400 C 25.600 191.950,25.780 192.400,26.000 192.400 C 26.220 192.400,26.400 192.850,26.400 193.400 C 26.400 194.022,26.627 194.400,27.000 194.400 C 27.373 194.400,27.600 194.778,27.600 195.400 C 27.600 195.950,27.760 196.400,27.957 196.400 C 28.153 196.400,28.426 196.850,28.564 197.400 C 28.702 197.950,28.992 198.400,29.208 198.400 C 29.423 198.400,29.600 198.593,29.600 198.829 C 29.600 199.064,29.857 199.514,30.171 199.829 C 30.486 200.143,30.936 200.400,31.171 200.400 C 31.407 200.400,31.600 200.784,31.600 201.253 C 31.600 201.722,32.230 202.700,33.000 203.426 C 33.770 204.152,34.400 204.938,34.400 205.173 C 34.400 205.408,34.670 205.600,35.000 205.600 C 35.330 205.600,35.600 205.935,35.600 206.344 C 35.600 206.753,36.050 207.426,36.600 207.839 C 37.150 208.252,37.600 208.847,37.600 209.162 C 37.600 209.476,37.705 209.628,37.833 209.500 C 38.137 209.196,39.600 210.660,39.600 211.267 C 39.600 211.523,39.705 211.628,39.833 211.500 C 40.137 211.196,41.600 212.660,41.600 213.267 C 41.600 213.523,41.703 213.631,41.828 213.505 C 41.954 213.379,43.198 214.429,44.594 215.838 C 45.989 217.247,47.416 218.400,47.765 218.400 C 48.114 218.400,48.400 218.670,48.400 219.000 C 48.400 219.330,48.592 219.600,48.827 219.600 C 49.062 219.600,49.848 220.230,50.574 221.000 C 51.300 221.770,52.079 222.400,52.304 222.400 C 52.530 222.400,52.818 222.670,52.945 223.000 C 53.071 223.330,53.451 223.600,53.787 223.600 C 54.124 223.600,54.400 223.780,54.400 224.000 C 54.400 224.220,54.670 224.400,55.000 224.400 C 55.330 224.400,55.600 224.670,55.600 225.000 C 55.600 225.330,55.761 225.600,55.958 225.600 C 56.155 225.600,56.740 226.047,57.258 226.593 C 57.776 227.139,58.437 227.589,58.727 227.593 C 59.017 227.597,59.848 228.230,60.574 229.000 C 61.300 229.770,62.278 230.400,62.747 230.400 C 63.239 230.400,63.600 230.654,63.600 231.000 C 63.600 231.330,63.746 231.600,63.925 231.600 C 64.103 231.600,64.678 232.000,65.202 232.488 C 65.726 232.976,66.414 233.414,66.730 233.460 C 67.046 233.507,67.497 233.737,67.732 233.972 C 67.968 234.208,68.484 234.400,68.880 234.400 C 69.276 234.400,69.600 234.670,69.600 235.000 C 69.600 235.330,69.735 235.579,69.900 235.553 C 71.653 235.276,72.301 236.331,71.175 237.629 C 70.749 238.120,70.400 238.765,70.400 239.061 C 70.400 239.358,70.106 239.600,69.746 239.600 C 69.386 239.600,68.675 240.050,68.165 240.600 C 67.487 241.332,66.827 241.600,65.704 241.600 C 64.142 241.600,61.025 240.308,61.482 239.851 C 61.620 239.713,61.335 239.600,60.848 239.600 C 60.360 239.600,59.545 239.150,59.035 238.600 C 58.525 238.050,57.724 237.600,57.254 237.600 C 56.762 237.600,56.400 237.346,56.400 237.000 C 56.400 236.670,56.175 236.445,55.900 236.500 C 55.625 236.555,55.445 236.375,55.500 236.100 C 55.555 235.825,55.330 235.600,55.000 235.600 C 54.670 235.600,54.400 235.423,54.400 235.208 C 54.400 234.992,53.950 234.702,53.400 234.564 C 52.850 234.426,52.400 234.153,52.400 233.957 C 52.400 233.760,52.130 233.600,51.800 233.600 C 51.470 233.600,51.245 233.379,51.300 233.109 C 51.355 232.840,50.995 232.557,50.500 232.482 C 50.005 232.406,49.600 232.177,49.600 231.972 C 49.600 231.767,49.169 231.600,48.643 231.600 C 48.116 231.600,47.579 231.322,47.448 230.981 C 47.153 230.212,43.772 230.285,42.980 231.077 C 42.692 231.365,42.183 231.600,41.847 231.600 C 41.113 231.600,37.600 235.076,37.600 235.802 C 37.600 236.084,37.311 236.425,36.958 236.561 C 36.606 236.696,36.415 237.062,36.535 237.374 C 36.654 237.686,36.493 238.157,36.176 238.420 C 35.486 238.992,35.321 247.600,36.000 247.600 C 36.220 247.600,36.400 248.037,36.400 248.571 C 36.400 249.106,36.670 249.813,37.000 250.143 C 37.330 250.473,37.600 250.936,37.600 251.171 C 37.600 251.407,37.768 251.600,37.973 251.600 C 38.178 251.600,38.447 251.915,38.571 252.300 C 38.879 253.262,40.804 255.423,41.242 255.300 C 41.439 255.245,41.600 255.378,41.600 255.595 C 41.600 256.210,42.904 257.583,43.271 257.356 C 43.452 257.244,43.600 257.433,43.600 257.776 C 43.600 258.119,43.840 258.400,44.132 258.400 C 44.425 258.400,44.906 258.850,45.200 259.400 C 45.536 260.028,46.082 260.400,46.668 260.400 C 47.180 260.400,47.600 260.593,47.600 260.829 C 47.600 261.382,48.618 262.400,49.171 262.400 C 49.407 262.400,49.600 262.681,49.600 263.024 C 49.600 263.367,49.781 263.535,50.003 263.398 C 50.224 263.261,50.514 263.431,50.646 263.775 C 50.778 264.119,51.161 264.400,51.497 264.400 C 51.833 264.400,52.525 264.850,53.035 265.400 C 53.545 265.950,54.330 266.400,54.781 266.400 C 55.231 266.400,55.600 266.593,55.600 266.829 C 55.600 267.362,56.610 268.400,57.129 268.400 C 57.341 268.400,57.618 268.670,57.745 269.000 C 57.871 269.330,58.341 269.600,58.787 269.600 C 59.234 269.600,59.600 269.780,59.600 270.000 C 59.600 270.220,60.050 270.400,60.600 270.400 C 61.150 270.400,61.600 270.605,61.600 270.856 C 61.600 271.457,62.828 272.371,63.657 272.387 C 64.019 272.394,64.418 272.670,64.545 273.000 C 64.671 273.330,65.141 273.600,65.587 273.600 C 66.034 273.600,66.400 273.780,66.400 274.000 C 66.400 274.220,66.831 274.400,67.357 274.400 C 67.884 274.400,68.418 274.670,68.545 275.000 C 68.671 275.330,69.130 275.600,69.564 275.600 C 69.998 275.600,70.464 275.780,70.600 276.000 C 70.736 276.220,71.467 276.400,72.224 276.400 C 73.195 276.400,73.600 276.581,73.600 277.015 C 73.600 277.541,74.384 277.622,79.000 277.576 C 83.341 277.533,84.400 277.412,84.400 276.961 C 84.400 276.629,84.809 276.400,85.400 276.400 C 85.950 276.400,86.400 276.220,86.400 276.000 C 86.400 275.780,86.670 275.600,87.000 275.600 C 87.330 275.600,87.600 275.373,87.600 275.095 C 87.600 274.817,88.050 274.252,88.600 273.839 C 89.150 273.426,89.600 272.764,89.600 272.368 C 89.600 271.971,89.780 271.536,90.000 271.400 C 90.220 271.264,90.400 270.353,90.400 269.376 C 90.400 268.064,90.557 267.600,91.000 267.600 C 91.433 267.600,91.600 267.156,91.600 266.000 C 91.600 265.120,91.780 264.400,92.000 264.400 C 92.220 264.400,92.400 263.770,92.400 263.000 C 92.400 262.022,92.581 261.600,93.000 261.600 C 93.433 261.600,93.600 261.156,93.600 260.000 C 93.600 259.120,93.780 258.400,94.000 258.400 C 94.220 258.400,94.400 257.770,94.400 257.000 C 94.400 256.022,94.581 255.600,95.000 255.600 C 95.369 255.600,95.600 255.225,95.600 254.624 C 95.600 254.087,95.780 253.536,96.000 253.400 C 96.220 253.264,96.400 252.533,96.400 251.776 C 96.400 250.820,96.583 250.400,97.000 250.400 C 97.330 250.400,97.600 250.681,97.600 251.024 C 97.600 251.367,97.761 251.548,97.958 251.426 C 98.155 251.304,98.419 251.474,98.546 251.802 C 98.672 252.131,99.121 252.400,99.545 252.400 C 99.968 252.400,100.418 252.670,100.545 253.000 C 100.671 253.330,101.241 253.600,101.811 253.600 C 102.400 253.600,102.741 253.773,102.600 254.000 C 102.464 254.220,102.614 254.400,102.934 254.400 C 103.253 254.400,103.618 254.670,103.745 255.000 C 103.871 255.330,104.341 255.600,104.787 255.600 C 105.234 255.600,105.600 255.780,105.600 256.000 C 105.600 256.220,106.050 256.400,106.600 256.400 C 107.150 256.400,107.600 256.605,107.600 256.856 C 107.600 257.457,108.828 258.371,109.657 258.387 C 110.019 258.394,110.418 258.670,110.545 259.000 C 110.671 259.330,111.141 259.600,111.587 259.600 C 112.034 259.600,112.400 259.780,112.400 260.000 C 112.400 260.220,112.651 260.400,112.957 260.400 C 113.264 260.400,113.622 260.681,113.754 261.025 C 113.886 261.369,114.149 261.555,114.338 261.438 C 114.527 261.321,115.024 261.484,115.441 261.800 C 115.858 262.116,116.515 262.380,116.900 262.387 C 117.285 262.394,117.600 262.670,117.600 263.000 C 117.600 263.330,117.870 263.600,118.200 263.600 C 118.530 263.600,118.800 263.780,118.800 264.000 C 118.800 264.220,119.079 264.400,119.419 264.400 C 119.760 264.400,120.455 264.850,120.965 265.400 C 121.475 265.950,122.276 266.400,122.746 266.400 C 123.253 266.400,123.600 266.653,123.600 267.024 C 123.600 267.367,123.780 267.536,123.999 267.401 C 124.756 266.933,126.783 268.493,126.702 269.480 C 126.660 269.986,126.395 270.400,126.113 270.400 C 125.831 270.400,125.600 270.647,125.600 270.949 C 125.600 271.565,123.081 273.865,121.700 274.509 C 121.205 274.739,120.800 275.080,120.800 275.264 C 120.800 275.449,119.810 275.600,118.600 275.600 C 117.220 275.600,116.400 275.430,116.400 275.144 C 116.400 274.543,115.172 273.629,114.343 273.613 C 113.981 273.606,113.582 273.330,113.455 273.000 C 113.329 272.670,112.859 272.400,112.413 272.400 C 111.966 272.400,111.600 272.220,111.600 272.000 C 111.600 271.780,111.231 271.600,110.781 271.600 C 110.330 271.600,109.545 271.150,109.035 270.600 C 108.525 270.050,107.724 269.600,107.254 269.600 C 106.736 269.600,106.400 269.347,106.400 268.957 C 106.400 268.547,106.180 268.399,105.794 268.547 C 105.428 268.687,104.736 268.307,104.050 267.590 C 102.434 265.898,96.938 265.776,95.525 267.400 C 95.047 267.950,94.439 268.400,94.175 268.400 C 93.910 268.400,93.588 268.715,93.458 269.100 C 93.104 270.156,92.308 271.291,91.249 272.251 C 90.727 272.725,90.410 273.292,90.545 273.511 C 90.680 273.730,90.523 274.132,90.196 274.404 C 89.868 274.676,89.600 275.217,89.600 275.606 C 89.600 275.996,89.350 276.410,89.044 276.528 C 88.245 276.835,88.163 283.024,88.952 283.478 C 89.260 283.655,89.587 284.160,89.679 284.600 C 89.772 285.040,90.075 285.351,90.353 285.290 C 90.632 285.230,90.745 285.366,90.604 285.593 C 90.464 285.820,90.631 286.114,90.975 286.246 C 91.319 286.378,91.600 286.706,91.600 286.975 C 91.600 287.244,92.050 287.706,92.600 288.000 C 93.150 288.294,93.600 288.769,93.600 289.055 C 93.600 289.353,93.856 289.477,94.200 289.345 C 94.530 289.218,94.800 289.312,94.800 289.553 C 94.800 290.209,96.101 291.600,96.716 291.600 C 97.012 291.600,97.848 292.230,98.574 293.000 C 99.300 293.770,100.278 294.400,100.747 294.400 C 101.216 294.400,101.600 294.605,101.600 294.856 C 101.600 295.422,102.810 296.370,103.554 296.387 C 103.859 296.394,104.525 296.850,105.035 297.400 C 105.545 297.950,106.330 298.400,106.781 298.400 C 107.242 298.400,107.600 298.662,107.600 299.000 C 107.600 299.330,107.870 299.600,108.200 299.600 C 108.530 299.600,108.800 299.780,108.800 300.000 C 108.800 300.220,109.079 300.400,109.419 300.400 C 109.760 300.400,110.455 300.850,110.965 301.400 C 111.475 301.950,112.276 302.400,112.746 302.400 C 113.216 302.400,113.600 302.632,113.600 302.915 C 113.600 303.198,114.002 303.460,114.494 303.497 C 114.986 303.534,115.451 303.752,115.527 303.982 C 115.604 304.212,116.102 304.400,116.633 304.400 C 117.165 304.400,117.600 304.632,117.600 304.915 C 117.600 305.198,118.002 305.460,118.494 305.497 C 118.986 305.534,119.451 305.752,119.527 305.982 C 119.604 306.212,120.102 306.400,120.633 306.400 C 121.226 306.400,121.600 306.632,121.600 307.000 C 121.600 307.373,121.978 307.600,122.600 307.600 C 123.150 307.600,123.600 307.780,123.600 308.000 C 123.600 308.220,124.211 308.400,124.957 308.400 C 125.731 308.400,126.404 308.633,126.523 308.943 C 126.847 309.787,133.126 309.857,133.447 309.021 C 133.598 308.629,134.185 308.400,135.043 308.400 C 135.789 308.400,136.400 308.220,136.400 308.000 C 136.400 307.780,136.670 307.600,137.000 307.600 C 137.330 307.600,137.600 307.330,137.600 307.000 C 137.600 306.670,137.915 306.394,138.300 306.387 C 139.165 306.372,140.400 305.471,140.400 304.856 C 140.400 304.605,140.605 304.400,140.856 304.400 C 141.471 304.400,142.372 303.165,142.387 302.300 C 142.394 301.915,142.670 301.600,143.000 301.600 C 143.330 301.600,143.600 301.373,143.600 301.095 C 143.600 300.817,144.050 300.252,144.600 299.839 C 145.150 299.426,145.600 298.753,145.600 298.344 C 145.600 297.935,145.780 297.600,146.000 297.600 C 146.220 297.600,146.400 297.169,146.400 296.643 C 146.400 296.116,146.689 295.575,147.042 295.439 C 147.394 295.304,147.585 294.938,147.465 294.626 C 147.346 294.314,147.507 293.843,147.824 293.580 C 148.141 293.317,148.400 292.764,148.400 292.351 C 148.400 291.938,148.545 291.600,148.723 291.600 C 149.213 291.600,150.400 288.674,150.400 287.466 C 150.400 286.785,150.617 286.400,151.000 286.400 C 151.340 286.400,151.600 286.041,151.600 285.571 C 151.600 284.259,152.719 283.357,153.636 283.930 C 154.050 284.188,154.662 284.400,154.995 284.400 C 155.328 284.400,155.600 284.605,155.600 284.856 C 155.600 285.475,156.838 286.372,157.713 286.387 C 158.104 286.394,158.529 286.670,158.655 287.000 C 158.782 287.330,159.226 287.600,159.643 287.600 C 160.059 287.600,160.400 287.780,160.400 288.000 C 160.400 288.220,160.850 288.400,161.400 288.400 C 161.950 288.400,162.400 288.577,162.400 288.792 C 162.400 289.008,162.850 289.298,163.400 289.436 C 163.950 289.574,164.400 289.847,164.400 290.043 C 164.400 290.240,164.784 290.400,165.254 290.400 C 165.724 290.400,166.525 290.850,167.035 291.400 C 167.545 291.950,168.311 292.400,168.738 292.400 C 169.165 292.400,169.622 292.681,169.754 293.025 C 169.886 293.369,170.161 293.548,170.365 293.422 C 170.569 293.296,171.007 293.464,171.339 293.796 C 171.671 294.128,172.316 294.400,172.771 294.400 C 173.241 294.400,173.600 294.660,173.600 295.000 C 173.600 295.373,173.978 295.600,174.600 295.600 C 175.150 295.600,175.600 295.780,175.600 296.000 C 175.600 296.220,176.050 296.400,176.600 296.400 C 177.222 296.400,177.600 296.627,177.600 297.000 C 177.600 297.330,177.870 297.600,178.200 297.600 C 178.530 297.600,178.800 297.780,178.800 298.000 C 178.800 298.220,179.166 298.400,179.613 298.400 C 180.059 298.400,180.529 298.670,180.655 299.000 C 180.782 299.330,181.316 299.600,181.843 299.600 C 182.369 299.600,182.800 299.780,182.800 300.000 C 182.800 300.220,183.166 300.400,183.613 300.400 C 184.059 300.400,184.529 300.670,184.655 301.000 C 184.782 301.330,185.226 301.600,185.643 301.600 C 186.059 301.600,186.400 301.780,186.400 302.000 C 186.400 302.220,186.670 302.400,187.000 302.400 C 187.777 302.400,187.766 303.091,186.977 303.880 C 186.634 304.223,186.443 304.735,186.552 305.018 C 186.660 305.302,186.491 305.633,186.175 305.754 C 185.859 305.876,185.600 306.341,185.600 306.787 C 185.600 307.243,185.336 307.600,185.000 307.600 C 184.670 307.600,184.400 307.780,184.400 308.000 C 184.400 308.220,183.950 308.400,183.400 308.400 C 182.850 308.400,182.400 308.220,182.400 308.000 C 182.400 307.780,181.950 307.600,181.400 307.600 C 180.850 307.600,180.400 307.423,180.400 307.208 C 180.400 306.992,179.950 306.702,179.400 306.564 C 178.850 306.426,178.400 306.153,178.400 305.957 C 178.400 305.760,177.789 305.600,177.043 305.600 C 176.166 305.600,175.598 305.373,175.439 304.958 C 175.304 304.606,174.938 304.415,174.626 304.535 C 174.314 304.654,173.843 304.493,173.580 304.176 C 173.317 303.859,172.513 303.600,171.794 303.600 C 171.050 303.600,170.394 303.362,170.274 303.048 C 169.944 302.188,158.877 302.133,158.549 302.989 C 158.420 303.325,157.961 303.600,157.529 303.600 C 157.096 303.600,156.492 303.825,156.185 304.100 C 155.879 304.375,155.348 304.836,155.005 305.124 C 154.663 305.412,154.487 305.817,154.615 306.024 C 154.743 306.231,154.567 306.400,154.224 306.400 C 153.692 306.400,153.600 307.138,153.600 311.400 C 153.600 314.467,153.755 316.400,154.000 316.400 C 154.220 316.400,154.400 316.777,154.400 317.238 C 154.400 317.699,154.648 318.554,154.951 319.138 C 155.254 319.722,155.735 320.695,156.019 321.300 C 156.303 321.905,156.775 322.400,157.068 322.400 C 157.360 322.400,157.600 322.670,157.600 323.000 C 157.600 323.330,157.768 323.600,157.973 323.600 C 158.178 323.600,158.447 323.915,158.571 324.300 C 158.879 325.262,160.804 327.423,161.242 327.300 C 161.439 327.245,161.600 327.478,161.600 327.818 C 161.600 328.157,161.825 328.406,162.100 328.370 C 163.072 328.244,163.600 328.405,163.600 328.829 C 163.600 329.382,164.618 330.400,165.171 330.400 C 165.407 330.400,165.600 330.664,165.600 330.987 C 165.600 331.330,165.836 331.484,166.168 331.357 C 166.487 331.234,167.249 331.677,167.911 332.370 C 168.558 333.046,169.382 333.600,169.743 333.600 C 170.104 333.600,170.400 333.780,170.400 334.000 C 170.400 334.220,170.651 334.400,170.957 334.400 C 171.264 334.400,171.618 334.670,171.745 335.000 C 171.871 335.330,172.341 335.600,172.787 335.600 C 173.234 335.600,173.600 335.780,173.600 336.000 C 173.600 336.220,174.230 336.400,175.000 336.400 C 175.770 336.400,176.400 336.545,176.400 336.723 C 176.400 337.205,179.317 338.400,180.492 338.400 C 181.054 338.400,181.618 338.670,181.745 339.000 C 181.933 339.491,182.923 339.600,187.187 339.600 C 191.554 339.600,192.400 339.503,192.400 339.000 C 192.400 338.583,192.820 338.400,193.776 338.400 C 194.533 338.400,195.264 338.220,195.400 338.000 C 195.536 337.780,195.915 337.600,196.243 337.600 C 196.570 337.600,197.255 337.150,197.765 336.600 C 198.275 336.050,198.941 335.597,199.246 335.593 C 199.551 335.589,200.224 335.139,200.742 334.593 C 201.724 333.558,202.400 333.316,202.400 334.000 C 202.400 334.220,202.220 334.400,202.000 334.400 C 201.780 334.400,201.600 334.589,201.600 334.819 C 201.600 335.050,201.150 335.655,200.600 336.165 C 199.957 336.760,199.600 337.525,199.600 338.303 C 199.600 339.011,199.351 339.610,199.000 339.745 C 197.631 340.270,198.507 343.015,200.691 345.046 C 201.191 345.511,201.600 346.287,201.600 346.769 C 201.600 347.253,201.780 347.536,202.000 347.400 C 202.220 347.264,202.400 347.433,202.400 347.776 C 202.400 348.119,202.670 348.400,203.000 348.400 C 203.330 348.400,203.600 348.664,203.600 348.987 C 203.600 349.345,203.835 349.485,204.200 349.345 C 204.580 349.199,204.800 349.350,204.800 349.757 C 204.800 350.121,205.128 350.400,205.557 350.400 C 205.974 350.400,206.422 350.681,206.554 351.025 C 206.686 351.369,206.976 351.539,207.197 351.402 C 207.419 351.265,207.600 351.433,207.600 351.776 C 207.600 352.167,207.957 352.400,208.557 352.400 C 209.084 352.400,209.618 352.670,209.745 353.000 C 209.871 353.330,210.307 353.600,210.712 353.600 C 211.117 353.600,211.883 354.005,212.412 354.500 C 213.439 355.459,215.049 356.400,215.665 356.400 C 215.870 356.400,216.455 356.850,216.965 357.400 C 217.475 357.950,218.257 358.400,218.703 358.400 C 219.149 358.400,219.622 358.681,219.754 359.025 C 219.886 359.369,220.161 359.548,220.365 359.422 C 220.569 359.296,221.007 359.464,221.339 359.796 C 221.671 360.128,222.316 360.400,222.771 360.400 C 223.227 360.400,223.600 360.632,223.600 360.915 C 223.600 361.198,224.002 361.460,224.494 361.497 C 224.986 361.534,225.451 361.752,225.527 361.982 C 225.604 362.212,226.102 362.400,226.633 362.400 C 227.165 362.400,227.600 362.632,227.600 362.915 C 227.600 363.198,228.002 363.460,228.494 363.497 C 228.986 363.534,229.451 363.752,229.527 363.982 C 229.604 364.212,230.102 364.400,230.633 364.400 C 231.226 364.400,231.600 364.632,231.600 365.000 C 231.600 365.373,231.978 365.600,232.600 365.600 C 233.150 365.600,233.600 365.780,233.600 366.000 C 233.600 366.220,234.211 366.400,234.957 366.400 C 235.704 366.400,236.403 366.630,236.511 366.911 C 236.619 367.193,237.313 367.468,238.053 367.524 C 238.794 367.580,239.460 367.800,239.533 368.013 C 239.712 368.533,249.078 368.521,249.400 368.000 C 249.536 367.780,250.182 367.600,250.836 367.600 C 251.524 367.600,252.122 367.347,252.255 367.000 C 252.382 366.670,252.736 366.400,253.043 366.400 C 253.349 366.400,253.600 366.220,253.600 366.000 C 253.600 365.780,253.865 365.600,254.189 365.600 C 254.939 365.600,258.400 362.164,258.400 361.420 C 258.400 360.906,260.606 358.400,261.059 358.400 C 261.415 358.400,262.238 357.417,262.532 356.643 C 262.690 356.226,262.926 355.993,263.057 356.124 C 263.353 356.420,264.400 355.411,264.400 354.829 C 264.400 354.593,264.605 354.400,264.856 354.400 C 265.471 354.400,266.372 353.165,266.387 352.300 C 266.394 351.915,266.670 351.600,267.000 351.600 C 267.330 351.600,267.600 351.416,267.600 351.190 C 267.600 350.965,268.680 349.723,270.000 348.432 C 271.429 347.034,272.400 345.743,272.400 345.242 C 272.400 344.779,272.593 344.400,272.829 344.400 C 273.382 344.400,274.400 343.382,274.400 342.829 C 274.400 342.593,274.670 342.400,275.000 342.400 C 275.340 342.400,275.600 342.041,275.600 341.571 C 275.600 340.744,276.450 339.603,277.071 339.597 C 277.453 339.593,278.400 337.685,278.400 336.920 C 278.400 336.634,278.593 336.400,278.829 336.400 C 279.534 336.400,280.400 335.314,280.400 334.429 C 280.400 333.973,280.627 333.600,280.905 333.600 C 281.183 333.600,281.588 333.195,281.805 332.700 C 282.219 331.756,284.800 331.131,284.800 331.975 C 284.800 332.538,297.053 332.562,297.400 332.000 C 297.536 331.780,298.182 331.600,298.836 331.600 C 299.524 331.600,300.122 331.347,300.255 331.000 C 300.405 330.609,301.028 330.400,302.043 330.400 C 302.899 330.400,303.600 330.220,303.600 330.000 C 303.600 329.780,303.966 329.600,304.413 329.600 C 304.859 329.600,305.329 329.330,305.455 329.000 C 305.582 328.670,305.981 328.394,306.343 328.387 C 307.172 328.371,308.400 327.457,308.400 326.856 C 308.400 326.605,308.670 326.400,309.000 326.400 C 309.330 326.400,309.600 326.220,309.600 326.000 C 309.600 325.780,309.866 325.600,310.191 325.600 C 311.059 325.600,314.970 321.605,315.787 319.884 C 316.174 319.068,316.664 318.400,316.874 318.400 C 317.540 318.400,318.400 317.289,318.400 316.429 C 318.400 315.973,318.625 315.599,318.900 315.597 C 319.416 315.594,320.400 313.839,320.400 312.920 C 320.400 312.634,320.605 312.400,320.856 312.400 C 321.457 312.400,322.371 311.172,322.387 310.343 C 322.394 309.981,322.670 309.582,323.000 309.455 C 323.330 309.329,323.600 308.859,323.600 308.413 C 323.600 307.966,323.780 307.600,324.000 307.600 C 324.220 307.600,324.400 307.169,324.400 306.643 C 324.400 306.116,324.670 305.582,325.000 305.455 C 325.330 305.329,325.600 304.870,325.600 304.436 C 325.600 304.002,325.780 303.536,326.000 303.400 C 326.220 303.264,326.400 302.553,326.400 301.819 C 326.400 301.003,326.633 300.396,327.000 300.255 C 327.330 300.129,327.600 299.659,327.600 299.213 C 327.600 298.766,327.780 298.400,328.000 298.400 C 328.220 298.400,328.400 297.969,328.400 297.443 C 328.400 296.916,328.670 296.382,329.000 296.255 C 329.351 296.121,329.600 295.521,329.600 294.813 C 329.600 294.146,329.780 293.600,330.000 293.600 C 330.220 293.600,330.400 292.899,330.400 292.043 C 330.400 291.028,330.609 290.405,331.000 290.255 C 331.338 290.126,331.600 289.530,331.600 288.893 C 331.600 288.270,331.767 287.589,331.971 287.380 C 332.176 287.171,332.401 286.370,332.471 285.600 C 332.542 284.830,332.798 284.236,333.040 284.280 C 333.282 284.324,333.495 283.804,333.515 283.125 C 333.534 282.446,333.741 281.699,333.975 281.465 C 334.209 281.231,334.400 280.343,334.400 279.491 C 334.400 278.640,334.670 277.673,335.000 277.343 C 335.384 276.959,335.600 275.971,335.600 274.595 C 335.600 273.414,335.780 272.336,336.000 272.200 C 336.220 272.064,336.400 270.993,336.400 269.819 C 336.400 268.292,336.570 267.620,337.000 267.455 C 337.455 267.281,337.600 266.544,337.600 264.413 C 337.600 262.804,337.771 261.600,338.000 261.600 C 338.220 261.600,338.400 260.880,338.400 260.000 C 338.400 259.120,338.593 258.400,338.829 258.400 C 339.382 258.400,340.400 257.382,340.400 256.829 C 340.400 256.593,340.715 256.394,341.100 256.387 C 341.485 256.380,342.132 256.123,342.539 255.815 C 342.945 255.507,343.530 255.352,343.839 255.470 C 344.177 255.600,344.400 255.430,344.400 255.043 C 344.400 254.689,344.670 254.400,345.000 254.400 C 345.330 254.400,345.600 254.220,345.600 254.000 C 345.600 253.780,345.966 253.600,346.413 253.600 C 346.859 253.600,347.329 253.330,347.455 253.000 C 347.582 252.670,347.981 252.394,348.343 252.387 C 349.172 252.371,350.400 251.457,350.400 250.856 C 350.400 250.605,350.850 250.400,351.400 250.400 C 351.950 250.400,352.400 250.220,352.400 250.000 C 352.400 249.780,352.670 249.600,353.000 249.600 C 353.330 249.600,353.600 249.330,353.600 249.000 C 353.600 248.670,353.947 248.400,354.371 248.400 C 354.795 248.400,355.496 247.950,355.929 247.400 C 356.361 246.850,357.028 246.400,357.410 246.400 C 357.793 246.400,358.700 245.770,359.426 245.000 C 360.152 244.230,361.118 243.600,361.573 243.600 C 362.041 243.600,362.400 243.340,362.400 243.000 C 362.400 242.670,362.670 242.400,363.000 242.400 C 363.330 242.400,363.600 242.220,363.600 242.000 C 363.600 241.780,363.879 241.600,364.219 241.600 C 364.560 241.600,365.255 241.150,365.765 240.600 C 366.275 240.050,366.896 239.600,367.146 239.600 C 367.396 239.600,367.600 239.407,367.600 239.171 C 367.600 238.539,368.651 237.600,369.357 237.600 C 369.695 237.600,370.173 237.225,370.418 236.766 C 370.664 236.307,370.962 236.028,371.080 236.147 C 371.359 236.426,372.400 235.386,372.400 234.829 C 372.400 234.593,372.593 234.400,372.829 234.400 C 373.382 234.400,374.400 233.382,374.400 232.829 C 374.400 232.593,374.593 232.400,374.829 232.400 C 375.389 232.400,376.172 231.593,376.532 230.643 C 376.690 230.226,376.932 229.998,377.070 230.137 C 377.417 230.484,378.372 229.154,378.387 228.300 C 378.394 227.915,378.626 227.600,378.902 227.600 C 379.357 227.600,379.877 226.677,380.550 224.675 C 380.685 224.276,380.976 224.061,381.197 224.198 C 381.439 224.348,381.600 223.877,381.600 223.024 C 381.600 222.241,381.780 221.600,382.000 221.600 C 382.220 221.600,382.400 220.700,382.400 219.600 C 382.400 218.500,382.220 217.600,382.000 217.600 C 381.780 217.600,381.600 216.988,381.600 216.239 C 381.600 215.142,381.349 214.718,380.300 214.046 C 379.585 213.588,379.169 213.210,379.375 213.207 C 379.582 213.203,379.364 212.840,378.892 212.400 C 377.930 211.503,367.816 211.151,367.532 212.004 C 367.456 212.231,365.747 212.444,363.654 212.488 C 361.027 212.544,359.851 212.722,359.712 213.084 C 359.573 213.448,358.535 213.600,356.191 213.600 C 354.301 213.600,352.808 213.775,352.732 214.005 C 352.657 214.229,351.203 214.425,349.490 214.443 C 347.389 214.464,346.200 214.657,345.820 215.037 C 345.490 215.367,344.450 215.600,343.309 215.600 C 342.237 215.600,341.189 215.763,340.980 215.961 C 340.771 216.160,339.348 216.405,337.819 216.505 C 336.246 216.609,334.971 216.886,334.885 217.144 C 334.795 217.416,333.789 217.600,332.390 217.600 C 331.102 217.600,329.936 217.780,329.800 218.000 C 329.664 218.220,328.928 218.400,328.164 218.400 C 327.298 218.400,326.688 218.626,326.545 219.000 C 326.403 219.370,325.795 219.600,324.957 219.600 C 324.017 219.600,323.600 219.415,323.600 219.000 C 323.600 218.670,323.330 218.400,323.000 218.400 C 322.670 218.400,322.400 218.132,322.400 217.805 C 322.400 216.935,321.135 215.600,320.311 215.600 C 319.920 215.600,319.600 215.330,319.600 215.000 C 319.600 214.670,319.427 214.400,319.215 214.400 C 319.004 214.400,317.997 213.590,316.979 212.600 C 315.960 211.610,314.867 210.800,314.551 210.800 C 314.234 210.800,313.871 210.530,313.745 210.200 C 313.618 209.870,313.283 209.600,313.000 209.600 C 312.717 209.600,312.378 209.319,312.246 208.975 C 312.114 208.631,311.819 208.465,311.591 208.606 C 311.363 208.747,310.545 208.308,309.774 207.631 C 309.003 206.954,308.098 206.400,307.762 206.400 C 307.427 206.400,307.264 206.220,307.400 206.000 C 307.536 205.780,307.268 205.600,306.805 205.600 C 306.341 205.600,305.545 205.150,305.035 204.600 C 304.525 204.050,303.724 203.600,303.254 203.600 C 302.736 203.600,302.400 203.347,302.400 202.957 C 302.400 202.567,302.177 202.400,301.833 202.532 C 301.521 202.652,300.756 202.310,300.133 201.772 C 299.510 201.235,298.685 200.694,298.300 200.571 C 297.915 200.447,297.600 200.178,297.600 199.973 C 297.600 199.768,297.231 199.600,296.781 199.600 C 296.330 199.600,295.545 199.150,295.035 198.600 C 294.525 198.050,293.724 197.600,293.254 197.600 C 292.736 197.600,292.400 197.347,292.400 196.957 C 292.400 196.567,292.177 196.400,291.833 196.532 C 291.521 196.652,290.756 196.310,290.133 195.772 C 289.510 195.235,288.685 194.694,288.300 194.571 C 287.915 194.447,287.600 194.178,287.600 193.973 C 287.600 193.768,287.169 193.600,286.643 193.600 C 286.116 193.600,285.582 193.330,285.455 193.000 C 285.329 192.670,284.859 192.400,284.413 192.400 C 283.966 192.400,283.600 192.220,283.600 192.000 C 283.600 191.780,283.330 191.600,283.000 191.600 C 282.670 191.600,282.400 191.330,282.400 191.000 C 282.400 190.627,282.022 190.400,281.400 190.400 C 280.850 190.400,280.400 190.220,280.400 190.000 C 280.400 189.780,279.950 189.600,279.400 189.600 C 278.850 189.600,278.400 189.395,278.400 189.144 C 278.400 188.472,277.132 187.627,276.100 187.613 C 275.598 187.606,275.244 187.379,275.300 187.100 C 275.356 186.818,274.917 186.544,274.293 186.473 C 273.684 186.403,273.290 186.178,273.417 185.973 C 273.544 185.768,273.367 185.600,273.024 185.600 C 272.681 185.600,272.400 185.423,272.400 185.208 C 272.400 184.992,271.950 184.702,271.400 184.564 C 270.850 184.426,270.400 184.153,270.400 183.957 C 270.400 183.760,269.950 183.600,269.400 183.600 C 268.778 183.600,268.400 183.373,268.400 183.000 C 268.400 182.627,268.022 182.400,267.400 182.400 C 266.850 182.400,266.400 182.248,266.400 182.063 C 266.400 181.878,265.770 181.387,265.000 180.972 C 264.230 180.557,263.600 180.079,263.600 179.909 C 263.600 179.739,263.231 179.600,262.781 179.600 C 262.330 179.600,261.545 179.150,261.035 178.600 C 260.525 178.050,259.724 177.600,259.254 177.600 C 258.784 177.600,258.400 177.423,258.400 177.208 C 258.400 176.992,257.950 176.702,257.400 176.564 C 256.850 176.426,256.400 176.153,256.400 175.957 C 256.400 175.760,255.950 175.600,255.400 175.600 C 254.850 175.600,254.400 175.395,254.400 175.144 C 254.400 174.543,253.172 173.629,252.343 173.613 C 251.981 173.606,251.582 173.330,251.455 173.000 C 251.329 172.670,250.859 172.400,250.413 172.400 C 249.966 172.400,249.600 172.220,249.600 172.000 C 249.600 171.780,249.231 171.600,248.781 171.600 C 248.330 171.600,247.545 171.150,247.035 170.600 C 246.525 170.050,245.743 169.600,245.297 169.600 C 244.851 169.600,244.378 169.319,244.246 168.975 C 244.114 168.631,243.816 168.467,243.584 168.610 C 243.352 168.753,242.696 168.405,242.126 167.835 C 241.156 166.865,240.723 166.658,240.172 166.900 C 240.046 166.955,239.767 166.685,239.552 166.300 C 239.337 165.915,238.828 165.600,238.423 165.600 C 238.017 165.600,237.582 165.330,237.455 165.000 C 237.329 164.670,236.859 164.400,236.413 164.400 C 235.966 164.400,235.600 164.220,235.600 164.000 C 235.600 163.780,235.407 163.600,235.171 163.600 C 234.936 163.600,234.471 163.328,234.139 162.996 C 233.807 162.664,233.369 162.496,233.165 162.622 C 232.961 162.748,232.686 162.569,232.554 162.225 C 232.422 161.881,231.884 161.600,231.357 161.600 C 230.773 161.600,230.400 161.366,230.400 161.000 C 230.400 160.627,230.022 160.400,229.400 160.400 C 228.850 160.400,228.400 160.248,228.400 160.063 C 228.400 159.878,227.770 159.387,227.000 158.972 C 226.230 158.557,225.600 158.079,225.600 157.909 C 225.600 157.739,225.231 157.600,224.781 157.600 C 224.330 157.600,223.545 157.150,223.035 156.600 C 222.525 156.050,221.743 155.600,221.297 155.600 C 220.851 155.600,220.378 155.319,220.246 154.975 C 220.114 154.631,219.816 154.467,219.584 154.610 C 219.352 154.753,218.696 154.405,218.126 153.835 C 217.557 153.266,216.935 152.778,216.745 152.750 C 216.555 152.723,216.175 152.669,215.900 152.632 C 215.625 152.594,215.445 152.347,215.500 152.082 C 215.556 151.812,215.178 151.600,214.643 151.600 C 214.116 151.600,213.582 151.330,213.455 151.000 C 213.329 150.670,212.859 150.400,212.413 150.400 C 211.966 150.400,211.600 150.220,211.600 150.000 C 211.600 149.780,211.349 149.600,211.043 149.600 C 210.736 149.600,210.382 149.330,210.255 149.000 C 210.129 148.670,209.659 148.400,209.213 148.400 C 208.766 148.400,208.400 148.220,208.400 148.000 C 208.400 147.780,208.155 147.600,207.855 147.600 C 207.490 147.600,207.374 147.271,207.502 146.600 C 207.607 146.050,207.852 145.600,208.047 145.600 C 208.241 145.600,208.400 145.349,208.400 145.043 C 208.400 144.736,208.670 144.382,209.000 144.255 C 209.330 144.129,209.600 143.670,209.600 143.236 C 209.600 142.802,209.780 142.336,210.000 142.200 C 210.220 142.064,210.400 141.603,210.400 141.176 C 210.400 140.749,210.605 140.400,210.856 140.400 C 211.457 140.400,212.371 139.172,212.387 138.343 C 212.394 137.981,212.670 137.582,213.000 137.455 C 213.330 137.329,213.600 136.859,213.600 136.413 C 213.600 135.966,213.780 135.600,214.000 135.600 C 214.220 135.600,214.400 135.349,214.400 135.043 C 214.400 134.736,214.670 134.382,215.000 134.255 C 215.330 134.129,215.600 133.670,215.600 133.236 C 215.600 132.802,215.780 132.336,216.000 132.200 C 216.220 132.064,216.400 131.603,216.400 131.176 C 216.400 130.749,216.670 130.400,217.000 130.400 C 217.338 130.400,217.600 130.042,217.600 129.582 C 217.600 129.132,218.050 128.314,218.600 127.764 C 219.150 127.214,219.600 126.502,219.600 126.182 C 219.600 125.862,219.780 125.600,220.000 125.600 C 220.220 125.600,220.400 125.169,220.400 124.643 C 220.400 124.116,220.670 123.582,221.000 123.455 C 221.330 123.329,221.600 122.859,221.600 122.413 C 221.600 121.966,221.780 121.600,222.000 121.600 C 222.220 121.600,222.400 121.169,222.400 120.643 C 222.400 120.116,222.670 119.582,223.000 119.455 C 223.330 119.329,223.600 118.859,223.600 118.413 C 223.600 117.966,223.780 117.600,224.000 117.600 C 224.220 117.600,224.400 117.169,224.400 116.643 C 224.400 116.116,224.670 115.582,225.000 115.455 C 225.330 115.329,225.600 114.859,225.600 114.413 C 225.600 113.966,225.780 113.600,226.000 113.600 C 226.220 113.600,226.400 113.169,226.400 112.643 C 226.400 112.116,226.670 111.582,227.000 111.455 C 227.330 111.329,227.600 110.859,227.600 110.413 C 227.600 109.966,227.780 109.600,228.000 109.600 C 228.220 109.600,228.400 109.165,228.400 108.633 C 228.400 108.102,228.589 107.604,228.820 107.527 C 229.051 107.450,229.336 106.760,229.453 105.993 C 229.570 105.227,229.831 104.429,230.033 104.220 C 230.235 104.011,230.400 103.516,230.400 103.120 C 230.400 102.724,230.643 102.400,230.939 102.400 C 231.270 102.400,231.492 101.912,231.514 101.139 C 231.534 100.446,231.728 99.768,231.945 99.634 C 232.163 99.500,232.399 98.672,232.470 97.795 C 232.553 96.783,232.783 96.237,233.100 96.300 C 233.464 96.373,233.600 95.591,233.600 93.424 C 233.600 91.787,233.780 90.336,234.000 90.200 C 234.220 90.064,234.400 88.523,234.400 86.776 C 234.400 84.925,234.233 83.600,234.000 83.600 C 233.778 83.600,233.600 82.529,233.600 81.187 C 233.600 79.412,233.442 78.714,233.000 78.545 C 232.630 78.403,232.400 77.795,232.400 76.957 C 232.400 76.211,232.220 75.600,232.000 75.600 C 231.780 75.600,231.600 75.234,231.600 74.787 C 231.600 74.341,231.330 73.871,231.000 73.745 C 230.670 73.618,230.400 73.149,230.400 72.703 C 230.400 72.257,229.950 71.475,229.400 70.965 C 228.850 70.455,228.400 69.760,228.400 69.419 C 228.400 69.079,228.111 68.800,227.757 68.800 C 227.350 68.800,227.199 68.580,227.345 68.200 C 227.485 67.835,227.345 67.600,226.987 67.600 C 226.664 67.600,226.400 67.407,226.400 67.171 C 226.400 66.650,225.395 65.600,224.896 65.600 C 224.698 65.600,224.294 65.150,224.000 64.600 C 223.706 64.050,223.225 63.600,222.932 63.600 C 222.640 63.600,222.400 63.407,222.400 63.171 C 222.400 62.618,221.382 61.600,220.829 61.600 C 220.593 61.600,220.400 61.407,220.400 61.171 C 220.400 60.479,219.321 59.600,218.471 59.600 C 218.039 59.600,217.579 59.322,217.448 58.981 C 217.318 58.641,216.983 58.392,216.705 58.429 C 215.684 58.562,215.159 58.390,215.400 58.000 C 215.838 57.291,206.194 57.484,205.604 58.196 C 205.332 58.523,204.964 58.702,204.787 58.592 C 204.610 58.482,204.182 58.675,203.836 59.021 C 203.491 59.366,202.859 59.675,202.432 59.708 C 202.005 59.740,201.744 59.909,201.851 60.083 C 201.959 60.257,201.678 60.400,201.227 60.400 C 200.775 60.400,199.929 60.935,199.347 61.589 C 198.764 62.243,198.133 62.682,197.944 62.565 C 197.755 62.448,197.600 62.543,197.600 62.776 C 197.600 63.352,196.125 64.791,195.833 64.500 C 195.705 64.372,195.600 64.567,195.600 64.933 C 195.600 65.300,195.330 65.600,195.000 65.600 C 194.670 65.600,194.445 65.825,194.500 66.100 C 194.555 66.375,194.375 66.555,194.100 66.500 C 193.825 66.445,193.600 66.670,193.600 67.000 C 193.600 67.330,193.330 67.600,193.000 67.600 C 192.670 67.600,192.445 67.747,192.500 67.927 C 192.555 68.107,191.925 68.894,191.100 69.675 C 190.275 70.456,189.600 71.478,189.600 71.947 C 189.600 72.439,189.346 72.800,189.000 72.800 C 188.670 72.800,188.445 73.025,188.500 73.300 C 188.555 73.575,188.362 73.751,188.070 73.690 C 187.779 73.630,187.648 73.754,187.779 73.966 C 187.910 74.177,187.784 74.497,187.499 74.675 C 187.214 74.854,186.637 75.540,186.217 76.200 C 185.797 76.860,185.216 77.638,184.927 77.929 C 184.637 78.219,184.400 78.714,184.400 79.029 C 184.400 79.343,184.220 79.600,184.000 79.600 C 183.780 79.600,183.600 79.870,183.600 80.200 C 183.600 80.530,183.465 80.801,183.300 80.803 C 182.910 80.806,181.600 83.108,181.600 83.790 C 181.600 84.078,181.311 84.425,180.958 84.561 C 180.584 84.704,180.415 85.061,180.552 85.419 C 180.685 85.765,180.529 86.129,180.193 86.258 C 179.867 86.383,179.600 86.736,179.600 87.043 C 179.600 87.349,179.423 87.600,179.208 87.600 C 178.992 87.600,178.702 88.050,178.564 88.600 C 178.426 89.150,178.153 89.600,177.957 89.600 C 177.760 89.600,177.600 90.031,177.600 90.557 C 177.600 91.084,177.330 91.618,177.000 91.745 C 176.670 91.871,176.400 92.341,176.400 92.787 C 176.400 93.234,176.220 93.600,176.000 93.600 C 175.780 93.600,175.600 94.031,175.600 94.557 C 175.600 95.084,175.330 95.618,175.000 95.745 C 174.670 95.871,174.400 96.341,174.400 96.787 C 174.400 97.234,174.220 97.600,174.000 97.600 C 173.780 97.600,173.600 98.050,173.600 98.600 C 173.600 99.222,173.373 99.600,173.000 99.600 C 172.627 99.600,172.400 99.978,172.400 100.600 C 172.400 101.150,172.220 101.600,172.000 101.600 C 171.780 101.600,171.600 102.050,171.600 102.600 C 171.600 103.222,171.373 103.600,171.000 103.600 C 170.627 103.600,170.400 103.978,170.400 104.600 C 170.400 105.150,170.220 105.600,170.000 105.600 C 169.780 105.600,169.600 106.031,169.600 106.557 C 169.600 107.084,169.330 107.618,169.000 107.745 C 168.670 107.871,168.400 108.341,168.400 108.787 C 168.400 109.234,168.220 109.600,168.000 109.600 C 167.780 109.600,167.600 110.320,167.600 111.200 C 167.600 112.172,167.424 112.761,167.153 112.700 C 166.907 112.645,166.650 112.939,166.581 113.352 C 166.512 113.766,166.263 114.297,166.028 114.532 C 165.792 114.768,165.600 115.532,165.600 116.231 C 165.600 116.930,165.322 117.733,164.982 118.015 C 164.642 118.297,164.449 118.752,164.554 119.025 C 164.659 119.299,164.493 119.855,164.185 120.261 C 163.877 120.668,163.620 121.315,163.613 121.700 C 163.600 122.420,162.400 122.717,162.400 122.000 C 162.400 121.780,161.969 121.600,161.443 121.600 C 160.916 121.600,160.382 121.330,160.255 121.000 C 160.129 120.670,159.659 120.400,159.213 120.400 C 158.766 120.400,158.400 120.220,158.400 120.000 C 158.400 119.780,157.789 119.600,157.043 119.600 C 156.205 119.600,155.597 119.370,155.455 119.000 C 155.311 118.623,154.699 118.400,153.813 118.400 C 153.036 118.400,152.400 118.220,152.400 118.000 C 152.400 117.780,151.969 117.600,151.443 117.600 C 150.916 117.600,150.382 117.330,150.255 117.000 C 150.121 116.649,149.521 116.400,148.813 116.400 C 147.853 116.400,147.600 116.227,147.600 115.571 C 147.600 114.686,148.466 113.600,149.171 113.600 C 149.407 113.600,149.600 113.330,149.600 113.000 C 149.600 112.670,149.780 112.400,150.000 112.400 C 150.220 112.400,150.400 111.980,150.400 111.468 C 150.400 110.882,150.772 110.336,151.400 110.000 C 152.028 109.664,152.400 109.118,152.400 108.532 C 152.400 107.970,152.638 107.600,153.000 107.600 C 153.330 107.600,153.600 107.330,153.600 107.000 C 153.600 106.670,153.780 106.400,154.000 106.400 C 154.220 106.400,154.400 105.950,154.400 105.400 C 154.400 104.778,154.627 104.400,155.000 104.400 C 155.338 104.400,155.600 104.042,155.600 103.582 C 155.600 103.132,156.050 102.314,156.600 101.764 C 157.150 101.214,157.600 100.502,157.600 100.182 C 157.600 99.862,157.780 99.600,158.000 99.600 C 158.220 99.600,158.400 99.169,158.400 98.643 C 158.400 98.116,158.670 97.582,159.000 97.455 C 159.330 97.329,159.600 96.859,159.600 96.413 C 159.600 95.966,159.780 95.600,160.000 95.600 C 160.220 95.600,160.400 95.169,160.400 94.643 C 160.400 94.116,160.670 93.582,161.000 93.455 C 161.330 93.329,161.600 92.870,161.600 92.436 C 161.600 92.002,161.780 91.536,162.000 91.400 C 162.220 91.264,162.400 90.818,162.400 90.410 C 162.400 90.001,162.589 89.604,162.820 89.527 C 163.051 89.450,163.338 88.760,163.456 87.993 C 163.575 87.227,163.836 86.540,164.036 86.467 C 164.236 86.393,164.400 85.718,164.400 84.967 C 164.400 84.019,164.584 83.600,165.000 83.600 C 165.432 83.600,165.600 83.158,165.600 82.024 C 165.600 81.157,165.780 80.336,166.000 80.200 C 166.220 80.064,166.400 79.501,166.400 78.948 C 166.400 78.395,166.670 77.673,167.000 77.343 C 167.384 76.959,167.600 75.971,167.600 74.595 C 167.600 73.414,167.780 72.336,168.000 72.200 C 168.247 72.047,168.400 68.596,168.400 63.176 C 168.400 57.592,168.255 54.400,168.000 54.400 C 167.780 54.400,167.600 53.584,167.600 52.587 C 167.600 51.345,167.411 50.702,167.000 50.545 C 166.670 50.418,166.400 49.884,166.400 49.357 C 166.400 48.831,166.220 48.400,166.000 48.400 C 165.780 48.400,165.600 48.034,165.600 47.587 C 165.600 47.141,165.330 46.671,165.000 46.545 C 164.670 46.418,164.400 45.884,164.400 45.357 C 164.400 44.831,164.220 44.400,164.000 44.400 C 163.780 44.400,163.600 44.124,163.600 43.787 C 163.600 43.451,163.330 43.071,163.000 42.945 C 162.670 42.818,162.400 42.464,162.400 42.157 C 162.400 41.851,162.130 41.600,161.800 41.600 C 161.470 41.600,161.245 41.460,161.300 41.288 C 161.437 40.860,158.173 37.600,157.608 37.600 C 157.358 37.600,157.244 37.452,157.356 37.271 C 157.655 36.788,156.119 35.600,155.195 35.600 C 154.755 35.600,154.400 35.332,154.400 35.000 C 154.400 34.670,154.239 34.400,154.042 34.400 C 153.845 34.400,153.269 33.969,152.763 33.443 C 152.256 32.917,151.609 32.575,151.324 32.684 C 151.040 32.794,150.696 32.594,150.561 32.242 C 150.404 31.833,149.837 31.600,149.000 31.600 C 148.201 31.600,147.595 31.365,147.455 31.000 C 147.277 30.535,146.498 30.400,144.000 30.400 C 141.502 30.400,140.723 30.535,140.545 31.000 M100.976 138.105 C 103.610 140.381,102.774 144.997,98.607 151.189 C 97.833 152.339,97.200 153.359,97.200 153.455 C 97.200 155.309,91.419 158.333,89.250 157.615 C 84.855 156.159,82.997 147.867,86.379 144.800 C 86.501 144.690,86.940 143.970,87.355 143.200 C 90.518 137.335,97.196 134.837,100.976 138.105 M157.865 167.022 C 159.528 168.291,160.188 170.259,159.627 172.280 C 159.394 173.116,159.203 174.567,159.202 175.505 C 159.201 176.443,159.035 177.523,158.833 177.905 C 158.632 178.287,158.247 179.192,157.978 179.916 C 157.289 181.772,155.308 184.400,154.597 184.400 C 154.269 184.400,154.000 184.580,154.000 184.800 C 154.000 185.039,152.467 185.200,150.200 185.200 C 145.002 185.200,144.800 184.989,144.800 179.575 C 144.800 175.479,144.898 175.104,147.248 170.200 C 147.816 169.015,149.838 166.800,150.353 166.800 C 150.599 166.800,150.800 166.633,150.800 166.428 C 150.800 165.236,156.108 165.682,157.865 167.022 M114.145 179.400 C 114.344 180.060,114.652 180.960,114.829 181.400 C 115.006 181.840,115.242 182.830,115.354 183.600 C 115.581 185.156,116.528 189.069,116.904 190.000 C 117.037 190.330,117.237 191.230,117.350 192.000 C 117.697 194.370,118.478 197.757,118.878 198.629 C 120.248 201.611,119.275 206.104,116.922 207.655 C 113.887 209.656,108.800 206.924,108.800 203.294 C 108.800 202.890,108.637 202.389,108.437 202.180 C 107.809 201.522,107.085 198.730,106.106 193.200 C 105.754 191.209,105.401 191.082,102.800 192.017 C 102.030 192.293,101.040 192.648,100.600 192.804 C 100.160 192.961,99.119 193.384,98.286 193.745 C 97.454 194.105,96.250 194.400,95.610 194.400 C 94.970 194.400,94.336 194.580,94.200 194.800 C 93.782 195.476,89.782 195.249,87.900 194.443 C 84.751 193.093,83.796 191.774,83.958 189.000 C 84.009 188.139,85.987 186.800,87.209 186.800 C 87.618 186.800,88.064 186.620,88.200 186.400 C 88.336 186.180,88.752 185.999,89.124 185.998 C 89.496 185.996,90.316 185.726,90.946 185.398 C 91.576 185.069,92.510 184.800,93.022 184.800 C 93.534 184.800,94.064 184.620,94.200 184.400 C 94.336 184.180,94.724 184.000,95.063 184.000 C 95.402 184.000,96.246 183.754,96.940 183.453 C 97.633 183.152,99.280 182.575,100.600 182.171 C 101.920 181.766,103.171 181.293,103.380 181.118 C 103.589 180.943,104.176 180.800,104.685 180.800 C 105.194 180.800,105.923 180.629,106.305 180.419 C 106.687 180.210,107.630 179.787,108.400 179.479 C 112.831 177.707,113.632 177.696,114.145 179.400 M219.600 316.000 C 219.600 316.220,220.031 316.400,220.557 316.400 C 221.084 316.400,221.618 316.670,221.745 317.000 C 221.879 317.351,222.479 317.600,223.187 317.600 C 223.854 317.600,224.400 317.780,224.400 318.000 C 224.400 318.220,225.120 318.400,226.000 318.400 C 227.038 318.400,227.600 318.581,227.600 318.915 C 227.600 319.198,228.002 319.460,228.494 319.497 C 228.986 319.534,229.451 319.752,229.527 319.982 C 229.604 320.212,230.082 320.400,230.591 320.400 C 231.099 320.400,231.618 320.670,231.745 321.000 C 231.878 321.347,232.476 321.600,233.164 321.600 C 233.818 321.600,234.464 321.780,234.600 322.000 C 234.736 322.220,235.467 322.400,236.224 322.400 C 237.180 322.400,237.600 322.583,237.600 323.000 C 237.600 323.373,237.978 323.600,238.600 323.600 C 239.150 323.600,239.600 323.780,239.600 324.000 C 239.600 324.220,240.050 324.400,240.600 324.400 C 241.698 324.400,241.986 325.366,241.000 325.745 C 240.670 325.871,240.400 326.341,240.400 326.787 C 240.400 327.234,240.220 327.600,240.000 327.600 C 239.780 327.600,239.600 327.984,239.600 328.454 C 239.600 328.924,239.150 329.725,238.600 330.235 C 238.050 330.745,237.600 331.440,237.600 331.781 C 237.600 332.121,237.330 332.400,237.000 332.400 C 236.670 332.400,236.400 332.220,236.400 332.000 C 236.400 331.755,234.524 331.600,231.571 331.600 C 227.859 331.600,226.607 331.464,226.156 331.013 C 225.827 330.684,224.926 330.450,224.107 330.480 C 223.301 330.511,222.575 330.326,222.489 330.068 C 222.403 329.810,221.738 329.600,221.009 329.600 C 220.202 329.600,219.596 329.366,219.455 329.000 C 219.311 328.623,218.699 328.400,217.813 328.400 C 217.036 328.400,216.400 328.220,216.400 328.000 C 216.400 327.487,209.715 327.464,209.533 327.976 C 209.460 328.184,208.861 328.450,208.203 328.568 C 207.545 328.686,206.945 328.966,206.870 329.191 C 206.795 329.416,206.544 329.600,206.313 329.600 C 206.081 329.600,205.475 330.050,204.965 330.600 C 203.958 331.687,203.600 331.836,203.600 331.171 C 203.600 330.618,204.618 329.600,205.171 329.600 C 205.407 329.600,205.600 329.413,205.600 329.185 C 205.600 328.957,206.380 328.012,207.334 327.085 C 208.287 326.158,209.388 324.725,209.779 323.900 C 210.171 323.075,210.664 322.400,210.874 322.400 C 211.394 322.400,212.183 321.564,212.532 320.643 C 212.690 320.226,212.926 319.993,213.057 320.124 C 213.290 320.357,214.400 319.465,214.400 319.043 C 214.400 318.926,215.156 318.103,216.081 317.215 C 217.644 315.713,219.600 315.038,219.600 316.000 " stroke="none" fill="#a6f7ff" fill-rule="evenodd"></path></g></svg>
