<svg id="svg" version="1.1" width="400" height="400" viewBox="0 0 400 400" xmlns="http://www.w3.org/2000/svg" xmlns:xlink="http://www.w3.org/1999/xlink" ><g id="svgg"><path id="path0" d="" stroke="none" fill="#000000" fill-rule="evenodd"></path><path id="path1" d="" stroke="none" fill="#333333" fill-rule="evenodd"></path><path id="path2" d="" stroke="none" fill="#555555" fill-rule="evenodd"></path><path id="path3" d="M93.454 137.771 C 92.261 138.298,88.000 142.289,88.000 142.879 C 88.000 143.064,87.550 143.929,87.000 144.800 C 86.450 145.671,86.000 146.737,86.000 147.168 C 86.000 147.600,85.820 148.064,85.600 148.200 C 84.305 149.000,85.597 154.363,87.483 156.019 C 90.501 158.669,93.850 157.286,97.457 151.900 C 98.526 150.305,99.535 148.940,99.700 148.867 C 99.865 148.793,100.002 148.523,100.004 148.267 C 100.006 148.010,100.450 146.900,100.991 145.800 C 103.898 139.890,99.430 135.131,93.454 137.771 M151.027 166.873 C 149.084 168.000,146.000 172.669,146.000 174.482 C 146.000 174.851,145.820 175.264,145.600 175.400 C 145.167 175.667,145.041 182.320,145.448 183.382 C 146.463 186.027,153.372 185.560,155.862 182.679 C 158.523 179.600,160.124 171.377,158.609 168.565 C 157.545 166.589,153.191 165.617,151.027 166.873 M109.600 179.530 C 108.610 179.903,107.619 180.325,107.397 180.468 C 107.175 180.611,106.318 180.854,105.493 181.009 C 104.667 181.164,103.893 181.450,103.772 181.645 C 103.651 181.840,103.201 182.000,102.771 182.000 C 102.341 182.000,101.677 182.168,101.295 182.374 C 100.913 182.580,98.890 183.312,96.800 184.000 C 94.710 184.688,92.687 185.420,92.305 185.626 C 91.923 185.832,91.259 186.000,90.829 186.000 C 90.399 186.000,89.936 186.180,89.800 186.400 C 89.664 186.620,89.248 186.802,88.876 186.804 C 82.990 186.840,83.531 193.484,89.480 194.227 C 92.754 194.636,98.865 193.564,100.180 192.351 C 100.389 192.158,100.953 192.000,101.434 192.000 C 101.915 192.000,102.824 191.731,103.454 191.402 C 105.826 190.165,106.208 190.629,107.217 195.978 C 107.854 199.358,108.071 200.196,108.636 201.460 C 108.946 202.154,109.200 202.898,109.200 203.115 C 109.200 205.151,112.065 208.000,114.113 208.000 C 118.923 208.000,120.067 203.958,117.574 195.772 C 117.368 195.096,117.200 194.212,117.200 193.807 C 117.200 193.402,116.913 192.064,116.563 190.835 C 116.213 189.606,115.781 187.970,115.603 187.200 C 115.426 186.430,115.069 184.990,114.810 184.000 C 114.551 183.010,114.218 181.480,114.070 180.600 C 113.747 178.686,112.579 178.406,109.600 179.530 M126.800 269.000 C 126.800 269.330,126.980 269.600,127.200 269.600 C 127.420 269.600,127.600 269.330,127.600 269.000 C 127.600 268.670,127.420 268.400,127.200 268.400 C 126.980 268.400,126.800 268.670,126.800 269.000 " stroke="none" fill="#717171" fill-rule="evenodd"></path><path id="path4" d="M140.800 31.000 C 140.526 31.330,139.868 31.600,139.338 31.600 C 138.809 31.600,138.272 31.869,138.146 32.198 C 138.019 32.526,137.767 32.704,137.586 32.591 C 137.404 32.479,137.140 32.573,137.000 32.800 C 136.860 33.027,136.577 33.109,136.372 32.983 C 136.168 32.856,136.000 32.943,136.000 33.176 C 136.000 33.409,135.730 33.600,135.400 33.600 C 135.070 33.600,134.800 33.870,134.800 34.200 C 134.800 34.530,134.612 34.800,134.383 34.800 C 133.991 34.800,133.538 35.113,132.215 36.300 C 131.908 36.575,131.561 36.800,131.443 36.800 C 130.993 36.800,127.600 40.611,127.600 41.117 C 127.600 41.408,127.440 41.548,127.244 41.427 C 127.048 41.306,126.567 41.696,126.176 42.293 C 125.784 42.891,125.137 43.731,124.737 44.160 C 124.336 44.590,123.895 45.301,123.755 45.741 C 123.615 46.181,123.073 47.003,122.551 47.567 C 122.028 48.130,121.600 48.819,121.600 49.096 C 121.600 49.373,121.440 49.600,121.243 49.600 C 121.047 49.600,120.774 50.050,120.636 50.600 C 120.498 51.150,120.208 51.600,119.992 51.600 C 119.777 51.600,119.600 52.050,119.600 52.600 C 119.600 53.150,119.425 53.600,119.210 53.600 C 118.684 53.600,117.600 55.757,117.600 56.804 C 117.600 57.268,117.420 57.536,117.200 57.400 C 116.980 57.264,116.800 57.511,116.800 57.948 C 116.800 58.385,116.530 59.013,116.200 59.343 C 115.870 59.673,115.600 60.296,115.600 60.729 C 115.600 61.161,115.310 61.626,114.955 61.762 C 114.554 61.916,114.386 62.302,114.510 62.779 C 114.626 63.222,114.476 63.639,114.156 63.762 C 113.850 63.879,113.600 64.499,113.600 65.138 C 113.600 65.778,113.330 66.526,113.000 66.800 C 112.670 67.074,112.400 67.636,112.400 68.049 C 112.400 68.462,112.220 68.800,112.000 68.800 C 111.780 68.800,111.600 69.411,111.600 70.157 C 111.600 70.995,111.370 71.603,111.000 71.745 C 110.670 71.871,110.400 72.420,110.400 72.964 C 110.400 73.508,110.220 74.064,110.000 74.200 C 109.780 74.336,109.600 74.977,109.600 75.624 C 109.600 76.271,109.428 76.800,109.218 76.800 C 109.008 76.800,108.718 77.432,108.573 78.204 C 108.428 78.977,108.150 79.707,107.955 79.828 C 107.760 79.949,107.600 80.857,107.600 81.847 C 107.600 82.863,107.437 83.546,107.226 83.416 C 107.020 83.289,106.729 83.998,106.580 84.992 C 106.431 85.987,106.150 86.800,105.955 86.800 C 105.760 86.800,105.600 87.415,105.600 88.167 C 105.600 88.918,105.432 89.593,105.227 89.667 C 105.022 89.740,104.762 90.606,104.651 91.592 C 104.539 92.578,104.257 93.448,104.024 93.525 C 103.791 93.603,103.600 94.562,103.600 95.657 C 103.600 96.842,103.443 97.550,103.212 97.407 C 102.998 97.275,102.739 97.580,102.636 98.084 C 102.533 98.588,102.332 99.540,102.190 100.200 C 102.047 100.860,101.793 102.390,101.624 103.600 C 101.456 104.810,101.291 105.631,101.259 105.424 C 101.226 105.216,100.975 105.336,100.700 105.689 C 100.316 106.182,99.233 106.370,96.021 106.503 C 93.358 106.614,91.785 106.844,91.687 107.138 C 91.587 107.438,90.355 107.600,88.167 107.600 C 86.315 107.600,84.800 107.763,84.800 107.962 C 84.800 108.162,83.900 108.449,82.800 108.600 C 81.700 108.751,80.800 109.038,80.800 109.238 C 80.800 109.437,79.900 109.600,78.800 109.600 C 77.700 109.600,76.800 109.757,76.800 109.949 C 76.800 110.141,76.080 110.413,75.200 110.554 C 74.320 110.694,73.600 110.987,73.600 111.205 C 73.600 111.422,73.150 111.600,72.600 111.600 C 72.050 111.600,71.600 111.780,71.600 112.000 C 71.600 112.220,71.234 112.400,70.787 112.400 C 70.341 112.400,69.886 112.632,69.777 112.916 C 69.668 113.199,69.006 113.475,68.305 113.528 C 67.605 113.582,66.934 113.776,66.816 113.959 C 66.697 114.142,66.195 114.419,65.700 114.573 C 65.205 114.728,64.800 115.022,64.800 115.227 C 64.800 115.432,64.530 115.600,64.200 115.600 C 63.870 115.600,63.600 115.768,63.600 115.973 C 63.600 116.178,63.195 116.474,62.700 116.630 C 62.205 116.787,61.530 117.223,61.200 117.600 C 60.870 117.977,60.195 118.413,59.700 118.570 C 59.205 118.726,58.800 119.022,58.800 119.227 C 58.800 119.432,58.570 119.600,58.288 119.600 C 58.007 119.600,57.524 119.950,57.215 120.379 C 56.907 120.807,56.507 121.066,56.327 120.955 C 56.147 120.844,56.000 120.943,56.000 121.176 C 56.000 121.409,55.811 121.600,55.580 121.600 C 55.349 121.600,54.512 122.230,53.719 123.000 C 52.926 123.770,52.125 124.400,51.939 124.400 C 51.752 124.400,51.600 124.670,51.600 125.000 C 51.600 125.330,51.420 125.623,51.200 125.650 C 50.980 125.678,50.665 125.724,50.500 125.752 C 49.911 125.855,43.600 132.587,43.600 133.112 C 43.600 133.406,43.432 133.543,43.227 133.417 C 43.022 133.290,42.533 133.729,42.141 134.393 C 41.748 135.057,41.286 135.600,41.114 135.600 C 40.941 135.600,40.800 135.870,40.800 136.200 C 40.800 136.530,40.530 136.800,40.200 136.800 C 39.870 136.800,39.600 137.038,39.600 137.328 C 39.600 137.618,39.150 138.247,38.600 138.725 C 38.050 139.203,37.600 139.866,37.600 140.197 C 37.600 140.529,37.459 140.800,37.286 140.800 C 37.114 140.800,36.630 141.385,36.211 142.100 C 35.793 142.815,35.169 143.619,34.825 143.887 C 34.481 144.155,34.380 144.383,34.600 144.393 C 34.867 144.406,34.867 144.510,34.600 144.706 C 33.963 145.174,31.600 148.687,31.600 149.165 C 31.600 149.404,31.440 149.600,31.243 149.600 C 31.047 149.600,30.774 150.050,30.636 150.600 C 30.498 151.150,30.208 151.600,29.992 151.600 C 29.777 151.600,29.600 152.061,29.600 152.624 C 29.600 153.187,29.450 153.554,29.266 153.441 C 28.856 153.187,27.600 155.730,27.600 156.814 C 27.600 157.246,27.440 157.600,27.243 157.600 C 27.047 157.600,26.774 158.050,26.636 158.600 C 26.498 159.150,26.208 159.600,25.992 159.600 C 25.777 159.600,25.600 160.118,25.600 160.751 C 25.600 161.384,25.350 162.110,25.044 162.364 C 24.437 162.868,24.060 164.308,23.728 167.400 C 23.609 168.500,23.307 169.528,23.056 169.685 C 22.316 170.148,22.282 182.351,23.017 183.768 C 23.338 184.386,23.600 185.252,23.600 185.692 C 23.600 186.764,24.908 190.400,25.294 190.400 C 25.462 190.400,25.600 190.850,25.600 191.400 C 25.600 191.950,25.760 192.400,25.957 192.400 C 26.153 192.400,26.426 192.850,26.564 193.400 C 26.702 193.950,26.992 194.400,27.208 194.400 C 27.423 194.400,27.600 194.698,27.600 195.062 C 27.600 195.426,28.050 196.314,28.600 197.036 C 29.150 197.757,29.600 198.526,29.600 198.744 C 29.600 198.963,30.050 199.496,30.600 199.929 C 31.150 200.361,31.600 200.934,31.600 201.201 C 31.600 201.665,31.994 202.160,34.500 204.848 C 35.105 205.497,35.600 206.168,35.600 206.339 C 35.600 206.510,36.154 207.059,36.831 207.560 C 37.509 208.061,37.961 208.572,37.837 208.697 C 37.712 208.821,38.183 209.345,38.883 209.861 C 39.583 210.378,39.995 210.800,39.800 210.800 C 39.605 210.800,40.055 211.250,40.800 211.800 C 41.545 212.350,42.011 212.800,41.834 212.800 C 41.657 212.800,42.300 213.475,43.263 214.300 C 45.425 216.154,47.019 217.594,49.905 220.300 C 51.137 221.455,52.342 222.400,52.583 222.400 C 52.825 222.400,53.304 222.715,53.648 223.100 C 54.479 224.028,57.913 226.904,58.743 227.366 C 59.104 227.567,59.767 228.120,60.215 228.595 C 60.663 229.069,61.608 229.714,62.315 230.026 C 63.022 230.339,63.600 230.800,63.600 231.051 C 63.600 231.302,63.915 231.616,64.300 231.751 C 64.685 231.885,65.720 232.530,66.600 233.184 C 67.480 233.838,68.515 234.379,68.900 234.387 C 69.285 234.394,69.600 234.568,69.600 234.773 C 69.600 234.978,69.997 235.272,70.481 235.426 C 71.493 235.747,72.679 236.800,72.029 236.800 C 71.793 236.800,71.600 237.036,71.600 237.324 C 71.600 238.012,69.352 240.298,68.369 240.610 C 67.946 240.744,67.600 241.022,67.600 241.227 C 67.600 241.869,63.355 241.668,62.800 241.000 C 62.526 240.670,62.054 240.400,61.751 240.400 C 61.448 240.400,61.200 240.209,61.200 239.976 C 61.200 239.743,61.041 239.651,60.848 239.771 C 60.654 239.890,59.889 239.454,59.148 238.801 C 58.406 238.147,57.566 237.610,57.281 237.606 C 56.995 237.603,56.333 237.138,55.810 236.573 C 55.287 236.008,54.796 235.603,54.719 235.673 C 54.643 235.743,54.315 235.571,53.990 235.292 C 51.752 233.366,50.915 232.801,50.300 232.800 C 49.915 232.800,49.600 232.530,49.600 232.200 C 49.600 231.860,49.241 231.600,48.771 231.600 C 48.316 231.600,47.673 231.330,47.343 231.000 C 46.614 230.271,44.654 230.214,43.929 230.900 C 43.638 231.175,43.040 231.461,42.600 231.536 C 42.160 231.611,41.516 231.926,41.169 232.236 C 40.821 232.546,40.403 232.800,40.240 232.800 C 39.793 232.800,38.800 233.883,38.800 234.371 C 38.800 234.607,38.632 234.800,38.427 234.800 C 38.222 234.800,37.928 235.197,37.774 235.681 C 37.620 236.166,37.248 236.809,36.947 237.110 C 36.646 237.411,36.400 237.914,36.400 238.229 C 36.400 238.543,36.220 238.800,36.000 238.800 C 33.966 238.800,36.667 251.198,38.983 252.494 C 39.281 252.661,40.037 253.608,40.663 254.598 C 41.288 255.588,41.920 256.399,42.066 256.399 C 42.398 256.400,44.171 257.846,45.623 259.300 C 46.227 259.905,46.919 260.400,47.160 260.400 C 47.402 260.400,47.600 260.670,47.600 261.000 C 47.600 261.330,47.870 261.600,48.200 261.600 C 48.530 261.600,48.800 261.780,48.800 262.000 C 48.800 262.220,49.081 262.400,49.424 262.400 C 49.767 262.400,49.954 262.551,49.840 262.735 C 49.726 262.920,50.300 263.448,51.116 263.909 C 51.932 264.370,52.865 265.119,53.188 265.574 C 53.512 266.028,54.084 266.400,54.460 266.400 C 54.836 266.400,55.808 267.027,56.620 267.793 C 57.433 268.560,58.223 269.109,58.376 269.015 C 58.529 268.920,58.907 269.193,59.215 269.621 C 59.524 270.050,60.187 270.400,60.688 270.400 C 61.190 270.400,61.600 270.628,61.600 270.906 C 61.600 271.184,62.320 271.723,63.200 272.104 C 64.080 272.486,64.800 272.978,64.800 273.199 C 64.800 273.419,65.149 273.600,65.576 273.600 C 66.003 273.600,66.464 273.780,66.600 274.000 C 66.736 274.220,67.267 274.400,67.781 274.400 C 68.294 274.400,68.818 274.670,68.945 275.000 C 69.071 275.330,69.530 275.600,69.964 275.600 C 70.398 275.600,70.864 275.780,71.000 276.000 C 71.136 276.220,71.757 276.400,72.381 276.400 C 73.019 276.400,73.615 276.662,73.745 277.000 C 74.015 277.704,83.367 277.900,83.793 277.211 C 83.926 276.997,84.701 276.512,85.517 276.133 C 88.414 274.790,89.687 272.935,90.279 269.200 C 90.401 268.430,90.720 267.671,90.989 267.514 C 91.258 267.357,91.494 266.641,91.515 265.922 C 91.535 265.204,91.743 264.552,91.976 264.475 C 92.209 264.397,92.400 263.738,92.400 263.009 C 92.400 262.269,92.637 261.595,92.938 261.479 C 93.234 261.366,93.493 260.675,93.514 259.944 C 93.535 259.214,93.743 258.552,93.976 258.475 C 94.209 258.397,94.400 257.738,94.400 257.009 C 94.400 256.164,94.632 255.597,95.042 255.439 C 95.394 255.304,95.594 254.961,95.485 254.676 C 95.376 254.392,95.531 253.719,95.829 253.180 C 96.127 252.641,96.378 251.795,96.386 251.300 C 96.404 250.132,96.978 250.162,98.313 251.400 C 98.907 251.950,99.624 252.400,99.908 252.400 C 100.193 252.400,100.529 252.670,100.655 253.000 C 100.782 253.330,101.133 253.600,101.435 253.600 C 101.737 253.600,102.969 254.230,104.173 255.000 C 105.377 255.770,106.640 256.400,106.981 256.400 C 107.321 256.400,107.601 256.625,107.603 256.900 C 107.606 257.405,109.354 258.400,110.237 258.400 C 110.500 258.400,110.818 258.670,110.945 259.000 C 111.071 259.330,111.357 259.600,111.580 259.600 C 111.802 259.600,112.969 260.230,114.173 261.000 C 115.377 261.770,116.640 262.400,116.981 262.400 C 117.321 262.400,117.600 262.670,117.600 263.000 C 117.600 263.330,117.872 263.600,118.205 263.600 C 118.952 263.600,120.194 264.313,121.515 265.500 C 122.066 265.995,122.881 266.400,123.325 266.400 C 123.770 266.400,124.008 266.525,123.855 266.679 C 123.553 266.980,126.206 268.400,127.071 268.400 C 127.955 268.400,127.671 269.093,126.200 270.521 C 125.430 271.269,124.800 272.088,124.800 272.340 C 124.800 272.593,124.605 272.800,124.367 272.800 C 124.128 272.800,123.355 273.395,122.648 274.123 C 120.867 275.957,117.498 276.209,115.799 274.634 C 115.194 274.074,114.562 273.700,114.395 273.803 C 114.228 273.907,113.868 273.723,113.596 273.396 C 113.324 273.068,112.876 272.800,112.600 272.800 C 112.324 272.800,111.874 272.530,111.600 272.200 C 111.326 271.870,110.846 271.600,110.534 271.600 C 110.221 271.600,109.480 271.150,108.887 270.600 C 108.293 270.050,107.491 269.600,107.104 269.600 C 106.717 269.600,106.400 269.432,106.400 269.227 C 106.400 269.022,105.995 268.726,105.500 268.570 C 105.005 268.413,104.271 267.908,103.869 267.445 C 102.995 266.442,96.419 266.149,96.101 267.100 C 96.009 267.375,95.745 267.600,95.514 267.600 C 94.904 267.600,92.400 270.356,92.400 271.028 C 92.400 271.343,92.220 271.600,92.000 271.600 C 91.780 271.600,91.600 271.870,91.600 272.200 C 91.600 272.530,91.423 272.800,91.208 272.800 C 90.992 272.800,90.702 273.250,90.564 273.800 C 90.426 274.350,90.153 274.800,89.957 274.800 C 89.760 274.800,89.600 275.173,89.600 275.629 C 89.600 276.084,89.346 276.711,89.035 277.022 C 88.243 277.814,88.228 282.571,89.015 283.358 C 89.337 283.680,89.600 284.127,89.600 284.352 C 89.600 284.576,89.842 284.904,90.137 285.080 C 90.432 285.256,90.974 285.865,91.340 286.434 C 91.706 287.002,92.448 287.705,92.989 287.994 C 93.530 288.284,93.886 288.660,93.781 288.831 C 93.675 289.002,93.951 289.258,94.395 289.398 C 94.838 289.539,95.390 290.007,95.620 290.438 C 95.851 290.870,96.184 291.134,96.359 291.025 C 96.534 290.917,97.200 291.417,97.839 292.138 C 98.478 292.858,99.585 293.705,100.300 294.021 C 101.015 294.337,101.601 294.776,101.603 294.998 C 101.607 295.454,103.458 296.400,104.346 296.400 C 104.669 296.400,104.828 296.505,104.700 296.633 C 104.310 297.024,105.946 298.400,106.800 298.400 C 107.244 298.400,107.600 298.667,107.600 299.000 C 107.600 299.330,107.834 299.600,108.120 299.600 C 108.876 299.600,110.793 300.545,110.797 300.920 C 110.799 301.095,111.565 301.586,112.500 302.011 C 113.435 302.435,114.020 302.794,113.800 302.807 C 113.232 302.842,116.431 304.400,117.071 304.400 C 117.362 304.400,117.600 304.560,117.600 304.757 C 117.600 304.953,118.050 305.226,118.600 305.364 C 119.150 305.502,119.600 305.792,119.600 306.008 C 119.600 306.223,120.031 306.400,120.557 306.400 C 121.084 306.400,121.622 306.681,121.754 307.025 C 121.886 307.369,122.161 307.548,122.365 307.422 C 122.569 307.296,123.007 307.464,123.339 307.796 C 123.671 308.128,124.566 308.400,125.329 308.400 C 126.141 308.400,126.802 308.629,126.927 308.955 C 127.234 309.754,133.052 309.764,133.358 308.965 C 133.478 308.653,134.109 308.400,134.768 308.400 C 135.488 308.400,136.116 308.123,136.352 307.700 C 136.567 307.315,136.846 307.045,136.972 307.100 C 137.097 307.155,137.155 307.112,137.100 307.003 C 137.045 306.895,137.557 306.490,138.239 306.103 C 140.168 305.008,141.003 304.294,141.813 303.047 C 142.225 302.413,143.245 301.161,144.081 300.265 C 144.916 299.369,145.600 298.423,145.600 298.163 C 145.600 297.701,146.215 296.395,146.996 295.200 C 147.697 294.127,148.728 290.862,148.461 290.563 C 148.317 290.403,148.395 290.383,148.634 290.519 C 149.125 290.798,150.400 288.391,150.400 287.186 C 150.400 286.754,150.670 286.400,151.000 286.400 C 151.340 286.400,151.600 286.041,151.600 285.571 C 151.600 284.259,152.719 283.357,153.636 283.930 C 154.050 284.188,154.662 284.400,154.995 284.400 C 155.328 284.400,155.601 284.625,155.603 284.900 C 155.606 285.405,157.354 286.400,158.237 286.400 C 158.500 286.400,158.818 286.670,158.945 287.000 C 159.071 287.330,159.541 287.600,159.987 287.600 C 160.434 287.600,160.800 287.780,160.800 288.000 C 160.800 288.220,161.166 288.400,161.613 288.400 C 162.059 288.400,162.529 288.670,162.655 289.000 C 162.782 289.330,163.316 289.600,163.843 289.600 C 164.369 289.600,164.800 289.780,164.800 290.000 C 164.800 290.220,165.261 290.400,165.824 290.400 C 166.387 290.400,166.758 290.545,166.648 290.722 C 166.539 290.899,167.113 291.393,167.924 291.818 C 168.736 292.244,169.490 292.698,169.600 292.828 C 169.938 293.225,172.493 294.400,173.019 294.400 C 173.291 294.400,173.618 294.670,173.745 295.000 C 173.871 295.330,174.330 295.600,174.764 295.600 C 175.198 295.600,175.664 295.780,175.800 296.000 C 175.936 296.220,176.397 296.400,176.824 296.400 C 177.251 296.400,177.600 296.670,177.600 297.000 C 177.600 297.330,177.872 297.600,178.205 297.600 C 178.972 297.600,180.501 298.445,180.920 299.100 C 181.096 299.375,181.593 299.600,182.025 299.600 C 182.946 299.600,184.463 300.386,184.920 301.100 C 185.096 301.375,185.514 301.600,185.848 301.600 C 187.350 301.600,187.992 303.249,187.000 304.559 C 186.684 304.976,186.520 305.471,186.636 305.659 C 186.752 305.847,186.651 306.000,186.411 306.000 C 186.171 306.000,185.856 306.315,185.710 306.700 C 185.121 308.254,182.496 309.127,181.800 308.000 C 181.664 307.780,181.203 307.600,180.776 307.600 C 180.349 307.600,180.000 307.420,180.000 307.200 C 180.000 306.980,179.752 306.800,179.449 306.800 C 179.146 306.800,178.674 306.530,178.400 306.200 C 178.126 305.870,177.403 305.600,176.794 305.600 C 176.156 305.600,175.583 305.334,175.445 304.972 C 175.292 304.575,174.931 304.432,174.458 304.581 C 174.027 304.718,173.500 304.561,173.207 304.209 C 172.929 303.874,172.229 303.594,171.651 303.587 C 171.073 303.580,170.291 303.339,169.912 303.052 C 168.835 302.234,159.880 302.178,159.073 302.984 C 158.734 303.323,158.084 303.600,157.629 303.600 C 157.173 303.600,156.800 303.780,156.800 304.000 C 156.800 304.220,156.530 304.400,156.200 304.400 C 155.870 304.400,155.600 304.700,155.600 305.067 C 155.600 305.433,155.486 305.619,155.347 305.480 C 155.208 305.341,154.758 305.654,154.347 306.177 C 153.505 307.246,153.195 316.400,154.000 316.400 C 154.220 316.400,154.400 316.738,154.400 317.151 C 154.400 317.564,154.670 318.126,155.000 318.400 C 155.330 318.674,155.600 319.300,155.600 319.791 C 155.600 320.282,156.050 321.169,156.600 321.762 C 157.150 322.356,157.600 322.941,157.600 323.063 C 157.600 323.185,158.037 323.629,158.571 324.049 C 159.106 324.469,159.917 325.419,160.375 326.159 C 160.833 326.900,161.745 327.729,162.404 328.001 C 163.062 328.274,163.600 328.745,163.600 329.049 C 163.600 329.352,163.870 329.600,164.200 329.600 C 164.530 329.600,164.800 329.780,164.800 330.000 C 164.800 330.220,165.081 330.400,165.424 330.400 C 165.767 330.400,165.939 330.575,165.807 330.788 C 165.675 331.002,166.027 331.292,166.590 331.433 C 167.152 331.574,167.951 332.120,168.364 332.645 C 168.777 333.170,169.402 333.600,169.753 333.600 C 170.104 333.600,170.708 333.871,171.095 334.203 C 171.483 334.535,171.938 334.801,172.108 334.795 C 172.277 334.789,172.806 335.147,173.283 335.592 C 173.760 336.036,174.663 336.400,175.288 336.400 C 175.930 336.400,176.525 336.661,176.655 337.000 C 176.782 337.330,177.306 337.600,177.819 337.600 C 178.333 337.600,178.864 337.780,179.000 338.000 C 179.136 338.220,179.666 338.400,180.178 338.400 C 180.690 338.400,181.624 338.672,182.254 339.004 C 183.793 339.815,191.364 339.779,192.186 338.957 C 192.492 338.651,192.994 338.400,193.300 338.400 C 194.047 338.400,196.875 337.009,196.629 336.762 C 196.522 336.655,196.782 336.541,197.207 336.509 C 197.990 336.451,198.257 336.265,200.396 334.300 C 201.054 333.695,201.774 333.200,201.996 333.200 C 202.218 333.200,202.400 332.961,202.400 332.668 C 202.400 332.376,203.570 330.925,205.000 329.445 C 206.430 327.965,207.600 326.606,207.600 326.426 C 207.600 326.246,207.868 325.876,208.196 325.604 C 208.523 325.332,208.675 324.922,208.534 324.693 C 208.390 324.460,208.468 324.395,208.711 324.545 C 208.954 324.695,209.462 324.280,209.859 323.607 C 210.252 322.943,210.727 322.400,210.915 322.400 C 211.328 322.400,212.400 321.371,212.400 320.974 C 212.400 320.819,212.850 320.275,213.400 319.765 C 213.950 319.255,214.402 318.695,214.404 318.519 C 214.416 317.634,217.160 315.600,218.343 315.600 C 219.034 315.600,219.600 315.780,219.600 316.000 C 219.600 316.220,220.050 316.400,220.600 316.400 C 221.150 316.400,221.600 316.572,221.600 316.782 C 221.600 316.992,222.232 317.282,223.004 317.427 C 223.777 317.572,224.507 317.850,224.628 318.045 C 224.749 318.240,225.467 318.400,226.224 318.400 C 226.981 318.400,227.600 318.545,227.600 318.723 C 227.600 318.901,228.365 319.368,229.300 319.761 C 230.235 320.154,231.567 320.729,232.260 321.038 C 232.954 321.347,233.798 321.600,234.137 321.600 C 234.476 321.600,234.864 321.780,235.000 322.000 C 235.136 322.220,235.757 322.400,236.381 322.400 C 237.035 322.400,237.615 322.662,237.752 323.019 C 237.882 323.359,238.217 323.587,238.495 323.525 C 239.327 323.340,241.600 324.455,241.600 325.049 C 241.600 325.352,241.440 325.600,241.243 325.600 C 241.047 325.600,240.774 326.050,240.636 326.600 C 240.498 327.150,240.208 327.600,239.992 327.600 C 239.777 327.600,239.600 328.108,239.600 328.728 C 239.600 329.432,239.225 330.182,238.600 330.725 C 238.050 331.203,237.600 331.776,237.600 331.997 C 237.600 332.520,236.122 332.522,235.800 332.000 C 235.658 331.769,233.529 331.600,230.776 331.600 C 228.149 331.600,226.000 331.450,226.000 331.267 C 226.000 331.083,225.775 330.903,225.500 330.865 C 225.225 330.828,224.396 330.724,223.657 330.635 C 222.918 330.546,222.117 330.277,221.877 330.037 C 221.637 329.797,221.041 329.600,220.553 329.600 C 220.066 329.600,219.604 329.411,219.527 329.180 C 219.450 328.949,218.760 328.664,217.993 328.547 C 217.227 328.430,216.429 328.169,216.220 327.967 C 215.699 327.464,209.600 327.494,209.600 328.000 C 209.600 328.220,209.234 328.400,208.787 328.400 C 208.341 328.400,207.886 328.632,207.777 328.916 C 207.668 329.199,207.221 329.458,206.783 329.491 C 205.927 329.556,203.600 331.660,203.600 332.369 C 203.600 332.606,203.420 332.800,203.200 332.800 C 202.980 332.800,202.800 333.027,202.800 333.304 C 202.800 333.581,202.388 334.256,201.886 334.804 C 200.331 336.497,199.600 337.740,199.600 338.689 C 199.600 339.190,199.432 339.600,199.227 339.600 C 198.105 339.600,198.428 341.344,199.968 343.599 C 200.862 344.910,201.640 346.199,201.697 346.463 C 201.867 347.254,202.940 348.400,203.513 348.400 C 203.807 348.400,203.958 348.545,203.848 348.722 C 203.739 348.899,204.313 349.393,205.124 349.818 C 205.936 350.244,206.705 350.736,206.833 350.912 C 207.147 351.342,212.400 354.400,212.824 354.400 C 213.009 354.400,213.304 354.625,213.480 354.900 C 213.843 355.467,215.394 356.400,215.974 356.400 C 216.186 356.400,216.844 356.850,217.438 357.400 C 218.031 357.950,218.761 358.400,219.058 358.400 C 219.356 358.400,219.600 358.577,219.600 358.792 C 219.600 359.008,220.050 359.298,220.600 359.436 C 221.150 359.574,221.600 359.847,221.600 360.043 C 221.600 360.240,222.050 360.400,222.600 360.400 C 223.150 360.400,223.600 360.577,223.600 360.792 C 223.600 361.008,224.050 361.298,224.600 361.436 C 225.150 361.574,225.600 361.847,225.600 362.043 C 225.600 362.240,226.050 362.400,226.600 362.400 C 227.150 362.400,227.600 362.577,227.600 362.792 C 227.600 363.008,228.050 363.298,228.600 363.436 C 229.150 363.574,229.600 363.847,229.600 364.043 C 229.600 364.240,230.031 364.400,230.557 364.400 C 231.084 364.400,231.618 364.670,231.745 365.000 C 231.871 365.330,232.330 365.600,232.764 365.600 C 233.198 365.600,233.664 365.780,233.800 366.000 C 233.936 366.220,234.647 366.400,235.381 366.400 C 236.197 366.400,236.804 366.633,236.945 367.000 C 237.088 367.374,237.698 367.600,238.564 367.600 C 239.328 367.600,240.051 367.759,240.171 367.954 C 240.490 368.469,249.073 368.530,249.389 368.018 C 249.531 367.788,250.092 367.600,250.636 367.600 C 251.180 367.600,251.729 367.330,251.855 367.000 C 251.982 366.670,252.336 366.400,252.643 366.400 C 253.371 366.400,254.811 364.954,254.467 364.569 C 254.320 364.406,254.418 364.397,254.685 364.550 C 255.317 364.913,256.913 363.317,256.550 362.685 C 256.397 362.418,256.414 362.329,256.588 362.486 C 256.993 362.851,258.490 362.069,258.220 361.632 C 258.031 361.326,260.590 358.400,261.048 358.400 C 261.340 358.400,262.400 357.310,262.400 357.010 C 262.400 356.874,263.210 355.941,264.200 354.936 C 265.190 353.932,266.000 352.946,266.000 352.745 C 266.000 352.544,266.782 351.597,267.737 350.642 C 268.693 349.686,269.587 348.611,269.725 348.252 C 269.862 347.894,270.207 347.600,270.491 347.600 C 270.775 347.600,271.269 347.195,271.589 346.700 C 272.163 345.814,272.251 345.593,272.350 344.800 C 272.377 344.580,272.593 344.400,272.829 344.400 C 273.382 344.400,274.400 343.382,274.400 342.829 C 274.400 342.593,274.568 342.400,274.773 342.400 C 274.978 342.400,275.265 342.026,275.410 341.570 C 275.555 341.113,276.287 340.107,277.037 339.335 C 277.786 338.563,278.400 337.668,278.400 337.347 C 278.400 337.025,278.850 336.345,279.400 335.835 C 279.950 335.325,280.400 334.524,280.400 334.054 C 280.400 333.584,280.535 333.245,280.700 333.300 C 280.865 333.355,281.033 333.249,281.073 333.064 C 281.326 331.903,284.811 331.046,285.400 332.000 C 285.718 332.515,296.107 332.533,296.621 332.019 C 296.830 331.810,297.697 331.592,298.546 331.534 C 299.395 331.477,300.179 331.199,300.288 330.915 C 300.397 330.632,301.096 330.400,301.843 330.400 C 302.589 330.400,303.200 330.220,303.200 330.000 C 303.200 329.780,303.538 329.600,303.951 329.600 C 304.364 329.600,304.912 329.347,305.169 329.037 C 305.426 328.727,306.259 328.179,307.018 327.818 C 307.778 327.457,308.400 326.991,308.400 326.781 C 308.400 326.572,308.578 326.400,308.795 326.400 C 309.483 326.400,310.769 325.076,310.515 324.629 C 310.381 324.393,310.416 324.330,310.592 324.489 C 311.369 325.192,314.799 321.901,314.490 320.750 C 314.430 320.525,314.553 320.447,314.763 320.577 C 314.974 320.708,315.467 320.271,315.859 319.607 C 316.252 318.943,316.804 318.400,317.086 318.400 C 317.369 318.400,317.600 318.130,317.600 317.800 C 317.600 317.470,317.780 317.200,318.000 317.200 C 318.220 317.200,318.400 316.939,318.400 316.621 C 318.400 316.302,318.850 315.556,319.400 314.962 C 319.950 314.369,320.400 313.639,320.400 313.342 C 320.400 313.044,320.681 312.485,321.025 312.100 C 322.112 310.882,323.600 308.387,323.600 307.782 C 323.600 307.462,323.780 307.200,324.000 307.200 C 324.220 307.200,324.400 306.876,324.400 306.480 C 324.400 306.084,324.610 305.550,324.867 305.293 C 325.411 304.749,326.385 302.100,326.394 301.143 C 326.397 300.781,326.670 300.382,327.000 300.255 C 327.330 300.129,327.600 299.580,327.600 299.036 C 327.600 298.492,327.780 297.936,328.000 297.800 C 328.220 297.664,328.400 297.198,328.400 296.764 C 328.400 296.330,328.648 295.880,328.950 295.764 C 329.252 295.648,329.500 295.076,329.500 294.493 C 329.500 293.910,329.702 293.366,329.950 293.283 C 330.197 293.201,330.400 292.538,330.400 291.809 C 330.400 291.081,330.629 290.398,330.909 290.290 C 331.189 290.183,331.460 289.587,331.511 288.965 C 331.563 288.344,331.784 287.656,332.002 287.438 C 332.221 287.219,332.400 286.523,332.400 285.891 C 332.400 285.260,332.670 284.473,333.000 284.143 C 333.330 283.813,333.600 283.094,333.600 282.545 C 333.600 281.996,333.770 281.229,333.978 280.841 C 334.186 280.452,334.399 279.304,334.452 278.289 C 334.504 277.274,334.675 276.523,334.832 276.620 C 335.260 276.884,335.600 275.722,335.600 273.991 C 335.600 273.142,335.780 272.336,336.000 272.200 C 336.220 272.064,336.400 270.968,336.400 269.764 C 336.400 268.187,336.568 267.510,337.000 267.345 C 337.458 267.169,337.600 266.417,337.600 264.157 C 337.600 262.452,337.769 261.200,338.000 261.200 C 338.220 261.200,338.400 260.654,338.400 259.987 C 338.400 258.801,340.289 256.400,341.222 256.400 C 341.439 256.400,342.329 255.950,343.200 255.400 C 344.071 254.850,344.968 254.400,345.192 254.400 C 345.416 254.400,345.600 254.220,345.600 254.000 C 345.600 253.780,345.842 253.600,346.138 253.600 C 346.434 253.600,347.199 253.150,347.838 252.600 C 348.477 252.051,349.231 251.601,349.513 251.600 C 349.794 251.600,350.129 251.330,350.255 251.000 C 350.382 250.670,350.794 250.400,351.170 250.400 C 351.547 250.400,352.562 249.770,353.427 249.000 C 354.292 248.230,355.231 247.600,355.513 247.600 C 355.794 247.600,356.129 247.330,356.255 247.000 C 356.382 246.670,356.789 246.400,357.159 246.400 C 357.530 246.400,358.482 245.788,359.275 245.040 C 360.068 244.292,361.095 243.560,361.558 243.413 C 362.021 243.266,362.400 242.978,362.400 242.773 C 362.400 242.568,362.578 242.400,362.795 242.400 C 363.463 242.400,364.774 241.081,364.518 240.667 C 364.385 240.452,364.464 240.392,364.693 240.534 C 364.922 240.675,365.332 240.523,365.604 240.196 C 365.876 239.868,366.281 239.600,366.506 239.600 C 366.730 239.600,367.416 239.105,368.031 238.500 C 369.421 237.131,370.305 236.400,370.570 236.400 C 370.682 236.400,371.403 235.770,372.173 235.000 C 372.943 234.230,373.759 233.600,373.987 233.600 C 374.214 233.600,374.400 233.330,374.400 233.000 C 374.400 232.670,374.670 232.400,375.000 232.400 C 375.330 232.400,375.600 232.265,375.601 232.100 C 375.601 231.935,376.141 231.170,376.800 230.400 C 377.459 229.630,377.999 228.897,377.999 228.772 C 378.000 228.647,378.540 227.939,379.200 227.200 C 379.860 226.461,380.400 225.605,380.400 225.299 C 380.400 224.993,380.670 224.473,381.000 224.143 C 381.330 223.813,381.600 223.016,381.600 222.371 C 381.600 221.727,381.780 221.200,382.000 221.200 C 382.220 221.200,382.400 220.491,382.400 219.624 C 382.400 218.757,382.220 217.936,382.000 217.800 C 381.780 217.664,381.600 217.098,381.600 216.542 C 381.600 215.495,379.407 212.800,378.555 212.800 C 378.297 212.800,377.982 212.530,377.855 212.200 C 377.591 211.512,367.779 211.290,367.533 211.967 C 367.460 212.168,365.694 212.427,363.609 212.540 C 361.464 212.658,359.756 212.933,359.675 213.174 C 359.592 213.423,358.334 213.600,356.647 213.600 C 355.059 213.600,353.575 213.785,353.348 214.012 C 353.121 214.239,351.428 214.484,349.586 214.558 C 347.553 214.639,346.177 214.870,346.085 215.146 C 345.993 215.421,344.935 215.600,343.400 215.600 C 342.007 215.600,340.807 215.757,340.733 215.949 C 340.660 216.140,339.540 216.395,338.244 216.515 C 336.948 216.635,335.778 216.896,335.644 217.095 C 335.510 217.293,334.411 217.504,333.202 217.563 C 331.993 217.621,330.893 217.849,330.757 218.069 C 330.622 218.289,330.396 218.453,330.255 218.434 C 328.948 218.259,327.551 218.507,327.057 219.000 C 325.592 220.465,323.657 219.648,321.444 216.631 C 321.028 216.064,320.521 215.600,320.318 215.600 C 320.115 215.600,319.071 214.700,318.000 213.600 C 316.929 212.500,315.942 211.600,315.808 211.600 C 315.673 211.600,313.850 210.430,311.755 209.000 C 309.661 207.570,307.779 206.400,307.574 206.400 C 307.368 206.400,307.200 206.209,307.200 205.976 C 307.200 205.743,307.046 205.648,306.858 205.764 C 306.670 205.880,305.918 205.441,305.186 204.788 C 304.455 204.134,303.528 203.600,303.128 203.600 C 302.728 203.600,302.400 203.423,302.400 203.208 C 302.400 202.992,301.950 202.702,301.400 202.564 C 300.850 202.426,300.400 202.153,300.400 201.957 C 300.400 201.760,300.208 201.600,299.973 201.600 C 299.739 201.600,298.957 201.150,298.236 200.600 C 297.514 200.050,296.626 199.600,296.262 199.600 C 295.898 199.600,295.600 199.461,295.600 199.291 C 295.600 199.121,294.925 198.626,294.100 198.192 C 293.275 197.757,292.362 197.176,292.071 196.901 C 291.781 196.625,291.286 196.400,290.971 196.400 C 290.657 196.400,290.400 196.220,290.400 196.000 C 290.400 195.780,290.208 195.600,289.973 195.600 C 289.739 195.600,288.957 195.150,288.236 194.600 C 287.514 194.050,286.646 193.600,286.305 193.600 C 285.964 193.600,285.581 193.328,285.454 192.996 C 285.327 192.664,285.082 192.416,284.911 192.444 C 284.217 192.558,283.712 192.366,282.952 191.700 C 281.913 190.790,279.680 189.600,279.010 189.600 C 278.722 189.600,278.398 189.371,278.290 189.091 C 278.183 188.812,277.039 188.047,275.748 187.391 C 274.456 186.736,273.340 186.065,273.267 185.900 C 273.193 185.735,272.878 185.600,272.567 185.600 C 272.255 185.600,272.000 185.420,272.000 185.200 C 272.000 184.980,271.752 184.800,271.449 184.800 C 271.146 184.800,270.674 184.530,270.400 184.200 C 270.126 183.870,269.579 183.600,269.184 183.600 C 268.790 183.600,268.404 183.412,268.327 183.182 C 268.251 182.952,267.786 182.734,267.294 182.697 C 266.802 182.660,266.400 182.398,266.400 182.115 C 266.400 181.832,266.208 181.600,265.973 181.600 C 265.739 181.600,264.957 181.150,264.236 180.600 C 263.514 180.050,262.704 179.600,262.434 179.600 C 262.164 179.600,261.671 179.328,261.339 178.996 C 261.007 178.664,260.589 178.483,260.410 178.594 C 260.230 178.705,259.981 178.526,259.854 178.198 C 259.728 177.869,259.259 177.600,258.813 177.600 C 258.366 177.600,258.000 177.420,258.000 177.200 C 258.000 176.980,257.752 176.800,257.449 176.800 C 257.146 176.800,256.674 176.530,256.400 176.200 C 256.126 175.870,255.647 175.600,255.334 175.600 C 255.022 175.600,254.369 175.226,253.883 174.769 C 253.397 174.313,252.246 173.593,251.324 173.170 C 250.403 172.748,249.537 172.222,249.401 172.001 C 249.264 171.780,248.823 171.600,248.419 171.600 C 248.016 171.600,247.575 171.311,247.439 170.958 C 247.304 170.606,246.940 170.414,246.630 170.533 C 246.320 170.652,245.967 170.491,245.846 170.175 C 245.724 169.859,245.349 169.600,245.013 169.600 C 244.676 169.600,244.400 169.420,244.400 169.200 C 244.400 168.980,243.950 168.800,243.400 168.800 C 242.850 168.800,242.400 168.572,242.400 168.294 C 242.400 168.016,241.725 167.475,240.900 167.093 C 239.192 166.300,238.077 165.623,237.288 164.900 C 236.988 164.625,236.486 164.400,236.171 164.400 C 235.857 164.400,235.600 164.220,235.600 164.000 C 235.600 163.780,235.240 163.600,234.800 163.600 C 234.360 163.600,234.000 163.420,234.000 163.200 C 234.000 162.980,233.752 162.800,233.449 162.800 C 233.146 162.800,232.674 162.530,232.400 162.200 C 232.126 161.870,231.564 161.600,231.151 161.600 C 230.738 161.600,230.400 161.432,230.400 161.227 C 230.400 161.022,229.995 160.728,229.500 160.573 C 229.005 160.419,228.510 160.181,228.400 160.046 C 228.112 159.692,226.815 158.902,225.200 158.098 C 224.430 157.714,223.579 157.192,223.309 156.937 C 223.039 156.683,222.274 156.234,221.609 155.940 C 220.944 155.646,220.400 155.269,220.400 155.102 C 220.400 154.936,219.950 154.800,219.400 154.800 C 218.850 154.800,218.400 154.572,218.400 154.294 C 218.400 154.016,217.680 153.477,216.800 153.096 C 215.920 152.714,215.200 152.211,215.200 151.978 C 215.200 151.744,215.043 151.650,214.852 151.768 C 214.660 151.887,214.092 151.627,213.590 151.192 C 213.088 150.756,212.435 150.400,212.139 150.400 C 211.842 150.400,211.600 150.262,211.600 150.094 C 211.600 149.926,210.880 149.477,210.000 149.096 C 209.120 148.714,208.400 148.222,208.400 148.001 C 208.400 147.781,208.118 147.600,207.773 147.600 C 207.108 147.600,207.348 145.937,208.053 145.667 C 208.244 145.593,208.400 145.266,208.400 144.940 C 208.400 144.614,208.850 143.757,209.400 143.036 C 209.950 142.314,210.400 141.426,210.400 141.062 C 210.400 140.698,210.634 140.400,210.920 140.400 C 211.205 140.400,211.671 139.758,211.955 138.974 C 212.239 138.190,212.725 137.450,213.035 137.331 C 213.346 137.212,213.600 136.774,213.600 136.357 C 213.600 135.941,213.780 135.600,214.000 135.600 C 214.220 135.600,214.400 135.249,214.400 134.820 C 214.400 134.391,214.625 133.896,214.900 133.720 C 215.559 133.298,216.400 131.770,216.400 130.993 C 216.400 130.653,216.670 130.271,217.000 130.145 C 217.330 130.018,217.600 129.589,217.600 129.191 C 217.600 128.792,217.788 128.404,218.018 128.327 C 218.248 128.251,218.465 127.798,218.501 127.322 C 218.537 126.845,218.680 126.526,218.820 126.612 C 218.959 126.699,219.469 126.011,219.952 125.085 C 220.435 124.158,220.988 123.130,221.182 122.800 C 221.375 122.470,221.827 121.525,222.185 120.700 C 222.544 119.875,223.009 119.200,223.219 119.200 C 223.428 119.200,223.600 118.851,223.600 118.424 C 223.600 117.997,223.780 117.536,224.000 117.400 C 224.220 117.264,224.400 116.798,224.400 116.364 C 224.400 115.930,224.670 115.471,225.000 115.345 C 225.330 115.218,225.600 114.784,225.600 114.381 C 225.600 113.977,225.780 113.536,226.000 113.400 C 226.220 113.264,226.400 112.803,226.400 112.376 C 226.400 111.949,226.577 111.600,226.792 111.600 C 227.008 111.600,227.303 111.105,227.448 110.500 C 227.592 109.895,227.865 109.202,228.055 108.960 C 228.244 108.717,228.438 108.055,228.484 107.488 C 228.531 106.921,228.752 106.489,228.975 106.528 C 229.198 106.568,229.446 106.150,229.524 105.600 C 229.603 105.050,229.832 104.429,230.034 104.220 C 230.235 104.011,230.400 103.593,230.400 103.291 C 230.400 102.990,230.670 102.473,231.000 102.143 C 231.330 101.813,231.600 101.116,231.600 100.595 C 231.600 100.074,231.780 99.536,232.000 99.400 C 232.220 99.264,232.400 98.611,232.400 97.948 C 232.400 97.285,232.670 96.473,233.000 96.143 C 233.408 95.735,233.600 94.726,233.600 92.995 C 233.600 91.594,233.780 90.336,234.000 90.200 C 234.220 90.064,234.400 88.714,234.400 87.200 C 234.400 85.686,234.220 84.336,234.000 84.200 C 233.780 84.064,233.600 82.878,233.600 81.564 C 233.600 79.809,233.441 79.114,233.000 78.945 C 232.670 78.818,232.400 78.360,232.400 77.927 C 232.400 76.805,229.490 70.809,228.943 70.804 C 228.692 70.802,228.374 70.350,228.236 69.800 C 228.098 69.250,227.808 68.800,227.592 68.800 C 227.377 68.800,227.200 68.519,227.200 68.176 C 227.200 67.833,227.020 67.664,226.800 67.800 C 226.580 67.936,226.400 67.767,226.400 67.424 C 226.400 67.081,226.220 66.800,226.000 66.800 C 225.780 66.800,225.600 66.530,225.600 66.200 C 225.600 65.870,225.360 65.600,225.068 65.600 C 224.775 65.600,224.294 65.150,224.000 64.600 C 223.706 64.050,223.256 63.600,223.000 63.600 C 222.744 63.600,222.294 63.150,222.000 62.600 C 221.706 62.050,221.296 61.600,221.090 61.600 C 220.884 61.600,220.361 61.150,219.929 60.600 C 219.496 60.050,218.814 59.600,218.414 59.600 C 218.013 59.600,217.577 59.318,217.445 58.972 C 217.284 58.555,216.935 58.430,216.400 58.600 C 215.882 58.764,215.517 58.649,215.373 58.275 C 215.121 57.618,206.800 57.268,206.800 57.914 C 206.800 58.108,206.575 58.282,206.300 58.301 C 205.264 58.373,203.850 58.793,203.629 59.094 C 203.503 59.267,202.680 59.766,201.800 60.204 C 200.920 60.642,200.140 61.135,200.067 61.300 C 199.993 61.465,199.771 61.600,199.573 61.600 C 198.892 61.600,189.996 70.877,189.755 71.838 C 189.622 72.367,189.252 72.800,188.933 72.800 C 188.614 72.800,188.451 72.960,188.572 73.155 C 188.693 73.350,188.523 73.732,188.196 74.004 C 187.868 74.276,187.600 74.757,187.600 75.073 C 187.600 75.389,187.420 75.536,187.200 75.400 C 186.980 75.264,186.800 75.523,186.800 75.976 C 186.800 76.442,186.539 76.800,186.200 76.800 C 185.870 76.800,185.600 77.027,185.600 77.304 C 185.600 77.581,185.150 78.293,184.600 78.887 C 184.050 79.480,183.600 80.344,183.600 80.806 C 183.600 81.269,183.433 81.544,183.229 81.418 C 183.025 81.292,182.743 81.551,182.602 81.994 C 182.461 82.437,182.178 82.800,181.973 82.800 C 181.768 82.800,181.600 83.138,181.600 83.551 C 181.600 83.964,181.332 84.524,181.004 84.796 C 180.677 85.068,180.495 85.430,180.600 85.600 C 180.705 85.770,180.523 86.132,180.196 86.404 C 179.868 86.676,179.600 87.068,179.600 87.276 C 179.600 87.483,179.150 88.243,178.600 88.964 C 178.050 89.686,177.600 90.574,177.600 90.938 C 177.600 91.302,177.420 91.600,177.200 91.600 C 176.980 91.600,176.800 91.966,176.800 92.413 C 176.800 92.859,176.530 93.329,176.200 93.455 C 175.870 93.582,175.600 94.116,175.600 94.643 C 175.600 95.169,175.440 95.600,175.243 95.600 C 175.047 95.600,174.774 96.050,174.636 96.600 C 174.498 97.150,174.208 97.600,173.992 97.600 C 173.777 97.600,173.600 98.031,173.600 98.557 C 173.600 99.084,173.330 99.618,173.000 99.745 C 172.670 99.871,172.400 100.341,172.400 100.787 C 172.400 101.234,172.220 101.600,172.000 101.600 C 171.780 101.600,171.600 102.031,171.600 102.557 C 171.600 103.084,171.330 103.618,171.000 103.745 C 170.670 103.871,170.400 104.341,170.400 104.787 C 170.400 105.234,170.220 105.600,170.000 105.600 C 169.780 105.600,169.600 106.035,169.600 106.567 C 169.600 107.098,169.465 107.593,169.300 107.667 C 168.760 107.907,167.600 110.443,167.600 111.383 C 167.600 111.889,167.330 112.526,167.000 112.800 C 166.670 113.074,166.400 113.636,166.400 114.049 C 166.400 114.462,166.220 114.800,166.000 114.800 C 165.780 114.800,165.600 115.415,165.600 116.167 C 165.600 116.918,165.401 117.600,165.158 117.681 C 164.914 117.762,164.643 118.452,164.554 119.214 C 164.465 119.976,164.215 120.660,163.997 120.733 C 163.778 120.807,163.600 121.212,163.600 121.633 C 163.600 122.055,163.330 122.400,163.000 122.400 C 162.670 122.400,162.400 122.220,162.400 122.000 C 162.400 121.780,161.965 121.600,161.433 121.600 C 160.902 121.600,160.406 121.418,160.332 121.196 C 160.258 120.974,159.761 120.708,159.228 120.605 C 158.695 120.503,158.075 120.235,157.849 120.009 C 157.624 119.784,157.062 119.600,156.600 119.600 C 156.138 119.600,155.576 119.416,155.351 119.191 C 155.125 118.965,154.504 118.699,153.971 118.599 C 153.437 118.499,152.550 118.208,152.000 117.952 C 150.234 117.132,148.619 116.457,147.907 116.241 C 146.999 115.965,147.354 115.068,149.066 113.305 C 149.800 112.549,150.400 111.686,150.400 111.386 C 150.400 111.086,150.850 110.356,151.400 109.762 C 151.950 109.169,152.400 108.349,152.400 107.942 C 152.400 107.534,152.535 107.245,152.700 107.300 C 152.865 107.355,153.058 107.220,153.128 107.000 C 153.199 106.780,153.514 106.456,153.828 106.280 C 154.143 106.104,154.400 105.604,154.400 105.168 C 154.400 104.732,154.670 104.271,155.000 104.145 C 155.330 104.018,155.600 103.589,155.600 103.191 C 155.600 102.792,155.788 102.404,156.018 102.327 C 156.248 102.251,156.465 101.798,156.501 101.322 C 156.537 100.845,156.701 100.539,156.867 100.641 C 157.032 100.744,157.539 100.011,157.994 99.014 C 158.448 98.016,158.995 97.200,159.210 97.200 C 159.424 97.200,159.600 96.861,159.600 96.446 C 159.600 95.736,160.102 94.569,160.996 93.200 C 161.688 92.141,162.730 88.863,162.461 88.594 C 162.317 88.451,162.470 88.393,162.800 88.467 C 163.210 88.558,163.441 88.220,163.531 87.400 C 163.603 86.740,163.828 86.029,164.031 85.820 C 164.234 85.611,164.400 85.045,164.400 84.563 C 164.400 84.080,164.642 83.593,164.938 83.479 C 165.234 83.366,165.492 82.704,165.512 82.009 C 165.532 81.313,165.730 80.525,165.953 80.257 C 166.175 79.989,166.402 79.022,166.456 78.108 C 166.509 77.195,166.680 76.526,166.835 76.622 C 167.260 76.885,167.600 75.717,167.600 73.991 C 167.600 73.142,167.780 72.336,168.000 72.200 C 168.524 71.876,168.544 54.917,168.020 54.733 C 167.811 54.660,167.595 53.815,167.539 52.856 C 167.483 51.878,167.211 51.025,166.919 50.914 C 166.634 50.804,166.400 50.284,166.400 49.757 C 166.400 49.231,166.220 48.800,166.000 48.800 C 165.780 48.800,165.600 48.344,165.600 47.787 C 165.600 47.231,165.330 46.671,165.000 46.545 C 164.670 46.418,164.400 45.974,164.400 45.557 C 164.400 45.141,164.263 44.800,164.095 44.800 C 163.796 44.800,163.084 43.645,162.584 42.350 C 162.446 41.992,161.898 41.466,161.366 41.182 C 160.835 40.898,160.400 40.501,160.400 40.302 C 160.400 39.631,155.742 35.600,154.967 35.600 C 154.810 35.600,154.069 34.970,153.321 34.200 C 152.573 33.430,151.610 32.800,151.181 32.800 C 150.751 32.800,150.400 32.530,150.400 32.200 C 150.400 31.797,149.997 31.600,149.171 31.600 C 148.496 31.600,147.673 31.330,147.343 31.000 C 146.927 30.584,145.907 30.400,144.020 30.400 C 142.088 30.400,141.153 30.574,140.800 31.000 M99.172 137.700 C 102.192 138.757,102.902 141.916,100.991 145.800 C 100.450 146.900,100.006 148.010,100.004 148.267 C 100.002 148.523,99.865 148.793,99.700 148.867 C 99.535 148.940,98.526 150.305,97.457 151.900 C 93.850 157.286,90.501 158.669,87.483 156.019 C 85.597 154.363,84.305 149.000,85.600 148.200 C 85.820 148.064,86.000 147.600,86.000 147.168 C 86.000 146.737,86.450 145.671,87.000 144.800 C 87.550 143.929,88.000 143.064,88.000 142.879 C 88.000 142.289,92.261 138.298,93.454 137.771 C 94.957 137.107,97.391 137.077,99.172 137.700 M156.689 166.821 C 161.188 168.389,159.138 181.523,153.975 184.210 C 151.127 185.692,146.149 185.208,145.448 183.382 C 145.041 182.320,145.167 175.667,145.600 175.400 C 145.820 175.264,146.000 174.851,146.000 174.482 C 146.000 172.669,149.084 168.000,151.027 166.873 C 152.011 166.302,155.118 166.274,156.689 166.821 M114.070 180.600 C 114.218 181.480,114.551 183.010,114.810 184.000 C 115.069 184.990,115.426 186.430,115.603 187.200 C 115.781 187.970,116.213 189.606,116.563 190.835 C 116.913 192.064,117.200 193.402,117.200 193.807 C 117.200 194.212,117.368 195.096,117.574 195.772 C 120.067 203.958,118.923 208.000,114.113 208.000 C 112.065 208.000,109.200 205.151,109.200 203.115 C 109.200 202.898,108.946 202.154,108.636 201.460 C 108.071 200.196,107.854 199.358,107.217 195.978 C 106.208 190.629,105.826 190.165,103.454 191.402 C 102.824 191.731,101.915 192.000,101.434 192.000 C 100.953 192.000,100.389 192.158,100.180 192.351 C 98.865 193.564,92.754 194.636,89.480 194.227 C 83.531 193.484,82.990 186.840,88.876 186.804 C 89.248 186.802,89.664 186.620,89.800 186.400 C 89.936 186.180,90.399 186.000,90.829 186.000 C 91.259 186.000,91.923 185.832,92.305 185.626 C 92.687 185.420,94.710 184.688,96.800 184.000 C 98.890 183.312,100.913 182.580,101.295 182.374 C 101.677 182.168,102.341 182.000,102.771 182.000 C 103.201 182.000,103.651 181.840,103.772 181.645 C 103.893 181.450,104.667 181.164,105.493 181.009 C 106.318 180.854,107.175 180.611,107.397 180.468 C 110.585 178.415,113.712 178.477,114.070 180.600 " stroke="none" fill="#9c9c9c" fill-rule="evenodd"></path><path id="path5" d="" stroke="none" fill="#ffffff" fill-rule="evenodd"></path></g></svg>