<svg xmlns="http://www.w3.org/2000/svg" data-name="Layer 1" width="512" height="512" viewBox="0 0 384 384"><defs><style>  .cls-1{fill:#fc217d;}.cls-2{fill:none;stroke:#fff;stroke-width:19.29px;}.cls-3{fill:#fff;}</style></defs><title>kirakiratter</title><rect class="cls-1" width="384" height="384"/><path class="cls-2" d="M295.1 255s6.2 25.1 23 44.4c-26 0.8-53.6-6.1-53.6-6.1s-84.2 33.7-136.3-6.1C89.1 294.8 18.8 236.5 74.6 178.4 49.3 96.9 209.4 13 276.8 143.2 320.4 159.3 331.9 206 295.1 255Z"/><path class="cls-3" d="M182.2 186.4A102.3 102.3 0 0 1 181 199.6c-1.1 6.4-3.1 11.1-6.4 14.4s-7.9 5.3-14.3 6.4a100.2 100.2 0 0 1-13.1 1.2 100.7 100.7 0 0 1 13.1 1.2c6.4 1.1 11 3.1 14.3 6.4s5.2 8 6.4 14.4a103.1 103.1 0 0 1 1.2 13.2 101.6 101.6 0 0 1 1.2-13.2c1.1-6.4 3.1-11.1 6.4-14.4s7.9-5.3 14.3-6.4a100.7 100.7 0 0 1 13.1-1.2 100.7 100.7 0 0 1-13.1-1.2c-6.4-1.1-11-3.1-14.3-6.4s-5.2-7.9-6.4-14.4A103.1 103.1 0 0 1 182.2 186.4Z"/><path class="cls-3" d="M249.6 214.7a88.2 88.2 0 0 1-1 11.2c-0.9 5.4-2.5 9.4-5.2 12.2s-6.5 4.5-11.8 5.4a80.6 80.6 0 0 1-10.7 1 79.9 79.9 0 0 1 10.7 1c5.3 1 9.1 2.6 11.8 5.4s4.3 6.7 5.2 12.1a89 89 0 0 1 1 11.2 88.2 88.2 0 0 1 1-11.2c0.9-5.4 2.5-9.4 5.3-12.1s6.5-4.5 11.8-5.4a80.1 80.1 0 0 1 10.8-1 81.2 81.2 0 0 1-10.7-1c-5.3-1-9.1-2.6-11.8-5.4s-4.3-6.7-5.2-12.1A88.9 88.9 0 0 1 249.6 214.7Z"/><path class="cls-3" d="M226.8 128.4a142.9 142.9 0 0 1-1.7 18.5c-1.6 9-4.3 15.5-8.9 20.2s-11.1 7.4-20.1 9a141.5 141.5 0 0 1-18.3 1.7 141.4 141.4 0 0 1 18.3 1.7c9 1.6 15.5 4.4 20.1 9s7.4 11.1 8.9 20.2a143.5 143.5 0 0 1 1.7 18.6 143.8 143.8 0 0 1 1.7-18.5c1.6-9 4.3-15.5 8.9-20.2s11.1-7.4 20.1-9a141.6 141.6 0 0 1 18.3-1.7 141.4 141.4 0 0 1-18.3-1.7c-9-1.6-15.5-4.3-20.1-9S230.1 156 228.5 147A143.7 143.7 0 0 1 226.8 128.4Z"/></svg>
