<svg xmlns="http://www.w3.org/2000/svg" width="512" height="512" viewBox="0 0 512 512"><style type="text/css">.st0{display:none;fill:#FC217D;}.st1{fill:#FC217D;}.st2{fill:#FFFFFF;}</style><title>kirakiratter</title><rect class="st0" width="512" height="512"/><path class="st1" d="m446.8 370.6s11.1 45 41.3 79.7c-46.6 1.4-96.2-10.9-96.2-10.9s-151.1 60.5-244.5-10.9c-70.1 13.6-196.3-91-96.2-195.2-45.4-146.3 241.8-296.9 362.7-63.3 78.2 28.9 98.9 112.7 32.9 200.6z"/><path class="st2" d="m244.2 247.5c-0.2 7.9-0.9 15.8-2.2 23.7-2 11.5-5.6 19.9-11.5 25.8s-14.2 9.5-25.7 11.5c-7.8 1.2-15.6 2-23.5 2.2 7.9 0.2 15.7 0.9 23.5 2.2 11.5 2 19.7 5.6 25.7 11.5 5.9 5.9 9.3 14.4 11.5 25.8 1.2 7.8 1.9 15.7 2.2 23.7 0.2-7.9 0.9-15.8 2.2-23.7 2-11.5 5.6-19.9 11.5-25.8s14.2-9.5 25.7-11.5c7.8-1.2 15.6-1.9 23.5-2.2-7.9-0.2-15.7-0.9-23.5-2.2-11.5-2-19.7-5.6-25.7-11.5-5.9-5.9-9.3-14.2-11.5-25.8-1.3-7.8-2-15.7-2.2-23.7z"/><path class="st2" d="m365.1 298.3c-0.2 6.7-0.8 13.4-1.8 20.1-1.6 9.7-4.5 16.9-9.3 21.9s-11.7 8.1-21.2 9.7c-6.4 1-12.8 1.6-19.2 1.8 6.4 0.2 12.8 0.8 19.2 1.8 9.5 1.8 16.3 4.7 21.2 9.7 4.8 5 7.7 12 9.3 21.7 1 6.7 1.6 13.4 1.8 20.1 0.2-6.7 0.8-13.4 1.8-20.1 1.6-9.7 4.5-16.9 9.5-21.7s11.7-8.1 21.2-9.7c6.4-1 12.9-1.6 19.4-1.8-6.4-0.2-12.8-0.8-19.2-1.8-9.5-1.8-16.3-4.7-21.2-9.7-4.8-5-7.7-12-9.3-21.7-1.2-6.7-1.9-13.5-2.2-20.3z"/><path class="st2" d="m324.2 143.5c-0.3 11.1-1.3 22.2-3 33.2-2.9 16.1-7.7 27.8-16 36.2s-19.9 13.3-36.1 16.1c-10.9 1.7-21.8 2.7-32.8 3 11 0.3 22 1.3 32.8 3 16.1 2.9 27.8 7.9 36.1 16.1 8.3 8.3 13.3 19.9 16 36.2 1.7 11 2.8 22.2 3 33.4 0.3-11.1 1.3-22.2 3-33.2 2.9-16.1 7.7-27.8 16-36.2s19.9-13.3 36.1-16.1c10.9-1.7 21.8-2.7 32.8-3-11-0.3-22-1.3-32.8-3-16.1-2.9-27.8-7.7-36.1-16.1s-13.1-20.1-16-36.2c-1.7-11.1-2.7-22.3-3-33.4z"/></svg>
