<svg xmlns="http://www.w3.org/2000/svg" width="2625" height="512" viewBox="0 0 2625 512"><style type="text/css">.st0{display:none;fill:#FC217D;}.st1{fill:#FC217D;}.st2{fill:#FFFFFF;}.st3{fill:#BA7D6C;}</style><title>kirakiratter</title><rect class="st0" width="2625" height="512"/><path class="st1" d="m446.8 370.6s11.1 45 41.3 79.7c-46.6 1.4-96.2-10.9-96.2-10.9s-151.1 60.5-244.5-10.9c-70.1 13.6-196.3-91-96.2-195.2-45.4-146.3 241.8-296.9 362.7-63.3 78.2 28.9 98.9 112.7 32.9 200.6z"/><path class="st2" d="m244.2 247.5c-0.2 7.9-0.9 15.8-2.2 23.7-2 11.5-5.6 19.9-11.5 25.8s-14.2 9.5-25.7 11.5c-7.8 1.2-15.6 2-23.5 2.2 7.9 0.2 15.7 0.9 23.5 2.2 11.5 2 19.7 5.6 25.7 11.5 5.9 5.9 9.3 14.4 11.5 25.8 1.2 7.8 1.9 15.7 2.2 23.7 0.2-7.9 0.9-15.8 2.2-23.7 2-11.5 5.6-19.9 11.5-25.8s14.2-9.5 25.7-11.5c7.8-1.2 15.6-1.9 23.5-2.2-7.9-0.2-15.7-0.9-23.5-2.2-11.5-2-19.7-5.6-25.7-11.5-5.9-5.9-9.3-14.2-11.5-25.8-1.3-7.8-2-15.7-2.2-23.7z"/><path class="st2" d="m365.1 298.3c-0.2 6.7-0.8 13.4-1.8 20.1-1.6 9.7-4.5 16.9-9.3 21.9s-11.7 8.1-21.2 9.7c-6.4 1-12.8 1.6-19.2 1.8 6.4 0.2 12.8 0.8 19.2 1.8 9.5 1.8 16.3 4.7 21.2 9.7 4.8 5 7.7 12 9.3 21.7 1 6.7 1.6 13.4 1.8 20.1 0.2-6.7 0.8-13.4 1.8-20.1 1.6-9.7 4.5-16.9 9.5-21.7s11.7-8.1 21.2-9.7c6.4-1 12.9-1.6 19.4-1.8-6.4-0.2-12.8-0.8-19.2-1.8-9.5-1.8-16.3-4.7-21.2-9.7-4.8-5-7.7-12-9.3-21.7-1.2-6.7-1.9-13.5-2.2-20.3z"/><path class="st2" d="m324.2 143.5c-0.3 11.1-1.3 22.2-3 33.2-2.9 16.1-7.7 27.8-16 36.2s-19.9 13.3-36.1 16.1c-10.9 1.7-21.8 2.7-32.8 3 11 0.3 22 1.3 32.8 3 16.1 2.9 27.8 7.9 36.1 16.1 8.3 8.3 13.3 19.9 16 36.2 1.7 11 2.8 22.2 3 33.4 0.3-11.1 1.3-22.2 3-33.2 2.9-16.1 7.7-27.8 16-36.2s19.9-13.3 36.1-16.1c10.9-1.7 21.8-2.7 32.8-3-11-0.3-22-1.3-32.8-3-16.1-2.9-27.8-7.7-36.1-16.1s-13.1-20.1-16-36.2c-1.7-11.1-2.7-22.3-3-33.4z"/><path class="st3" d="m776.7 400.4c-4.3 0-8.6-1.4-12.2-4.7l-115.9-94v83.2c0 20.5-36.7 20.5-36.7 0v-258.5c0-20.9 36.7-20.9 36.7 0v131l104-76.7c4-3.2 8.6-4.7 12.6-4.7 10.4 0 19.4 8.3 19.4 18 0 4.7-2.2 10.1-7.9 14.4l-98.6 71.6 112.3 89.3c4.7 4 6.8 8.6 6.8 13 0 9.4-10.4 18.1-20.5 18.1z"/><path class="st3" d="m844.8 158.8c-13 0-23-11.2-23-24.5 0-13.7 10.1-24.8 23-24.8 13 0 23 11.2 23 24.8 0 13.3-10.1 24.5-23 24.5zm-18.4 226.1v-191.5c0-19.8 37.1-19.8 37.1 0v191.5c0 20.5-37.1 20.5-37.1 0z"/><path class="st3" d="m1018.3 214.6c-1.1 0-2.2 0-3.6-0.4-5.4-2.2-10.8-2.9-15.8-2.9-25.9 0-45.7 24.8-45.7 62.3v110.5c0 10.8-9 16.2-18 16.2-9.4 0-18.7-5.8-18.7-16.6v-191.4c0-10.4 9.4-15.8 18.4-15.8s17.6 5 17.6 14.4v11.1c9-17.3 27-25.6 46.8-25.6 6.5 0 13.3 1.1 20.2 2.9 10.1 1.8 14 9.4 14 16.9-0.1 9-6.2 18.4-15.2 18.4z"/><path class="st3" d="m1235.4 400.4c-6.1 0-12.6-2.9-15.8-9.4-2.9-5.4-4.7-13.3-5-19.8-0.4-1.1-0.4-2.2-0.4-2.9-15.1 22.3-47.2 34.2-75.6 34.2-58 0-80.3-23-83.2-59-0.4-2.5-0.4-4.7-0.4-7.2 0-27.4 15.5-49 41.8-59 49.3-18.7 109.8-11.2 109.8-36.4v-1.8c-2.2-19.8-18.7-31-50-31h-5.8c-23.4 0.7-43.6 13-54.4 33.5-4 6.1-9.7 8.6-15.5 8.6-9.7 0-19.1-7.2-19.1-17.3 0-2.9 0.7-6.1 2.9-9.7 15.1-28.8 47.9-47.5 86.4-48.6h5.4c62.3 0 88.6 29.5 88.6 83.5v2.2c0 11.5-0.4 24.1-0.4 36.7 0 31 1.1 62.3 7.9 79.2 1.1 2.9 1.4 5.4 1.4 7.6 0.1 10.4-9.3 16.6-18.6 16.6zm-123.2-93.6c-13 5-21.2 15.5-21.2 29.2 0 1.4 0 2.9 0.4 4.7 2.2 19.1 16.2 28.4 46.8 28.4h1.8c20.5 0 40.7-7.9 53.6-20.2 10.1-9.7 16.9-23 16.9-40.3v-7.2c0-10.4 0.4-22 0.4-22-18.4 15.8-62.3 12.6-98.7 27.4z"/><path class="st3" d="m1459.3 400.4c-4.3 0-8.6-1.4-12.2-4.7l-115.9-94v83.2c0 20.5-36.7 20.5-36.7 0v-258.5c0-20.9 36.7-20.9 36.7 0v131l104-76.7c4-3.2 8.6-4.7 12.6-4.7 10.4 0 19.4 8.3 19.4 18 0 4.7-2.2 10.1-7.9 14.4l-98.6 71.6 112.3 89.3c4.7 4 6.8 8.6 6.8 13 0 9.4-10.5 18.1-20.5 18.1z"/><path class="st3" d="m1527.3 158.8c-13 0-23-11.2-23-24.5 0-13.7 10.1-24.8 23-24.8s23 11.2 23 24.8c0 13.3-10 24.5-23 24.5zm-18.4 226.1v-191.5c0-19.8 37.1-19.8 37.1 0v191.5c0 20.5-37.1 20.5-37.1 0z"/><path class="st3" d="m1700.8 214.6c-1.1 0-2.2 0-3.6-0.4-5.4-2.2-10.8-2.9-15.8-2.9-25.9 0-45.7 24.8-45.7 62.3v110.5c0 10.8-9 16.2-18 16.2-9.4 0-18.7-5.8-18.7-16.6v-191.4c0-10.4 9.4-15.8 18.4-15.8s17.6 5 17.6 14.4v11.1c9-17.3 27-25.6 46.8-25.6 6.5 0 13.3 1.1 20.2 2.9 10.1 1.8 14 9.4 14 16.9-0.1 9-6.2 18.4-15.2 18.4z"/><path class="st3" d="m1917.9 400.4c-6.1 0-12.6-2.9-15.8-9.4-2.9-5.4-4.7-13.3-5-19.8-0.4-1.1-0.4-2.2-0.4-2.9-15.1 22.3-47.2 34.2-75.6 34.2-58 0-80.3-23-83.2-59-0.4-2.5-0.4-4.7-0.4-7.2 0-27.4 15.5-49 41.8-59 49.3-18.7 109.8-11.2 109.8-36.4v-1.8c-2.2-19.8-18.7-31-50-31h-5.8c-23.4 0.7-43.6 13-54.4 33.5-4 6.1-9.7 8.6-15.5 8.6-9.7 0-19.1-7.2-19.1-17.3 0-2.9 0.7-6.1 2.9-9.7 15.1-28.8 47.9-47.5 86.4-48.6h5.4c62.3 0 88.6 29.5 88.6 83.5v2.2c0 11.5-0.4 24.1-0.4 36.7 0 31 1.1 62.3 7.9 79.2 1.1 2.9 1.4 5.4 1.4 7.6 0.1 10.4-9.2 16.6-18.6 16.6zm-123.1-93.6c-13 5-21.2 15.5-21.2 29.2 0 1.4 0 2.9 0.4 4.7 2.2 19.1 16.2 28.4 46.8 28.4h1.8c20.5 0 40.7-7.9 53.6-20.2 10.1-9.7 16.9-23 16.9-40.3v-7.2c0-10.4 0.4-22 0.4-22-18.4 15.8-62.4 12.6-98.7 27.4z"/><path class="st3" d="m2073.1 391c-13 6.1-25.6 9.4-37.1 9.4-25.9 0-45.4-16.2-45.4-47.2v-138.6h-22.7c-8.3 0-12.6-8.6-12.6-16.9s4-16.6 12.6-16.6h22.7v-47.1c0-20.2 36.7-20.2 36.7 0v47.2h35.3c18.4 0 18.4 33.5 0 33.5h-35.3v131.8c0 12.2 6.5 19.8 18.4 19.8 5.4 0 11.9-1.4 19.1-4.3 1.8-0.7 3.2-0.7 4.7-0.7 7.9 0 13 7.2 13 14.8-0.1 5.5-3 11.7-9.4 14.9z"/><path class="st3" d="m2208.8 391c-13 6.1-25.6 9.4-37.1 9.4-25.9 0-45.4-16.2-45.4-47.2v-138.6h-22.7c-8.3 0-12.6-8.6-12.6-16.9s4-16.6 12.6-16.6h22.7v-47.1c0-20.2 36.7-20.2 36.7 0v47.2h35.3c18.4 0 18.4 33.5 0 33.5h-35.3v131.8c0 12.2 6.5 19.8 18.4 19.8 5.4 0 11.9-1.4 19.1-4.3 1.8-0.7 3.2-0.7 4.7-0.7 7.9 0 13 7.2 13 14.8-0.1 5.5-2.9 11.7-9.4 14.9z"/><path class="st3" d="m2421.5 302.4h-144.7c2.2 36.4 32.8 66.2 70.6 66.2 32 0 54-15.5 65.2-34.9 2.9-5 7.6-7.2 12.6-7.2 9 0 18.7 6.8 18.7 16.2 0 2.2-0.4 4.7-1.4 6.8-14.8 31-46.8 52.9-95.4 52.9-64.1 0-106.9-49.7-106.9-113 0-68.8 45.7-114.8 105.8-114.8 55.4 0 98.6 40.3 103.7 97.6v3.6c-0.1 15.8-8.7 26.6-28.2 26.6zm-8.6-38.8c-6.1-34.2-33.1-55.8-66.6-55.8-37.8 0-64.4 27-69.1 62.3h131.4c3.2 0 4.7-0.7 4.7-3.6 0-0.8-0.4-1.9-0.4-2.9z"/><path class="st3" d="m2594.3 214.6c-1.1 0-2.2 0-3.6-0.4-5.4-2.2-10.8-2.9-15.8-2.9-25.9 0-45.7 24.8-45.7 62.3v110.5c0 10.8-9 16.2-18 16.2-9.4 0-18.7-5.8-18.7-16.6v-191.4c0-10.4 9.4-15.8 18.4-15.8s17.6 5 17.6 14.4v11.1c9-17.3 27-25.6 46.8-25.6 6.5 0 13.3 1.1 20.2 2.9 10.1 1.8 14 9.4 14 16.9 0 9-6.2 18.4-15.2 18.4z"/></svg>
